<svg xmlns="http://www.w3.org/2000/svg" xmlns:xlink="http://www.w3.org/1999/xlink" width="240" zoomAndPan="magnify" viewBox="0 0 180 67.92" height="80" preserveAspectRatio="xMidYMid meet" version="1.0"><defs><clipPath id="47e787cfbc"><path d="M 150 22.949219 L 171 22.949219 L 171 37 L 150 37 Z M 150 22.949219 " clip-rule="nonzero"/></clipPath><clipPath id="4e39e62675"><path d="M 9 23 L 147 23 L 147 37.179688 L 9 37.179688 Z M 9 23 " clip-rule="nonzero"/></clipPath></defs><g clip-path="url(#47e787cfbc)"><path fill="#ff0000" d="M 161.691406 22.949219 L 154.476562 33.695312 C 153.53125 35.105469 151.988281 36.46875 150.128906 36.613281 L 150.128906 36.945312 L 158.152344 36.945312 C 160.28125 36.945312 161.832031 35.515625 162.886719 33.945312 L 170.292969 22.949219 Z M 161.691406 22.949219 " fill-opacity="1" fill-rule="nonzero"/></g><g clip-path="url(#4e39e62675)"><path fill="#051039" d="M 28.851562 36.945312 L 28.851562 24.128906 L 32.484375 24.128906 L 32.484375 36.945312 Z M 112.605469 36.945312 L 103.878906 29.332031 L 103.878906 36.945312 L 100.8125 36.945312 L 100.8125 24.128906 L 103.417969 24.128906 L 112.027344 31.617188 L 112.027344 24.128906 L 115.09375 24.128906 L 115.09375 36.945312 Z M 131.582031 28.261719 C 129.941406 27.429688 128.09375 26.757812 125.644531 26.757812 C 122.714844 26.757812 120.535156 28.316406 120.535156 30.480469 C 120.535156 32.703125 122.753906 34.273438 125.617188 34.273438 C 127.980469 34.273438 129.851562 33.652344 131.699219 32.554688 L 131.699219 35.726562 C 130.066406 36.558594 127.902344 37.179688 125.460938 37.179688 C 120.484375 37.179688 116.570312 34.566406 116.570312 30.480469 C 116.570312 26.464844 120.558594 23.890625 125.449219 23.890625 C 127.757812 23.890625 129.851562 24.335938 131.582031 25.066406 Z M 52.695312 36.945312 L 52.695312 24.128906 L 64.832031 24.128906 L 64.832031 26.875 L 56.324219 26.875 L 56.324219 30.058594 L 64.640625 30.058594 L 64.640625 32.808594 L 56.324219 32.808594 L 56.324219 36.945312 Z M 133.777344 36.945312 L 133.777344 24.128906 L 146.378906 24.128906 L 146.378906 26.875 L 137.410156 26.875 L 137.410156 29.097656 L 146.238281 29.097656 L 146.238281 31.84375 L 137.410156 31.84375 L 137.410156 34.195312 L 146.339844 34.195312 L 146.339844 36.945312 Z M 77.445312 32.132812 L 82.464844 36.945312 L 78.589844 36.945312 C 77.726562 36.945312 77.164062 36.667969 76.714844 36.21875 L 73.300781 32.808594 C 73.21875 32.730469 73.121094 32.695312 73.007812 32.703125 L 70.683594 32.703125 L 70.683594 36.945312 L 67.054688 36.945312 L 67.054688 24.128906 L 74.917969 24.128906 C 79 24.128906 80.71875 26.019531 80.71875 28.105469 C 80.71875 30.535156 78.613281 31.699219 77.445312 32.136719 Z M 74.546875 30.019531 C 75.984375 30.019531 76.675781 29.269531 76.675781 28.421875 C 76.675781 27.574219 76.0625 26.875 74.546875 26.875 L 70.683594 26.875 L 70.683594 30.019531 Z M 46.277344 32.136719 L 51.292969 36.945312 L 47.417969 36.945312 C 46.558594 36.945312 45.996094 36.667969 45.546875 36.21875 L 42.132812 32.808594 C 42.050781 32.730469 41.949219 32.695312 41.839844 32.703125 L 39.515625 32.703125 L 39.515625 36.945312 L 35.882812 36.945312 L 35.882812 24.128906 L 43.75 24.128906 C 47.832031 24.128906 49.550781 26.019531 49.550781 28.105469 C 49.550781 30.535156 47.445312 31.699219 46.277344 32.136719 Z M 43.378906 30.019531 C 44.816406 30.019531 45.507812 29.269531 45.507812 28.421875 C 45.507812 27.574219 44.894531 26.875 43.378906 26.875 L 39.515625 26.875 L 39.515625 30.019531 Z M 23.167969 36.945312 L 21.578125 34.128906 L 14.621094 34.128906 L 13.171875 36.945312 L 9.707031 36.945312 L 16.636719 24.140625 L 19.792969 24.140625 L 27.648438 36.945312 Z M 16.007812 31.460938 L 20.0625 31.460938 L 17.957031 27.550781 Z M 95.679688 36.945312 L 94.128906 34.128906 L 87.355469 34.128906 L 85.957031 36.945312 L 82.578125 36.945312 L 89.328125 24.140625 L 92.394531 24.140625 L 100.03125 36.945312 Z M 88.714844 31.460938 L 92.664062 31.460938 L 90.613281 27.550781 Z M 88.714844 31.460938 " fill-opacity="1" fill-rule="nonzero"/></g></svg>