<svg xmlns="http://www.w3.org/2000/svg" xmlns:xlink="http://www.w3.org/1999/xlink" width="240" zoomAndPan="magnify" viewBox="0 0 180 67.92" height="80" preserveAspectRatio="xMidYMid meet" version="1.0"><defs><clipPath id="8b6ac449ca"><path d="M 10.480469 6.164062 L 169.292969 6.164062 L 169.292969 54.109375 L 10.480469 54.109375 Z M 10.480469 6.164062 " clip-rule="nonzero"/></clipPath></defs><g clip-path="url(#8b6ac449ca)"><path fill="#ffffff" d="M 10.480469 -50.792969 L 169.292969 -50.792969 L 169.292969 108.019531 L 10.480469 108.019531 Z M 10.480469 -50.792969 " fill-opacity="1" fill-rule="evenodd"/></g><path fill="#0094d6" d="M 66.078125 36.621094 L 70.417969 36.621094 L 77.90625 22.414062 L 73.570312 22.414062 Z M 137.144531 36.621094 L 141.480469 36.621094 L 148.96875 22.414062 L 144.632812 22.414062 Z M 145.433594 36.621094 L 149.769531 36.621094 L 152.152344 32.097656 L 155.695312 32.097656 L 157.539062 36.621094 L 161.476562 36.621094 L 159.675781 32.140625 L 162.886719 32.140625 L 166.792969 24.714844 C 167.378906 23.375 166.320312 22.261719 164.660156 22.414062 L 152.921875 22.414062 L 152.8125 22.621094 Z M 160.15625 29.09375 L 153.734375 29.09375 L 155.671875 25.417969 L 162.09375 25.417969 Z M 92.132812 36.621094 L 99.621094 22.414062 L 95.285156 22.414062 L 89.933594 32.5625 L 85.992188 22.414062 L 81.636719 22.414062 L 74.148438 36.621094 L 78.484375 36.621094 L 83.6875 26.75 L 87.707031 36.621094 Z M 113.855469 36.621094 L 121.34375 22.414062 L 117.007812 22.414062 L 111.65625 32.5625 L 107.714844 22.414062 L 103.359375 22.414062 L 95.871094 36.621094 L 100.207031 36.621094 L 105.414062 26.75 L 109.429688 36.621094 Z M 117.589844 36.621094 L 121.925781 36.621094 L 124.3125 32.09375 L 131.242188 32.09375 L 128.855469 36.621094 L 133.195312 36.621094 L 140.683594 22.414062 L 136.347656 22.414062 L 136.34375 22.417969 L 129.414062 22.421875 L 129.414062 22.414062 L 125.078125 22.414062 Z M 125.890625 29.097656 L 127.832031 25.417969 L 134.761719 25.414062 L 132.824219 29.09375 Z M 69.527344 22.414062 L 68.050781 25.410156 L 58.671875 25.417969 L 56.726562 29.101562 L 66.117188 29.097656 L 64.640625 32.09375 L 55.148438 32.097656 L 52.765625 36.621094 L 48.429688 36.621094 L 55.042969 24.070312 L 55.855469 22.421875 L 55.914062 22.421875 L 55.917969 22.414062 L 60.253906 22.414062 L 60.25 22.417969 Z M 30.050781 45.851562 C 20.558594 45.851562 12.816406 38.105469 12.816406 28.613281 C 12.816406 19.121094 20.558594 11.378906 30.050781 11.378906 C 37.15625 11.378906 43.277344 15.714844 45.910156 21.875 L 40.390625 21.878906 L 40.390625 21.875 L 37.253906 21.875 L 37.253906 21.878906 L 37.210938 21.878906 L 36.621094 23.074219 L 33.65625 28.878906 L 16.285156 28.878906 L 14.492188 31.898438 L 35.101562 31.898438 L 36.699219 28.875 L 43.5625 28.871094 L 44.628906 26.707031 L 37.839844 26.710938 L 39.246094 24.042969 L 46.027344 24.042969 L 46.421875 23.238281 C 47 24.984375 47.289062 26.773438 47.285156 28.613281 C 47.289062 38.105469 39.542969 45.851562 30.050781 45.851562 Z M 30.050781 45.851562 " fill-opacity="1" fill-rule="evenodd"/></svg>