<svg xmlns="http://www.w3.org/2000/svg" width="240" height="80" version="1.0" viewBox="0 0 180 67.92"><defs><clipPath id="a"><path d="M36.324 5.992H143.45V59.93H36.324Zm0 0"/></clipPath></defs><g clip-path="url(#a)"><path fill="#fff" fill-rule="evenodd" d="M36.324-22.922H144.2V84.95H36.324Zm0 0"/></g><path fill="#2c4a7c" fill-rule="evenodd" d="M48.738 35.242c.395-.199.492-.594.492-.988V25.46c0-.297-.097-.79-.492-.988h4.149c1.879 0 3.754.789 3.754 2.965 0 1.085-.985 1.976-2.075 2.171 1.582 0 2.965.891 2.965 2.57 0 2.47-2.468 3.063-4.25 3.063Zm3.36-9.781h-.692v3.754h.492c1.286 0 2.473-.395 2.473-1.88 0-1.48-.988-1.874-2.273-1.874m.297 4.742h-.989v3.953c.492.098.989.098 1.48.098 1.09 0 2.176-.395 2.176-2.074 0-1.582-1.285-1.977-2.667-1.977m9.289-4.742h-.496v3.754h.496c1.183 0 2.074-.692 2.074-1.977s-.89-1.777-2.074-1.777m5.433 9.879c-.398 0-.89 0-1.285-.195-.691-.2-1.68-1.782-2.074-2.473-.692-.988-1.188-2.469-2.57-2.469v4.05c0 .395.097.79.496.99h-3.262c.394-.2.492-.595.492-.99v-8.792c0-.297-.098-.79-.492-.988h3.953c1.68 0 3.754.691 3.754 2.765 0 1.68-1.383 2.57-2.965 2.57 2.172 0 3.555 5.235 6.027 5.235q-1.019.299-2.074.297m2.172-.098c.297-.097.594-.492.594-.988V25.46c0-.492-.297-.79-.594-.988h3.36c-.297.199-.594.496-.594.988v8.793c0 .496.297.89.593.988Zm7.211 0c.297-.199.496-.594.496-.988v-8.496h-2.371c-.594 0-1.187.097-1.68.297l.79-1.582h7.808c.59 0 1.281 0 1.875-.098-.297.79-1.184 1.383-1.68 1.383h-2.566v8.496c0 .394.195.789.59.988Zm7.313 0c.296-.097.593-.492.593-.988V25.46c0-.492-.297-.79-.594-.988h3.36c-.297.199-.594.496-.594.988v8.793c0 .496.297.89.594.988Zm9.78-2.469c0-1.976-4.84-2.472-4.84-5.73 0-1.977 1.88-2.668 3.56-2.668.789 0 1.874.098 2.566.395l.098 2.074c-.395-.887-1.48-1.578-2.47-1.578-.788 0-1.581.394-1.581 1.28 0 2.079 4.941 2.669 4.941 5.731 0 2.176-1.976 3.164-3.953 3.164-1.086 0-2.469-.199-3.36-.793 0-.394-.097-.789-.097-1.086 0-.492.098-.886.2-1.382.491 1.285 1.577 2.273 3.062 2.273.988 0 1.875-.496 1.875-1.68m10.278 2.47c.195-.098.492-.493.492-.99v-3.952c-.593-.098-1.383-.098-2.273-.098-.985 0-1.778 0-2.371.098v3.953c0 .496.297.89.496.988h-3.16c.195-.097.492-.492.492-.988V25.46c0-.492-.297-.79-.492-.988h3.16c-.2.199-.496.496-.496.988v3.656c.594 0 1.386.098 2.37.098.891 0 1.68-.098 2.274-.098v-3.656c0-.492-.297-.79-.492-.988h3.16c-.297.199-.492.496-.492.988v8.793c0 .496.195.89.492.988ZM52.887 49.175c.101-.102.199-.2.199-.399 0 0-.098-.195-.098-.394 0 0-.89-2.371-.988-2.668h-3.953c-.098.297-1.086 2.668-1.086 2.668-.102.297-.2.394-.2.496 0 .195.2.195.298.297h-2.172q.467-.323.789-.793l3.457-9.188c.101 0 .101-.097.101-.097 0-.297-.199-.496-.398-.594h2.77l3.554 9.879c.2.394.496.594.79.789h-3.063Zm-2.864-8.696-1.582 4.149c.496.098.989.098 1.48.098.497 0 1.09 0 1.68-.098Zm6.422 8.696c.297-.102.594-.496.594-.989v-8.792c0-.497-.297-.793-.594-.891h3.36c-.297.098-.594.394-.594.89v8.794c0 .492.297.886.594.988Zm8.301-9.781h-.496v3.753h.496c1.184 0 2.074-.593 2.074-1.976 0-1.285-.89-1.777-2.074-1.777m5.73 9.878c-.496 0-.89 0-1.285-.097-.691-.297-1.78-1.88-2.175-2.57-.594-.989-1.383-2.47-2.766-2.47v4.051c0 .395.098.79.496.989h-3.262c.395-.2.493-.594.493-.989v-8.792c0-.297-.098-.793-.493-.891h3.953c1.68 0 3.754.594 3.754 2.668 0 1.68-1.582 2.566-2.668 2.566 2.274.102 3.657 5.239 5.93 5.239-.594.199-1.285.296-1.976.296m13.337-9.78-3.262 9.683c-.293 0-.59-.102-.692-.2-.293-.296-.789-1.581-.984-2.074l-1.484-3.754-2.172 6.028h-.989l-3.656-9.684a1.5 1.5 0 0 0-.793-.988h3.164c-.101.098-.199.195-.199.394 0 .098 0 .297.098.395l2.37 6.422 2.474-7.211 2.765 6.914 2.172-6.324c0-.098.102-.196.102-.297 0-.195-.102-.195-.2-.293h2.075c-.407.21-.668.543-.79.988m3.855.987-1.582 4.149c.492.098.988.098 1.48.098.496 0 1.09 0 1.582-.098Zm2.766 8.696c.199-.102.199-.2.199-.399 0 0 0-.195-.102-.394 0 0-.789-2.371-.988-2.668h-3.852c-.097.297-1.086 2.668-1.086 2.668-.101.297-.199.394-.199.496 0 .195.2.195.297.297h-2.176c.297-.2.594-.496.692-.793l3.558-9.188.098-.097c0-.297-.195-.496-.395-.594h2.766l3.559 9.879c.199.394.492.594.789.789h-3.16Zm9.683-9.586-2.472 4.445v4.153c0 .394.101.789.398.988h-3.066c.296-.2.398-.594.398-.989v-4.152l-2.176-3.555c-.199-.296-1.086-1.878-2.273-1.878.297-.098 1.285-.297 1.879-.297 1.086 0 1.582.101 2.172 1.086l2.074 3.261c.199-.297 1.781-3.16 1.781-3.16.195-.297.297-.594.297-.691 0-.102 0-.2-.2-.297h2.274c-.394.195-.789.691-1.086 1.086m5.926 7.113c0-1.976-4.742-2.469-4.742-5.73 0-1.977 1.879-2.668 3.558-2.668.79 0 1.875.101 2.567.394l.101 2.074c-.398-.886-1.484-1.578-2.472-1.578-.79 0-1.578.395-1.578 1.285 0 2.075 4.84 2.668 4.84 5.73 0 2.27-1.88 3.161-3.852 3.161-1.09 0-2.473-.2-3.36-.789 0-.395-.101-.691-.101-1.09 0-.492.101-.887.101-1.281.59 1.184 1.676 2.172 3.063 2.172 1.086 0 1.875-.492 1.875-1.68m28.95-29.64c-1.876 1.777-5.829 3.359-7.708 4.05-2.668.989-3.851 1.383-5.336 1.88-1.676.491-5.039 1.577-5.039 1.577 6.918 2.075 11.86 2.668 11.86 2.668s2.273-.691 5.925-2.668c1.977-.988 2.868-1.578 3.559-2.27.297-.198.988-.89 1.086-1.78 0-.098.101-.196.101-.395v-.2c-.101-.097-.101-.195-.101-.195s0-.199-.098-.394c0-.102-.199-.594-.594-.89-.296-.2-.691-.692-2.171-1.188-.497-.195-1.387-.395-1.387-.395Zm0 0"/><path fill="#c82e37" fill-rule="evenodd" d="M139.441 20.027s0-.199-.101-.297c0-.199-.098-.296-.195-.492a3.8 3.8 0 0 1-.497-.593c-.199-.102-.394-.297-.593-.497-.989-.593-2.172-.886-3.262-1.085-1.676-.2-3.652-.2-3.852-.2-.593 0-4.644 0-5.632.102-4.543.098-10.176.098-11.657.098-15.117 0-21.738-.297-29.05-1.778-6.223-1.187-9.68-2.37-9.68-2.37 5.531-.2 37.64-1.583 43.473-1.68 3.851-.098 6.52-.2 8.695 0 1.183 0 2.172.097 3.457.394 1.183.2 2.273.496 2.863.691 1.285.496 2.473 1.188 2.965 1.977 0 0 .2.098.395.394.199.395.496.793.593.891.793 1.285 1.188 1.977 1.285 2.273.2.297.297.59.395.887.2.2.2.395.2.496.097.297.097.594.198.692Zm0 0"/></svg>