<svg xmlns="http://www.w3.org/2000/svg" width="240" height="80" version="1.0" viewBox="0 0 180 67.92"><defs><clipPath id="a"><path d="M63 13h102.063v37H63Zm0 0"/></clipPath><clipPath id="b"><path d="M15.238 7.348H58V47H15.238Zm0 0"/></clipPath><clipPath id="c"><path d="M26 26h28v27.79H26Zm0 0"/></clipPath></defs><g clip-path="url(#a)"><path d="M74.035 19.89h-2.707s-1.566.387-1.02-1.347l.235-1.063c.234-1.253 2.164-.964 2.164-.964h2.133Zm-3.062-6.554s-3.11.191-3.739 4.437l-1.953 11.473h3.489l1.09-6.363h3.296l-1 6.363h3.485l3.074-15.91Zm89.402 6.555h-2.715s-1.562.386-.922-1.348l.133-1.063c.234-1.253 2.168-.964 2.168-.964h2.133Zm-2.965-6.555s-3.207.191-3.738 4.437l-1.961 11.473h3.39l1.106-6.363h3.383l-.992 6.363h3.488l2.976-15.91Zm-71.226 0h-4.07l-3.177 15.91h4.07Zm52.132 0h-4.457l-3.074 15.91h4.36Zm6.52 15.91h3.586l3.168-15.91h-3.582l-1.555 8.39-1.16-8.39h-3.68l-3.175 15.91h3.683l1.438-7.812Zm-18.242-15.91-1.168 5.594h-2.422l1.164-5.594h-4.07l-3.172 15.91h4.07l1.414-7.234h2.422l-1.422 7.234h4.078l3.168-15.91Zm-30.57 4.144-.45 1.735c-.449 1.734-1.695 1.355-1.695 1.355h-2.707l1.012-4.05h2.132c0-.004 1.942-.293 1.707.96m1.015-4.144h-7.656l-3.469 15.91h3.492l1.364-5.691.773.097 1.352 5.594h3.68l-1.259-5.594s2.723-.097 3.243-4.05l.449-1.829c1.129-4.246-1.969-4.437-1.969-4.437m14.293 9.64-.59 3.083h-2.808l1.789-9.543h2.906l-.692 3.277h3.782l.824-4.238c.336-1.254-.504-2.313-1.762-2.313h-6.113c-1.258 0-2.461 1.059-2.695 2.313l-2.336 11.375c-.235 1.254.593 2.316 1.855 2.316h6.012c1.258 0 2.558-1.062 2.793-2.316l.816-3.953Zm46.793 14.098c-.445 0-.816-.793-.594-1.191 1.328-1.278 2.66-2.309 4.434-2.946 1.11-.164 1.703 1.036 1.558 2.067-.449 4.379-.226 8.508-.593 12.809 0 .394-.215 1.43-.809 1.039-.738-.801-1.332-1.832-1.926-2.864.594 0 .961.793 1.555.793.219 0 .371-.238.371-.398 0-3.895-.152-7.64 0-11.54 0-.238-.371-.636-.738-.476-.965.871-1.707 1.508-2.516 2.547-.156.004-.594.16-.742.16m1.105 5.969c-.148.477-.07 1.113-.44 1.352-.372.164-.74-.16-.74-.399 0-.559.74-1.508 1.403-1.113Zm1.188-1.43c-.965-.64-1.703.875-2.516 1.43-.144 0-.367 0-.367-.16-.222-.633.223-1.031.367-1.434.371-.636.957-.636 1.551-1.031.371-.48.223-1.035.371-1.668 0 0-.07-.238-.148-.398-.446-.395-1.551-.641-1.551-.243-.367 2.067-1.187 4.141-.96 6.203 0 .239.144.637.37.793.594.239 1.18-.16 1.695 0 .446.239 1.188 0 1.403-.398.152-.64.152-1.195.152-1.832-.152-.387-.152-1.023-.367-1.262m-94.914-2.23.226.16a9 9 0 0 0-.593 1.273h-.594c-.594-.875-1.55-2.304-.738-2.867.738-.636.96.563 1.11 1.196.214.238.366.238.589.238m4.433-.871c-1.402.238-.816-1.594-.593-2.469.144-.8 1.703-1.04 2.074 0 .215 1.031-.523 2.309-1.48 2.469m1.481-4.14c-.738-.392-1.332.64-2.074.476-.594-.477 0-1.032 0-1.668 0-.637-.223-1.04-.594-1.43h-.586c0 1.191.371 2.469 0 3.66-.152 1.27-1.926 1.516-2.07 3.106.738-.16 1.332-.797 1.926-1.43.148 0 .37 0 .37.238.15 1.031.368 2.223-.37 2.625-.817.477-1.926.637-1.926 1.906.152 0 .367.16.367.16.594-.16 1.11-.398 1.55-1.035.153-.156.524.239.524.48-.148 2.47-.523 4.696 0 7.165.215.238.442.637.442.477.515-2.946-.957-5.809.367-8.278.594-1.27 2.074-2.07 3.027-3.101.813-1.043.004-2.711-.953-3.352m8.867 11.218c.375-.164.738 0 .961-.477 0 .239.149.239.371.239v.636c-.594.399-1.332.399-1.922 1.04-.59.398-.746-.481-.746-.88 0-.398.746-.398 1.336-.558m-.965-5.012c.153-.16.375-.637.739-.398.222 0 .222.238.222.398-.222.238-.222.238-.222.395 0 .238-.223.484-.371.484-.215-.246-.583-.484-.368-.879m3.63-1.433c0-1.833.734-3.5.956-5.333-.957-.874-2.144-.636-3.105 0-2.067 1.59-2.067 4.297-3.399 6.602-.218.16-.363 0-.363-.238-.227-1.04.07-1.992.363-3.11.153-.793-.218-1.43-.812-1.668-.153 3.977.45 7.872.222 11.77.227 0 .372 0 .372.238.812-2.468-.746-5.168.812-7.48h.746c.735.48 0 1.273.219 1.906 0 .16.152.16.371.16.152-.16.152-.16.375-.16.148 0 .371.16.148.398-.37.395-.515.633-.738 1.032-.148.238-.37 0-.37-.239-.224.239-.224.641-.372 1.04h.371c.738-.555.961-1.43 1.555-2.223h.37c.587.793-.222 1.668-.593 2.222.371 0 .371-.16.594-.398.363-.402.586.637.957.238 0-.238-.371-.64-.371-.879.148-.554 0-1.43.52-1.828-.15 0-.15-.238-.15-.402-.37 0-.956 0-1.179-.398 0-.875 0-1.516-.148-2.07-.446-1.036-.594.792-1.332 1.195-.446.238-.961 0-.809-.641.363-.793.809-1.59 1.18-2.461.738-1.04 1.472-1.832 2.66-2.23.371-.239.738 0 .96.398.22 1.434 0 2.703-.222 4.14-.148.399-.96 0-1.11.16 0 .239-.37.477-.222.876.371.402.817 0 .965-.239.223-.16.367 0 .367.239.223 2.863.223 5.965.223 8.832.219.636.957 1.031.957.476.36-3.32-.754-6.582-.969-9.925m9.753 1.433c.223.64.367 1.274.223 1.672-.371.633-.809 1.031-1.332 1.43-.219 0-.364 0-.364-.16.149 0 .07-.239.149-.477.371-.793.594-1.43.594-2.227-.235-.398.73-.636.73-.238m2.734-.16c0-.875-.222-1.508.149-2.309.59-.793-.148-1.668-.148-2.707 0-.558-.446-.797-.586-1.03-2.297-.4-3.106 2.702-4.067 4.37-.148.64-.37 1.04-.515 1.672-.227 1.191-.227 2.461-.813 3.5-.371-1.039-.152-2.309-.152-3.34.152-1.43.152-2.625.523-4.136-.156 0-.371-.793-.371-.165-.594 2.47-.371 4.696-.738 7.239 0 .562 0 1.433.594 2.07.519-1.668.964-3.582 1.324-5.414 0-.238.148-.395.37-.395.372 0 .74.157.74.395 0 .637 0 1.43-.153 2.07-.371.633-.586 1.032-.965 1.668-.215.399.152.64.152.793h.442c.515-.636.886-1.43 1.48-1.43.367-.238.367.637.223 1.036-.586 1.039-1.551 1.039-2.297 1.672-.215.156 0 .394.152.394.809 0 1.551-.238 2.29-.64 0-.16-.368-.637-.368-.794.223-.398.594-.398.961 0-.152-.874-.371-1.667-.152-2.46.152-.239.375-.637.375-1.04-.375 0-.817-.238-.817-.48 0-.793.442-1.586 0-2.465h-.515c-.446.637-.594 1.27-1.18 1.27-.152 0-.594-.239-.371-.637.734-1.191 1.105-2.707 2.289-3.5.371-.238.957 0 1.328.398.594 1.032.594 1.91.371 2.864-.148.476-.957.238-.734.875.219.156.37.64.594.793.148 2.468.585 4.77.585 7 0 .238.372.238.372.238.148-2.441-.817-4.91-.371-7.375m11.094-6.602c-.668 0-.594 1.196-.96 1.594-.594-1.031.593-1.594.593-2.625.145 0 .371 0 .371-.238.367.64 1.18.402 1.18.8.144.872 0 1.669-.442 2.548-.37 1.43-.96 2.859-1.695 4.292-.23.637-.371 1.668-1.117 1.668-.438-.238-.586-.875-.438-1.27.59-1.19 1.184-2.23 1.555-3.5a13 13 0 0 1-1.117 3.102c0 .239 0 .637.152.637 1.551-1.668 2.516-4.375 2.516-6.84-.012-.168-.383-.168-.598-.168m4.063 0c0 .239-.223.563-.446.793-.363.403-1.328.641-1.109 1.04.152 1.038 1.555 1.667 2.664 1.667.371 0 .594.641.371 1.036h-.37c-.372-.395-.747-.633-1.333-.633-.586-.239-.957-1.032-1.55-1.434-.372-.238-1.11.164-.966-.238 0-.637.965-.797 1.336-1.43.223-.398-.152-.637-.37-.793-.145-.636.37-1.039.37-1.668 0-.242.223-.402.442-.242.375.395.515 1.035.96 1.434Zm-7.098.793c0 .641-.219.801-.594 1.278-.215.16-.59.16-.808.16-.371-.16-.149-.637-.149-.797.149-1.031 1.11-2.07 2.075-1.27-.153.23-.524.391-.524.63m-.45 3.743c-.362.16-.734-.243-.734-.395.227-.477.372-.879.735-1.039.223 0 .45 0 .45.16 0 .395 0 1.031-.45 1.274m.595-2.704c.37-.8 1.187-1.43.96-2.308 0-.559-.96-.16-1.331-.16-.586.394-1.11.875-1.922 1.43-.594.402-1.555.64-1.188 1.671.227.399.965.16 1.188-.238.37.238.742.395.957.875v.398c-.215.403-.739.403-.586 1.036.37.398.586.796.37 1.191 0 1.273.216 2.309.216 3.5-.215 1.668-.371 3.102-.371 4.77a.88.88 0 0 0 .597.8c.367-3.023-.597-6.125.145-9.23.215-.48.96-.64 1.332-1.04.222-.238-.153-.636.222-.874-.363-.551-.734-1.188-.59-1.82m3.625 4.93c-.141 0-.371-.16-.141-.398.363-.239.363-1.032.957-1.032.145 0 .145.239.367.399-.367.39-.594 1.031-1.183 1.031m.222 4.535c-.593 0-.738-1.035 0-1.433h.367c.227 0 .149.238.227.398.145.633-.227 1.274-.594 1.035m3.25-1.593c-.37-.875-1.554-.477-1.925-.875-.965-.801 0-2.07.37-3.11 0-.16-.44 0-.515-.16-.441-.875-.957-1.43-1.543-.637 0 0 .363.16.363.399.227.636-.593 1.031-.957 1.43-.222.238 0 .878.215 1.03.371.243.52-.636.965-.792.144 0 .363 0 .363.156.145.879.375 1.676-.363 2.309-.445.238-.82.398-1.41.398-.371.238-.149.637-.149.879.586 1.035 1.551 1.43 1.922 2.465h.367c0-1.032.223-2.067 0-3.344 0-.398.371-.797.961-.637.59.477.371 1.27.957 1.668h.371c.602-.379.008-.781.008-1.18m13.457-7.079c-.148-.078-.148-.16-.297-.16-.222 0-.515-.238-.668-.238-.218-1.2.739-2.23 1.7-1.434.37.641.593 1.434-.223 2.07-.144 0-.36 0-.512-.238m-3.773 2.704c-.223.554.371.792-.149.953-.59.238-.375-.317-.738-.555.586-.64.371-1.594.957-2.07.23 0 .594.476.23.87-.23.169-.3.645-.3.802m-.664 1.433c-.223.395 0 1.434-.738 1.035-.293-.316-.372-1.11.148-1.672.223-.004.668.477.59.637m7.023 4.055c-.074-.16-.144-.715-.144-.953 0-.16-.371-.16-.371-.16-.153.792.293 2.863-.739 2.07-1.257-.957-.664-3.34-.293-5.012 0-.16-.523-.16-.664-.16-.222.16-.96.555-.746.16 0-1.035.887-1.668 1.48-2.469v-.636c0-.16-.144-.16-.37-.16-1.11 1.03-2.075 1.59-3.477 2.468 0 0 0 .399-.14.399h-.376c-.218-.239-.218-.399-.218-.637.37-.793.734-1.434.593-2.227-.222-.398-.375-1.27-.964-.875-.594.875-.368 2.309-1.332 2.946-.223 0-.223-.239-.223-.239.293-1.03 0-.953.371-1.746 0-.238.144-.398.074-.879l-.074-.312c-.07-.402.074-.324.074-.48.219-.239.078-.313.293-.477.586-.399.957-1.031 1.55-1.43-.147 0-.147-.238-.147-.476-.446 0-.594-.399-.817-.399-.734.399-1.328 1.43-1.55 2.469-.15 2.305 0 4.375-.372 6.598-.152.64-1.332.64-1.918 1.03-.152 0 0 .88.586.88l.594-.64c.223 0 .586 0 .586.237 0 1.196-.957 2.23-.809 3.504 0 0 .594-.086.594-.324.145-1.43.445-2.863.816-4.293.223-.238.149-.398.372-.555.148 0 .148.16.37.399.15.394-.956.719-.148.957.149.074.293-.555.516-.719.226 0 .37 0 .37.156.224 1.278-.589 2.07-.37 3.344.226.395.37.793.37 1.196h.372l-.145-.16c0-.243.372-.395.372-.395-.813-1.672-.227-3.348-.227-4.938 0-.636.742-1.03 1.188-1.27.515 0 1.101-.64 1.699-.8.222 0 0 .316 0 .563-.371 1.03-.52 2.066-.957 3.097-.371 1.278-.672 2.395-.524 3.664 0 0 .446 0 .446-.238-.149-1.434.593-2.625.816-3.902.148-.399.441-1.192.809-1.352.218 0 .37 0 .37.16 0 1.43-.152 2.469 0 3.977.223.562.813.8 1.329.953.222 0 .152.164.445.086.371.078.371-.086.52-.086.804-.402.582-1.36.14-1.914m4.285-4.453c-.152 0-.37 0-.37-.239-.376-1.59.59-2.625 1.699-3.5 0 .875-.149 1.668-.735 2.07.149.239.363.4.363.4 1.926-1.595 3.47-3.661 5.766-3.661 1.332-.238 3.625 1.668 2.516 2.86-.442.402-1.551.242-2.368.242.223-.641.961-.88 1.403-1.278v-.398c-.809-.793-1.774-1.031-2.73-.633-1.118.633-2.29 1.668-3.407 2.309-.808.398-.808 1.59-1.543 2.066-.222 0-.367-.238-.594-.238m4.582-5.57c-.664-.239-1.109-1.43-.37-1.669.37-.16.593.399.964.875.223.403 0 1.032-.594.793m.223 4.535c0 .636-.371 1.273-.742 1.035-.809 0-1.18.793-1.926.636.152 0 .152-.238.152-.398h.372c.441-.637.812-1.035 1.18-1.668 0-.238 0-.398-.223-.398.222 0 .222-.243.222-.403.594.16.965.403.965 1.196m1.18.238c-.371-.317-.586-1.031-.219-1.031.371-.243.59.398.957.793-.223 0-.223.238-.223.398-.144 0-.363 0-.515-.16m-.438 2.867c-.144.637 0 1.27-.37 1.828-.372.48-1.11.64-.966 1.04 0 .636.817-.161 1.332-.161.223 0 .442.16.442.398.152.637 0 1.192-.586 1.43-.965 0-2.145.242-3.11 0 .22-.398-.593-1.035 0-1.191.594 0 1.18-.477 1.18-1.032.149 0 .371 0 .371-.238.223-.636.739-1.277.223-1.668-.223 0-.594-.164-.809-.164.586-.476 1.18-.637 1.778-1.035.367-.008.734.156.515.793m8.871-1.434a2.4 2.4 0 0 0-.593.641c0-.64.37-.879.738-1.277.594-1.27.812-2.864 1.773-3.899.149-.238.743-.238 1.114 0 .59.399.59 1.035.37 1.668-.148.16-.37.395-.741.395-.594.398-.743 1.191-1.329 1.832-.375.242-.964.242-1.332.64m2.512 4.61c.742 0 1.328-.875 1.844-1.508v-.398c.222 0 .445-.477.816-.239.52.399.52 1.04.957 1.43.153.64 0 1.434-.808 1.434-.52-.157-.149-1.04-.743-1.196-.222 0-.292.164-.44.164-.962.637-1.56 2.067-2.735 1.668 0 0-.293-.793-.07-1.039.14-.398.363-.637.363-1.035.593-.793.965-1.672 1.558-2.227.586-.875.586-2.542 1.696-2.542.222 0 .37.32.37.558-.449.395-.964 0-1.179.637-.223.402.586.238.367.64-.746 1.27-1.703 2.067-2.297 3.34-.215.399.078.313.301.313m3.402-7.317c-.222 0-.363 0-.363-.16 0-.636 0-1.273.363-1.906.223.398.739.398.961.875.227.555-.222 1.191-.59 1.434-.003 0-.148-.243-.37-.243m0 0"/></g><g clip-path="url(#b)"><path fill="#ed1c24" d="M16.684 24.164c1.125-.07 2.043.723 2.246 1.758v13.77c-.024 3.898 3.136 7.046 7.066 7.042 3.848 0 7-3.144 7.067-7.043V29.77c-.07-7.567 6.078-13.696 13.652-13.77 5.351-.035 9.726-3.672 10.918-8.645-2.75 2.082-6.242 3.399-9.961 3.364-.734.035-.656.078-1.285 0h.16c-10.637 0-19.059 8.46-19.113 19.05v9.286-.164a1 1 0 0 0 0 .164c-.004.941-.832 1.77-1.922 1.758-.953.011-1.785-.817-1.77-1.758-.015-.086-.015-.086 0-.164V26.086c-.015-1.297-1.012-2.285-2.246-2.242.11-.735.727-1.285 1.445-1.285.27 0 .493.054.641.164.313.07.66.125.965.16 2.012-.035 3.594-1.61 3.535-3.524.059-.078.059-.12 0-.16-.75 1.02-2.031 1.692-3.531 1.758-.184-.133-.551-.133-.801-.16-1.66.027-2.992 1.36-3.05 3.039h-5.462v.324h1.606Zm0 0"/></g><path fill="#ed1c24" d="M46.715 22.406a7.306 7.306 0 0 0-7.383 7.364v-.16 11.523c-.031 5.683-4.578 10.25-10.277 10.246-3.957 0-7.422-2.29-9.153-5.606 1.559 1.48 3.7 2.438 6.102 2.403 4.668.043 8.484-3.77 8.508-8.485v-9.93c-.016-6.734 5.46-12.19 12.203-12.163h-.324c3.625-.028 6.902-1.5 9.312-3.844-.375 4.8-4.41 8.61-9.312 8.644Zm0 0"/><g clip-path="url(#c)"><path fill="#ed1c24" d="M44.945 33.125a1.8 1.8 0 0 1 1.77-1.918c1.023.023 1.84.84 1.765 1.918.079.152.04.363 0 .484a.89.89 0 0 1-.957.645c-.425.047-.82-.348-.804-.8-.016-.153.008-.267 0-.321v-.16c-.106.422-.184.804-.16 1.12-.024 1.84 1.414 3.274 3.21 3.2 1.254.074 2.364-.684 2.891-1.758.48-.883.7-1.879.64-2.879.067-3.406-2.745-6.207-6.26-6.242-3.423.035-6.235 2.836-6.263 6.242v8.485c0 6.468-5.226 11.68-11.722 11.687-.871 0-1.735-.11-2.575-.324h-.16c1.637.77 3.543 1.23 5.621 1.285 7.11-.055 12.922-5.844 12.848-12.973v-7.843Zm0 0"/></g></svg>