<svg xmlns="http://www.w3.org/2000/svg" width="240" height="80" version="1.0" viewBox="0 0 180 67.92"><defs><clipPath id="a"><path d="M21.195 1.941h137.84V59.93H21.195Zm0 0"/></clipPath></defs><g clip-path="url(#a)"><path fill="#fff" fill-rule="evenodd" d="M21.195-38.59h137.84V99.246H21.195Zm0 0"/></g><path fill="#fff" fill-rule="evenodd" d="M75.496 11.254c-.16-.473-.367-1.172-.379-1.676-.015-.46.13-.59.23-.683.165-.153.317-.207.208-.684-.121-.516-.254-.68-.297-.98-.043-.301-.14-.77.265-1.11.41-.344.82.137.97.402.148.27.234.723.28.993.075.414.375.668.786.77.351.085.609.21.73.89.11.648.297.668.402.902.079.188.309.715.528 1.176Zm3.738.004h28.246v17.957H72.965V11.258Zm0 0"/><path fill="#006a6d" fill-rule="evenodd" d="m76.277 7.762.121.066c.016-.008-.07.016-.058.004.035.027.05.074.074.11.027.046.035.093.063.144.007.066.07.117.07.187.058.106.098.243.117.364.031.05.027.117.055.18.031.097.043.206.11.296.015.09.058.172.1.25.079.309.204.606.301.91.028.028.028.07.047.11.125.195.137.441.258.644.094.211.168.446.266.657v.004c.023-.004.004.035.031.042-.012.028.016.043.023.063.028.066.067.152.09.223-.004.046.04.082.055.125.133.277.25.57.387.847.172.38.34.766.562 1.114.176.34.352.683.551 1.011.086.192.184.383.328.54.008.05.043.085.07.128l.063.125c-.023.047.05.086 0 .125 0 .016.008.035.02.047a.3.3 0 0 1-.036.074c-.011-.011-.023.02-.035.02.004.031-.008.031-.039.047-.016 0-.02.015-.039.015-.05-.05-.039-.004-.086-.054-.02.008-.074-.047-.094-.055-.074-.023-.086-.094-.136-.11-.145-.132-.196-.335-.317-.484-.094-.152-.187-.297-.273-.453-.082-.168-.207-.316-.27-.496-.113-.203-.246-.414-.324-.625-.05-.05-.062-.133-.11-.191a2.2 2.2 0 0 0-.19-.414c-.024-.141-.114-.247-.165-.372-.113-.12-.101-.312-.203-.44-.062-.087-.082-.212-.125-.31-.14-.187-.164-.445-.289-.644-.074-.18-.145-.348-.195-.535-.067-.106-.051-.227-.102-.332-.004-.063-.039-.125-.058-.18-.047-.09-.043-.18-.102-.262-.031-.152-.086-.273-.133-.425-.05-.188-.133-.348-.164-.543-.074-.211-.113-.422-.203-.621-.023-.114-.086-.239-.113-.348-.02-.024.03-.149.007-.168-.007-.078-.054-.106.016-.164.008-.024-.004-.04.02-.055 0-.043-.016-.238.054-.191m.465 5.152c-.012-.039-.023-.078-.043-.117-.011-.008-.008-.027-.02-.043-.019-.09-.074-.16-.093-.254l-.137-.453c-.015 0-.004-.027-.02-.024q-.08-.255-.16-.523c-.035-.137-.093-.285-.136-.426-.016-.156-.094-.32-.133-.476a2.4 2.4 0 0 1-.098-.364c-.066-.27-.12-.476-.144-.75.027-.03.008-.113.047-.129.074-.027.015-.16.082-.152.164.074.12.39.234.512.055.152.082.32.16.465 0 .039.074.03.082.066.082.219.102.488.157.711.062.145.097.297.14.45.05.163.13.312.203.468-.004.012-.004.035.012.047.023.086.023.187.086.262.023.066.05.12.078.18a.2.2 0 0 0 .04.085l.003.031h-.004c.047.079.047.157.106.227-.012.016 0 .031 0 .047.02.004.02.035.023.059.012.015.012.05.04.066.054.113.054.25.124.355.024.07.059.13.078.204.07.12.121.25.18.382.05.11.101.223.129.336.008.024.027.043.031.07.059.106.098.223.145.333.02.015.015.05.027.074.059.09.098.176.14.265.028.012.02.051.036.067.043.043.043.117.086.164.043.098.097.184.14.281.063.133.133.274.211.399.028.082.078.136.11.21.074.11.117.235.183.344.133.223.301.43.371.684.032.027.035.07.059.101.098.192.219.38.336.559.031.148.168.238.219.383.03.05.07.094.105.14.082.16.203.297.309.446.07.07.113.168.175.246.016.015.012.043.012.066-.023.04-.058.082-.11.078l-.011-.007c-.059.027-.133.003-.191.007-.012-.011-.028-.003-.036.004-.085-.015-.109-.11-.175-.16-.094-.09-.223-.168-.262-.3-.059-.106-.086-.22-.168-.313-.082-.125-.152-.254-.242-.375-.024-.078-.106-.11-.117-.195-.024-.032-.036-.067-.067-.09-.027-.051-.039-.106-.074-.149 0-.043-.043-.062-.062-.101-.008-.082-.083-.14-.114-.215-.054-.074-.07-.16-.129-.23-.02-.04-.03-.087-.066-.11-.043-.086-.086-.176-.145-.242.004-.024-.027-.02-.027-.04-.055-.077-.07-.187-.137-.253-.035-.063-.043-.125-.09-.176-.015-.11-.101-.168-.125-.27-.07-.124-.156-.238-.214-.37q-.053-.072-.098-.149c-.008-.129-.11-.207-.152-.32-.067-.164-.13-.34-.239-.48-.043-.106-.082-.22-.14-.317-.032-.074-.04-.164-.102-.223-.066-.203-.191-.394-.254-.605-.023-.032-.031-.075-.062-.106-.031-.133-.067-.238-.102-.367m1.106-3.086c.023.031.082.04.097.09.063.023.067.102.102.148.05.184.101.364.223.52l.039.148c.02.02.023.055.043.082.05.094.054.2.132.286.008.035.051.05.051.09.024.035.024.081.067.109a2.3 2.3 0 0 0 .234.554c.062.09.07.207.144.29.036.062.079.12.106.19.027.02.023.067.043.09.082.173.21.317.277.5.043.044.07.102.067.16.047.075.078.157.136.224.04.097.121.168.149.27.027.023.05.042.043.077.031.059.078.09.113.14-.004.017.008.028.016.032.02.086.066.149.093.227.028.074.09.129.122.199.082.074.109.191.18.273.09.153.171.309.23.477a.85.85 0 0 1 .195.305c.05.062.098.136.164.195.04.144.145.242.2.383.116.136.163.316.3.433.043.067.086.13.125.203.027.036.047.098.086.137.086.09.172.188.242.293.055.082.11.164.149.258l.035.105c.004.059.011.13-.028.172-.02-.004-.035 0-.054-.008q.006-.005 0-.011c-.031.008-.031-.024-.051-.035-.027 0-.012-.043-.04-.043-.058-.07-.148-.082-.194-.16-.067-.028-.082-.094-.153-.122-.094-.132-.172-.277-.281-.39-.047-.082-.121-.149-.164-.235-.098-.168-.23-.32-.332-.484-.168-.18-.285-.39-.406-.598-.035-.027-.063-.058-.067-.101-.215-.297-.394-.621-.574-.934a10 10 0 0 1-.367-.629q-.013-.006-.008-.02a2.5 2.5 0 0 1-.234-.413c-.082-.133-.141-.27-.223-.399a11 11 0 0 0-.3-.597c-.016-.075-.071-.125-.09-.196a2 2 0 0 1-.27-.55.06.06 0 0 1-.028-.051c-.085-.114-.109-.278-.19-.407-.099-.195-.142-.375-.212-.539-.012-.129-.14-.23-.086-.37-.027-.036-.008-.087-.027-.118-.008-.05-.02-.101-.004-.14-.004-.036.027-.06.05-.079.04-.03.087-.02.13-.03m-.192-.789c-.031-.047-.039-.121-.101-.148-.012-.047-.075-.055-.094-.086-.047.008-.09 0-.133.027-.023.02-.055.047-.05.082-.016.04-.005.09.003.137.02.035 0 .086.028.12.062.071.105.052.164.122.027 0 .047.078.074.082.02.012.02.04.05.035 0 .004.005.008 0 .012.02.008.036 0 .055.008.04-.043.047-.121.043-.176Zm-1.761-1.797c.03.051-.028.14.03.184.009.05.087.308.145.32.043-.004.082-.187.125-.215.078-.05.02-.09.02-.11.02-.038.082-.128.078-.179-.016-.035-.063-.043-.09-.078-.05-.074-.09-.203-.14-.281-.032 0-.012-.04-.04-.043-.02-.016-.015-.043-.046-.043 0-.004-.004-.008 0-.008-.02-.012-.036-.008-.055-.016-.043.04-.055.114-.059.172Zm5.132 12.848c-.062.062.09.32.153.293.047.027.093-.008.132 0 .028-.035.067-.059.075-.11.004-.03.011-.07-.016-.093-.016-.04-.058-.067-.098-.098-.035-.016-.058-.062-.101-.07-.055-.004-.082.011-.145.078m1.29-1.985c.038.043.05.122.117.141.015.047.078.05.101.078.043-.012.09-.008.13-.039.022-.023.05-.05.042-.086.012-.043-.004-.09-.016-.137-.02-.03-.007-.085-.039-.117-.062-.066-.144-.078-.207-.144-.027.004-.015-.04-.043-.04-.023-.011-.027-.038-.058-.03 0-.004-.004-.008 0-.008-.02-.008-.035 0-.055-.008-.035.047-.035.125-.027.18Zm-1.512 1.344c.125.078.215.383.14.387a1.6 1.6 0 0 1-.34-.055c-.054-.015-.335-.347-.355-.422-.043-.14.18-.16.285-.148.074.004.121.144.27.238m0 0"/><path fill="#006a6d" fill-rule="evenodd" d="M76.938 14.54c.011.05.062.077.058.14.024.015.04.02.04.054q-.023.037.003.067c.027.008.004.035.016.05l.027.02c.016-.016.02.012.023.012-.02.074.04.125.07.152.016.02.013.09.083.235 1.61 3.378 3.683 7.785 8.234 9.644 0 .027-5.617 3.574-5.617 3.574h-6.152V11.965h2.367l-.047.098c.027.07.039.187.078.242l.043.172c.02.074.063.289.086.312.004.031.156.32.164.356.012.023.07.289.094.3.015-.008.035.098.039.11-.008.035.043.156.066.18.012.027-.004.09.028.078 0 0-.012.054.011.066.035.043.047.043.035.09 0 .039.047.09.06.12l.042.138c.031.035.035.097.078.148Zm0 0"/><path fill="#006a6d" fill-rule="evenodd" d="M83.566 15.95c-.03.015-.062.077-.066.109-.008.027.02.117.063.207.042.093.074.195.148.265.016.063.074.102.09.168.066.098.12.203.187.305.04.031.051.09.086.125.094.105.168.223.258.328a.22.22 0 0 0 .086.102c.004.086.098.132.137.203.023.05.097.074.093.133.059.054.07.132.141.171l.008.028c.043.066.105.12.156.183.024 0 .04.028.043.051.133.149.281.29.406.445.024.012.032.07.07.063a.9.9 0 0 0 .223.215v.008c.059.046.102.101.16.144.016.035.075.043.079.086.078.074.168.168.265.211-.008.066.106.035.07.105a.09.09 0 0 1 .067.043c-.027.051-.082-.007-.117.024-.055.015-.082-.047-.137-.035a.3.3 0 0 1-.137-.047c-.168-.047-.273-.13-.425-.227-.043-.058-.114-.086-.157-.144q.008-.008.004-.016c-.047.012-.062-.05-.094-.058-.027-.012 0-.047-.039-.04-.082-.09-.168-.187-.254-.27.004-.015-.007-.019-.02-.015-.015-.02-.022-.047-.054-.054v-.024c-.035.008-.043-.027-.062-.05-.028-.028-.074-.06-.09-.098-.027.004-.02-.04-.047-.035-.02-.016-.016-.055-.05-.063-.009-.02-.028-.016-.036-.027 0-.04-.035-.04-.047-.07-.203-.247-.433-.489-.62-.75-.122-.165-.255-.313-.356-.489-.055-.07-.118-.14-.168-.21 0-.048-.043-.055-.051-.098-.078-.102-.152-.22-.238-.317-.09-.156-.246-.285-.34-.437-.106-.133-.13-.309-.285-.403-.024-.011-.102-.027-.125-.039-.028.008 0 .074-.016.098-.027.125.035.207.086.328.047.047.05.145.086.203.082.125.16.262.254.371-.004.024.027.035.023.055.09.144.211.262.29.41.093.113.163.242.261.356.07.113.172.21.238.324.102.137.508.558.578.71.02.048.11.106.13.15-.044 0-.028.015-.055-.005-.016.004-.079-.039-.082-.031-.016 0-.114-.047-.153-.059-.054.036-.191-.132-.238-.125-.098 0-.152-.082-.223-.132-.011-.04-.054-.051-.082-.079-.175-.226-.457-.527-.644-.746-.051-.105-.16-.168-.2-.28-.023-.04-.05-.056-.082-.087-.015-.043-.07-.066-.082-.117-.078-.07-.105-.172-.175-.25-.035-.004-.024-.047-.043-.066-.09-.13-.188-.243-.285-.368-.114-.191-.262-.351-.364-.546-.066-.082-.125-.168-.187-.25-.106-.13-.18-.286-.281-.415-.02-.062-.075-.097-.106-.148-.098-.145-.172-.309-.277-.45-.012-.05-.055-.089-.078-.136-.075-.144-.176-.281-.246-.426-.192-.324-.356-.644-.543-.968-.012-.028-.051-.043-.04-.079-.054-.085-.117-.168-.156-.257l-.11-.192c-.089-.164-.148-.48-.148-.48h27.262v16.527H82.141s5.113-1.672 9.906-4.031c4.898-2.41 2.82-2.527 1.668-2.5-2.883.07-6.149-1.508-7.988-3.567 0 0-.004-.011-.079-.066-.03-.027-.043-.039-.082-.066a4 4 0 0 0-.191-.141c-.133-.148-.242-.238-.367-.387-.094-.066-.106-.207-.219-.254-.059-.066-.082-.152-.16-.203 0-.09-.078-.05-.113-.133-.106-.152-.133-.222-.145-.238-.043-.105-.125-.086-.156-.191-.031-.074-.145-.157-.176-.23-.09-.075-.223-.27-.227-.274a.27.27 0 0 0-.113-.195c-.05-.02-.097-.11-.133-.07m0 0"/><path fill="#fff" fill-rule="evenodd" d="M83.055 15.48c.03.036.058.207.11.223.015.04.089.055.105.082.035-.012.074-.008.105-.035.016-.016.04-.04.031-.066.012-.032 0-.07-.011-.11-.016-.027-.09-.187-.114-.21-.054-.055-.144-.083-.191-.134-.024 0-.016-.03-.035-.03-.02-.009-.02-.032-.047-.028 0 0-.004-.004 0-.004-.016-.008-.028-.004-.043-.004-.031.035-.031.098-.024.14Zm0 0"/><path fill="#cf4044" fill-rule="evenodd" d="M73.723 26.91h8.699l-2.52 1.594h-6.18Zm8.433 1.594c2.215-.867 3.563-1.305 4.34-1.594h20.215v1.594Zm0 0"/><path fill="#006a6d" fill-rule="evenodd" d="M47.313 47.871c.535 1.117-.305 1.285-.305 1.285l-.07.07h4.136l-.066-.07s-.766-.008-1.383-1.285l-4.414-9.187-4.387 9.187c-.656 1.258-1.383 1.285-1.383 1.285l-.066.07h3.004l-.07-.07s-.84-.168-.305-1.285l.785-1.621 3.762-.004ZM67.8 44.398v3.48c0 1.185-.672 1.282-.672 1.282l-.067.07h3.59l-.07-.07s-.668-.097-.668-1.281-.008-6.172-.008-7.356c0-1.183.672-1.27.672-1.27l.067-.066h-3.59l.07.067s.672.086.672 1.27.004 2.886.004 2.886h-4.938v-2.887c0-1.183.668-1.265.668-1.265l.07-.07h-3.59l.071.07s.668.082.668 1.265v7.356c0 1.184-.668 1.281-.668 1.281l-.07.07h3.59l-.07-.07s-.669-.097-.669-1.281v-3.484H67.8Zm16.922.356c-.903-1.367-2.582-3.715-2.914-4.215-.782-1.184-1.38-1.281-1.38-1.281l-.07-.07h4.137l-.066.07s-.89.242-.223 1.281c.324.504 1.3 1.93 2.203 3.297.903-1.367 1.89-2.785 2.215-3.29.672-1.038-.219-1.292-.219-1.292l-.066-.066h3.148l-.066.066s-.895.11-1.672 1.293c-.332.5-2.016 2.836-2.918 4.207l.004 3.125c0 1.18.668 1.281.668 1.281l.07.067h-3.59l.067-.067s.672-.101.672-1.281ZM38.746 39.62v-2.453s-1.684-.711-4.207-.711c-4.559 0-7.262 3.055-7.262 6.531 0 3.543 2.946 6.465 7.239 6.465 1.84 0 4.007-.844 4.007-.844l.91-3.488-.09.05s-1.35 2.907-4.714 2.907c-2.703 0-4.629-2.035-4.629-5.27 0-3.23 1.992-5.308 4.848-5.308 2.925 0 3.824 2.066 3.824 2.066Zm4.453 5.777 1.551-3.257 1.418 3.257Zm12.11-5.242h1.644c1.184 0 1.754.867 1.754.867l.07.051.004-1.996s-.168.11-1.351.11h-6.364c-1.183 0-1.351-.11-1.351-.11l-.004 1.996.07-.05s.54-.868 1.723-.868h1.684v7.723c0 1.184-.672 1.281-.672 1.281l-.067.07h3.59l-.07-.07s-.668-.097-.668-1.281Zm97.261 1.742v-2.175s-1.422-.696-3.437-.696c-3.645 0-5.934 2.246-5.934 5.266 0 2.422 1.89 5.102 5.785 5.102 1.47 0 3.184-.586 3.184-.586l.785-2.692-.086.059s-1.273 2.097-3.652 2.097c-2.16 0-3.649-1.414-3.649-3.996s1.446-4.27 3.727-4.27c2.367 0 3.219 1.84 3.219 1.84ZM95.004 36.75h4.05c1.036 0 1.825-.012 2.532.168 2.418.613 3.125 2.246 3.125 3.707 0 1.977-1.617 4.004-4.309 4.004-1.75 0-2.515-.57-2.515-.57v3.804c0 1.2.675 1.297.675 1.297l.07.07H95l.07-.07s.68-.101.68-1.297v-9.746c0-1.195-.68-1.297-.68-1.297Zm32.629 3.79c0-1.185.672-1.286.672-1.286l.066-.066h-3.59l.07.066s.669.101.669 1.285v7.352c0 1.18-.668 1.28-.668 1.28l-.07.071h3.59l-.067-.07s-.672-.102-.672-1.281Zm5.453 7.347v-3.555h2.117c1.18 0 1.281.52 1.281.52l.07.07v-2.16l-.07.07s-.101.52-1.28.52l-2.118-.004v-3.211h2.543c1.184 0 1.676.68 1.676.68l.07.05v-1.793s-.168.114-1.352.114h-5.789l.067.07s.672.097.672 1.281v7.352c0 1.183-.672 1.28-.672 1.28l-.067.071h3.59l-.07-.07s-.672-.098-.672-1.281Zm-9.988-5.989v-2.175s-1.418-.696-3.438-.696c-3.644 0-5.93 2.246-5.93 5.266 0 2.422 1.887 5.102 5.782 5.102 1.472 0 3.183-.586 3.183-.586l.785-2.692-.085.059s-1.274 2.097-3.653 2.097c-2.16 0-3.648-1.414-3.648-3.996s1.445-4.27 3.73-4.27c2.364 0 3.219 1.84 3.219 1.84ZM97.883 37.77v5.363s.902.476 1.754.476c2.011 0 2.843-1.68 2.843-2.953 0-1.496-.644-2.386-1.835-2.742-.465-.152-1.227-.148-2.055-.148Zm43.562 2.77c0-1.185.672-1.286.672-1.286l.067-.066h-3.586l.066.066s.672.101.672 1.285v7.352c0 1.18-.672 1.28-.672 1.28l-.066.071h3.586l-.067-.07s-.672-.102-.672-1.281Zm-62.504 7.33c.532 1.117-.308 1.285-.308 1.285l-.067.07h4.137l-.07-.07s-.762-.008-1.38-1.285l-4.417-9.187-4.387 9.187c-.656 1.258-1.379 1.285-1.379 1.285l-.07.07h3.004l-.07-.07s-.836-.168-.305-1.285l.785-1.621 3.762-.004Zm-4.113-2.473 1.55-3.257 1.415 3.257Zm35.64 2.473c.536 1.117-.304 1.285-.304 1.285l-.07.07h4.136l-.07-.07s-.762-.008-1.379-1.285l-4.414-9.187-4.39 9.187c-.657 1.258-1.38 1.285-1.38 1.285l-.07.07h3.004l-.066-.07s-.84-.168-.309-1.285l.79-1.621 3.761-.004Zm-4.109-2.473 1.551-3.257 1.414 3.257Zm0 0"/></svg>