<svg xmlns="http://www.w3.org/2000/svg" width="240" height="80" version="1.0" viewBox="0 0 180 67.92"><path fill="#0093d0" d="M54.008 13.621H40.69L7.481 46.582h33.21Zm0 0"/><path fill="#fff" d="M38.438 26.309a1.52 1.52 0 0 1-.856-1.364c0-.824.676-1.52 1.531-1.52.828 0 1.528.669 1.528 1.52 0 .59-.364 1.13-.88 1.364v.437c.466.05 1.036.23 1.4.41.151-.027.359-.027.57-.027 1.914 0 3.261 1.262 3.261 2.988 0 1.078-.957 2.055-2.047 2.055-1.086 0-2.07-1.055-1.863-2.133 0 0-.105.36-.105.824v5.453c-.051.618-.88 4.04-4.766 4.04s-4.715-3.422-4.766-4.04v-5.453c0-.437-.133-.824-.133-.824.211 1.027-.8 2.133-1.863 2.133-1.09 0-2.047-.977-2.047-2.055 0-1.726 1.348-2.988 3.266-2.988.207 0 .414 0 .57.027.336-.18.93-.386 1.399-.41v-.437a1.516 1.516 0 0 1 .672-2.883 1.512 1.512 0 0 1 .648 2.883v.566c.129.05.258.074.387.152.234-.515.699-.898 1.246-1.082v-.46a1.51 1.51 0 0 1-.883-1.364c0-.824.676-1.52 1.531-1.52.828 0 1.528.669 1.528 1.52 0 .59-.364 1.133-.856 1.363v.461c.543.184 1.012.567 1.242 1.082l.391-.152Zm0 0"/><path fill="#ed1b2f" d="M44.344 30.14c0-1.413-.957-2.546-2.953-2.546-1.32 0-2.875 1.105-2.875 3.91v4.168c.57-.383 1.375-.719 1.789-.719v-3.887c0-1.492 1.086-1.93 1.578-1.93-.285.259-.465.567-.465 1.005 0 .797.648 1.441 1.45 1.441.831 0 1.452-.594 1.476-1.441M27.945 30.14c0-1.413.961-2.546 2.953-2.546 1.325 0 2.903 1.105 2.903 3.91v4.168c-.57-.383-1.371-.719-1.785-.719v-3.887c0-1.492-1.09-1.93-1.582-1.93.285.259.464.567.464 1.005 0 .797-.671 1.441-1.449 1.441-.855 0-1.476-.594-1.504-1.441m0 0"/><path fill="#ed1b2f" d="M36.16 39.766c3.317 0 4.067-2.754 4.168-3.477v-.926c-1.035.258-1.941.797-2.562 1.621-.207-.949-.828-1.75-1.606-2.289a3.9 3.9 0 0 0-1.61 2.29c-.62-.825-1.527-1.364-2.562-1.622v.926c.078.723.828 3.477 4.172 3.477M36.39 25.176v1.156c.57.078 1.063.465 1.247.926a3.6 3.6 0 0 0-1.477 1.93 3.63 3.63 0 0 0-1.476-1.93c.207-.461.671-.848 1.242-.926v-1.156a1.08 1.08 0 0 1-.828-1.031c0-.59.492-1.055 1.062-1.055a1.05 1.05 0 0 1 1.063 1.055c0 .488-.364.925-.832 1.03m0 0"/><path fill="#ed1b2f" d="M33.465 26v1.207c1.45.285 2.488 1.8 2.488 3.219v3.91c-.676.387-1.348 1.184-1.555 1.824-.054-.05-.105-.125-.183-.18v-5.042c0-1.516-.828-3.063-2.278-3.551 0 0 .465-.203 1.063-.203v-1.211a1.05 1.05 0 0 1-.832-1.028 1.05 1.05 0 0 1 1.062-1.058c.598 0 1.063.465 1.063 1.058 0 .512-.363.926-.828 1.055M39.32 26v1.184c.594 0 1.063.203 1.063.203-1.477.515-2.281 2.058-2.281 3.55v5.043l-.18.18c-.207-.668-.883-1.465-1.555-1.824v-3.91c0-1.418 1.035-2.934 2.485-3.219v-1.234a1.05 1.05 0 0 1-.829-1.028 1.05 1.05 0 0 1 1.063-1.058c.598 0 1.062.465 1.062 1.058.028.512-.336.95-.828 1.055m0 0"/><path fill="#002052" d="M69.473 20.773h4.144v3.915h-4.144Zm-5.801 6.282v-.825h3.91v5.274H69.5V26.23h4.117v.747h1.918v-7.825h-6.062V16.04h-1.891v3.113h-5.777v7.903Zm3.91-2.367h-3.91v-3.915h3.91ZM116.707 16.086h1.969v2.68h6.469v1.675h-9l-.055 1.844h7.312c-.113 1.79-.226 3.856-.34 5.531-.113 1.508-.28 2.235-.785 2.68-.449.39-1.687.504-3.207.727-.113-.727-.449-1.34-.789-2.012 1.801-.11 2.758.059 2.871-.95.114-.948.223-2.456.223-4.3h-5.398c-.395 5.027-2.473 6.2-4.387 7.43-.45-.504-.844-1.004-1.461-1.453 4.16-1.844 4.105-4.747 4.16-9.497h-3.937v-1.675h6.414c-.059.054-.059-2.68-.059-2.68M151.637 21.828l.957-1.398c1.855.949 3.992 1.957 5.176 2.738 0 0-.73.895-1.239 1.508-1.351-1.004-3.71-2.18-4.894-2.848m3.996 2.961v1.617h-4.219v2.684h6.074v1.676h-14.062V29.09h5.906v-2.684h-4.05V24.79Zm-11.363.055c-.282-.45-.73-1.063-1.067-1.567 1.348-.5 3.766-1.73 5.004-2.96 0 0 1.18 1.23 1.238 1.285-.73.785-3.601 2.515-5.175 3.242m5.117-8.66h1.968v1.734h5.793v3.52h-1.855V19.48h-9.617v2.012h-1.856v-3.574h5.512c.055 0 .055-1.734.055-1.734M87.523 23.785h1.016v-1.398h-2.812V20.71h3.316v-1.34h-8.098v1.34h3.149v1.676H81.34v1.343h2.754v2.344h-3.43v1.453h8.606v-1.453H85.78V23.73h1.633l-1.125.668c.45.45.953 1.118 1.293 1.567l1.125-.727c-.394-.449-.957-1.117-1.184-1.453m-7.59 7.485v-1.286h9.954v1.23h1.8V16.747h-13.5v14.469c0 .055 1.747.055 1.747.055m10.012-2.68H79.934V18.309h9.953ZM103.117 22.188c-.562.835-.844 1.394-1.347 2.066h-1.52l.676-.336c-.281-.504-1.016-1.398-1.297-1.73Zm.227 0h2.586v6.59c0 .613-.282.84-1.07.84h-.731c.34.726.621 1.171.844 1.843 1.293-.168 1.8-.395 2.136-.617.395-.278.621-.5.621-1.508v-8.547h-5.457v-1.23h6.637v-1.563h-6.637v-1.844h-1.855v1.844h-6.75v1.563h6.75v1.23H95.02v10.613h1.742v-9.16h2.758l-1.297.559c.34.445.734 1.062 1.015 1.508h-1.633v1.34h2.868v1.175h-3.317v1.45h3.317v2.738h1.687v-2.739h3.375v-1.449h-3.375v-1.176h3.04v-1.34h-1.743c.281-.335 1.012-1.171 1.18-1.394ZM130.945 20.207l-1.351.223c.226.894.34 1.62.449 2.18l1.297-.278c-.059-.504-.281-1.621-.395-2.125m.844 2.852h-2.531v-3.297h2.531Zm1.234 7.37c.563.282 1.07.618 1.52.895 1.125-1.226 2.027-2.96 1.969-7.765v-.446h1.406l-.113 6.258c0 1.117.172 1.508 1.238 1.563h1.406c.508 0 .844-.727 1.293-2.29-.449-.222-1.066-.558-1.406-.894-.113.672-.223 1.34-.395 1.508-.109.113-.222.055-.28.055-.11 0-.169-.11-.11-.333 0-1.675.168-7.32.168-7.32h-4.781v3.352c0 2.515-.676 4.468-1.915 5.418m-2.136-5.418-1.407.168c.172.84.34 2.066.454 2.683l1.406-.336c-.059-.672-.34-2.011-.453-2.515m-4.328-1.953v1.562h1.18v.445c-.055 2.18-.45 3.914-1.239 5.086.395.336.957.836 1.406 1.285.957-1.398 1.352-2.96 1.352-6.816h2.531v4.192c0 .5-.281.5-1.746.5.34.558.453 1.062.562 1.734 2.083-.227 2.7-.672 2.7-1.453V18.422h-2.137c.113-.504.34-1.453.453-1.844-.34-.113-1.52-.281-1.687-.336a25 25 0 0 1-.34 2.18h-1.856v4.637Zm11.754-4.36v-2.57h-1.856v2.57h-2.7v1.567h7.536v-1.567ZM157.137 43.035v-8.824h-.79v6.254l-5.679-6.254h-.34v8.824h.844v-6.144l5.683 6.144Zm-7.54 0-2.25-4.355c.958-.282 1.915-.617 1.915-2.235 0-1.675-1.465-2.234-2.645-2.234h-3.094v8.77h1.352v-4.247h1.18l2.195 4.246c-.059.055 1.348.055 1.348.055m-3.316-4.914h-1.465v-3.02h1.465c.844 0 1.516.672 1.516 1.512 0 .836-.672 1.508-1.516 1.508m-8.21.668h4.386v-.781h-4.387v-2.906h4.387v-.782h-5.684v8.715h5.684V42.2h-4.387Zm-3.77 4.246h1.293v-8.824H134.3v3.852h-4.219V34.21h-1.352v8.824h1.352v-4.187h4.219Zm-8.719-7.933h2.645v-.782h-6.696v.782h2.703v7.933h1.348Zm-4.613 4.863V34.21h-.785v5.863c0 1.285-1.125 2.18-2.137 2.18-1.184 0-2.363-.84-2.363-2.18v-5.863h-1.293v5.809c0 1.562 1.347 3.07 3.316 3.07 2.309-.055 3.262-1.84 3.262-3.125m-7.48-1.399c0-2.511-2.024-4.523-4.497-4.523a4.51 4.51 0 0 0-4.5 4.523 4.506 4.506 0 0 0 4.5 4.524c2.473 0 4.496-2.008 4.496-4.524m-1.402.055c0 2.07-1.406 3.746-3.094 3.746s-3.094-1.676-3.094-3.746c0-2.066 1.407-3.742 3.094-3.742 1.688 0 3.094 1.676 3.094 3.742m-8.496-3.184V34.38c-5.172-1.453-5.567 2.734-3.88 3.851.677.45 1.802 1.176 2.474 1.622 1.578 1.003-.223 3.687-3.262 1.675V42.7c4.84 1.676 6.3-2.289 4.105-3.965-.843-.613-1.46-1.062-2.25-1.507-1.574-.95-.785-3.184 2.813-1.79m-10.684 7.598h1.516l-2.7-8.883h-1.406l-2.699 8.883h1.07l.786-2.738h2.644Zm-1.015-3.52h-2.246l1.125-3.796Zm-5.118 3.52h.34v-8.77h-.789v6.258l-5.68-6.257h-.34v8.77h.844V36.89c-.054 0 5.625 6.144 5.625 6.144m-9.277 0h1.348v-8.824h-1.348Zm-2.703 0h1.297v-8.824h-1.297v3.797h-4.215V34.21h-1.297v8.824h1.297v-4.133h4.215Zm-9.336.113c1.184 0 2.137-.222 2.871-.39V41.75c-.789.39-1.406.617-2.25.617-4.95 0-4.558-7.43-.508-7.43 1.575 0 2.25.278 2.758.446v-.95c-.734-.167-1.578-.28-2.871-.28-6.297-.055-5.906 8.995 0 8.995"/></svg>