<svg xmlns="http://www.w3.org/2000/svg" width="240" height="80" version="1.0" viewBox="0 0 180 67.92"><defs><clipPath id="a"><path d="M55.027 40H67v13.938H55.027Zm0 0"/></clipPath><clipPath id="b"><path d="M66 42h17v11.938H66Zm0 0"/></clipPath><clipPath id="c"><path d="M82 43h6v10.938h-6Zm0 0"/></clipPath><clipPath id="d"><path d="M87 43h8v10.938h-8Zm0 0"/></clipPath><clipPath id="e"><path d="M102 40h7v13.938h-7Zm0 0"/></clipPath><clipPath id="f"><path d="M108 42h9v11.938h-9Zm0 0"/></clipPath><clipPath id="g"><path d="M117 42h7v11.938h-7Zm0 0"/></clipPath><clipPath id="h"><path d="M93 43h10v10.938H93Zm0 0"/></clipPath></defs><path fill="#e23546" d="M94.04 9.273c-.368.348-.868 1.258-.868 2.532v7.86c0 .651-.242 1.273-.629 1.628-.203.187-1.48 1.348-1.559 1.41h.739c.222-.215 2.543-2.265 2.785-2.547.316-.36 1.066-1.273 1.066-2.707l.008-7.554c0-1.133.523-1.762.797-2.067.277-.312 1.156-1.074 1.383-1.277l-.727-.008c-.21.195-2.742 2.488-2.996 2.73M88.293 37.895l2.844 2.492h1.902a6.95 6.95 0 0 0 4.871-2.008c1.168-1.172 1.602-2.746 1.602-4.219v-4.086c0-1.375-.86-2.176-1.098-2.414-.133-.129-.96-.914-.96-.914v3.137s.913.945 1.093 1.137c.844.902.836 2.539-1.836 5.152-.469.457-1.8 1.723-3.637 1.723z"/><path fill="#e23546" d="M99.86 23.406s.816.938 1.136 1.192c1.074.847 1.547-.121.856-1.235-.165-.265-.832-.71-1.993.043m-3.66-2.285c-.316.336-.617 1.156-.617 1.883v1.547h1.559c.609 0 1.16-.453 1.586-.848.011-.02 0-1.539 0-1.539s.402.465.757.836c.524-.48 1.875-1.898 2.856-1.898 1.992 0 1.539 2.503.726 3.308-.261.262-1.437 1.34-1.8 1.688-.938.898-2.547.468-2.547-1.852 0 0-1.727 1.645-1.989 1.863-.261.22-1.148 1.164-1.148 1.164v4.079c0 1.957-.594 2.66-1.176 3.203-.258.238-2.351 2.144-2.73 2.48h-.742s1.347-1.183 1.605-1.45c.293-.304.633-.925.633-1.956 0-.262-.031-6.41-.031-6.41h-9.98c-3.47 0-4.212-3.864-4.235-4.899-.004-.304 0-3.39 0-3.87 0-.637-.403-1.708-1.051-2.04h.977c.113.047.73.297.73 2.668 0 0-.043 2.758-.043 2.906 0 1.2.953 2.578 2.328 2.578l11.293-.011c.012-.305.317-1.461.86-2.07.304-.348 2.73-2.57 3.003-2.786l.72-.008c-.106.102-1.282 1.157-1.544 1.434m0 0"/><path fill="#e23546" d="M87.797 30.746c0 .547-1.738 2-1.84 2.102-.125-.59-.566-1.239-1.863-2.543L86 28.39c1.273 1.28 1.797 1.554 1.797 2.355M84.46 19.488c-.519.547-.608.688-1.1.98h5.964c1.617 0 1.297-1.007 1.004-1.515-.59-1.043-2.469-2.976-2.469-2.976s-3.285 3.398-3.398 3.511m6.64-10.68c.387.387 1.208 1.426.715 1.922-.437.438-1.113 1.137-1.113 1.137-.031-.254-.664-.855-.664-.855s.004 1.847 0 2.078c-.023.832-.336 1.07-.336 1.07s1.535 1.527 1.535 3.496c0 .953.004 1.828.004 2.016 0 .406-.101.715-.383 1.027a76 76 0 0 1-1.777 1.785c-.41.371-.844.434-1.172.434h-5.293c-.832 0-1.691-.652-1.691-1.309l.011-1.968c.27.316.547.683 1.211.675.524-.011 1.07-.418 1.22-.566.148-.152 4.003-4.195 4.003-4.195s-1.805-1.68-2.996-2.48c-.582-.387-1.348.105-1.465.616-.367 1.61 0 4.024 0 4.024s-1.176-1.184-1.46-1.465c-.59-.594-.567-1.934.132-2.637.11-.113 1.18-1.324 2.54-1.324h2.112c1.414 0 2.946 1.395 2.946 1.395s.226-.25.226-.493c0-.726-.004-2.671-.004-2.671-1.066-1.075-1.21-2.176-.699-2.692.953-.957 1.3-1.293 1.3-1.293s-.01 1.16 1.099 2.274m0 0"/><path fill="#e23546" d="M77.664 24.938h-.98s1.054.578 1.054 2.074v4.777c0 3.11 2.555 5.984 5.657 5.984h2.593c1.555 0 2.102-.378 3.043-1.218.344-.305.793-.813.957-.996.543-.61 1.117-1.098 1.117-2.704v-1.562c0-1.352-.78-1.914-1.152-2.293-.242-.242-.906-.879-.906-.879v3.203s.652.7.941.93c1.344 1.062.278 2.926-.976 2.926H83.32c-2.191 0-4.93-1.825-4.93-4.98v-2.598c0-2.665-.726-2.665-.726-2.665"/><path fill="#e23546" d="M83.902 30.754c0 .547-1.742 2-1.843 2.101-.125-.59-.567-1.238-1.864-2.542l1.907-1.915c1.277 1.282 1.8 1.559 1.8 2.356"/><g clip-path="url(#a)"><path fill="#e23546" d="m63.965 52.016-3.05-.004c-.954 0-.88-.805-.962-1.477v-4.402s.668-.016 1.402-.016c.848 0 1.907-.125 2.93.457 0 0-.738-1.777-2.937-1.777h-1.395v-1.414s0-1.23-.305-1.582l2 .008c1.75.004 3.106-.028 4.512.902 0 0-.27-2.313-3.656-2.313h-6.582s1.176.985 1.105 2.98l.07 8c0 2.024.786 2.056.786 2.056h6.484c1.473 0 1.985-1.036 1.985-1.618l.023-.773s-.469.973-2.41.973"/></g><g clip-path="url(#b)"><path fill="#e23546" d="M81.219 51.332v-5.594c0-2.168-1.778-2.75-3.09-2.75-1.734 0-2.258 1.469-2.48 1.961-.391-1.355-1.754-1.976-2.876-1.976-2.09 0-2.625 2.011-2.625 2.011s-.05-1.941-1.746-1.941l-1.656.004s.953.398.953 2.074l-.004 6.211c0 2.07.832 2.09.832 2.09h2.743c-.07-.02-1.055-.766-1.055-2.106V45.81c.035-.25.45-1.07 1.633-1.07.648 0 1.379.687 1.367 1.476l-.004 5.117c0 2.086.816 2.09.816 2.09h2.754s-1.054-.738-1.054-2.11l-.008-5.511c.101-.309.465-1.047 1.508-1.047.812 0 1.492.687 1.472 1.476l-.004 5.106c.016 2.098.82 2.078.82 2.078 1.438 0 2.758.008 2.758.008s-1.054-.727-1.054-2.09"/></g><g clip-path="url(#c)"><path fill="#e23546" d="M86.008 51.328c0 1.379 1.055 2.094 1.055 2.094s-1.31-.004-2.743-.004c0 0-.82.008-.82-2.07v-.012l.004-6.23c0-1.641-.95-2.063-.95-2.063h1.637c.586 0 1.809 0 1.809 2.32l-.004 5.957z"/></g><g clip-path="url(#d)"><path fill="#e23546" d="M94.426 43.828s-.262-.746-1.399-.746c-1.722 0-2.144 2.043-2.144 2.043-.14-1.613-.574-2.094-1.766-2.094l-1.66.004s.965.399.965 2.07l-.004 6.223c0 2.07.824 2.09.824 2.09h2.719c-.07-.02-1.047-.766-1.047-2.11l.004-5.085c.066-.47.305-.82.672-1.059.898-.574 2.133-.434 2.84.418-.004 0-.004-1.09-.004-1.754"/></g><g clip-path="url(#e)"><path fill="#e23546" d="M107.148 44.207c.93 0 1.625.406 1.625.406l.008-1.57h-2.293v-2.375s-.593 1.055-1.836 2.062c-.777.645-2.41 1.438-2.41 1.438l1.742.031-.004 7.219c0 2 .836 2 .836 2 1.5 0 2.715.004 2.715.004s-1.047-.715-1.047-2.024l.004-7.195c.707.004.211.004.66.004"/></g><g clip-path="url(#f)"><path fill="#e23546" d="M113.781 46.68c.453-.844.813-2.973-.742-2.856-1.781.133-1.437 4.918-1.437 4.918.59-.656 1.484-.785 2.18-2.062m1.683.664c-1.54 1.601-2.746 1.351-3.688 2.531 0 0 .153 1.598 1.352 2.164.414.191 2.11.734 3.203-1.184l-.004 1.825s-.703.754-2.941.754c-2.668 0-4.516-2.118-4.516-4.985 0-2.824 1.508-5.445 4.32-5.457 2.786-.02 4.293 2.227 2.274 4.352m0 0"/></g><path fill="#e23546" d="M84.73 42.2c.707 0 1.282-.548 1.282-1.243s-.575-1.262-1.282-1.262a1.25 1.25 0 0 0-1.253 1.262c0 .695.546 1.242 1.253 1.242"/><g clip-path="url(#g)"><path fill="#e23546" d="M121.488 50.598c.02.738-.633 1.707-2.023 1.707-1.363 0-1.965-1.473-1.965-1.473l-.012 1.86s1.012.734 2.594.734h-.004c1.883 0 3.738-1.418 3.684-3.403a3.2 3.2 0 0 0-.633-1.812c-.637-.84-1.79-1.465-2.7-1.992-1.238-.719-1.074-2.266.743-2.121 1.363.109 1.937 1.425 1.937 1.425v-1.726s-1.046-.832-2.629-.832c-1.644 0-3.105 1.09-3.066 2.48.035 1.227.535 2.028 1.54 2.762.398.297.874.586 1.421.895.805.441 1.098.988 1.113 1.496"/></g><g clip-path="url(#h)"><path fill="#e23546" d="M99.11 45.328c0 1.016-.86 1.469-1.419 1.715-1.632.719-3.718 1.508-3.718 3.887 0 1.593 1.148 2.508 2.765 2.508 1.239 0 1.86-.645 2.168-1.247.188 1.172.77 1.227.77 1.227 1.426 0 2.734.008 2.734.008s-1.066-.727-1.066-2.09v-5.828c0-1.399-1.543-2.485-3.18-2.485-1.574 0-2.566.766-2.566.766v1.805s.562-1.434 1.984-1.434c1.18 0 1.527.582 1.527 1.168m-1.48 6.914c-.863 0-1.45-.465-1.45-1.449 0-2.34 2.118-2.82 2.684-3.512l-.004 4.364c-.02.02-.379.597-1.23.597m0 0"/></g></svg>