<svg xmlns="http://www.w3.org/2000/svg" width="240" height="80" version="1.0" viewBox="0 0 180 67.92"><path fill="#548f46" d="M138.191 8.094h.567c.293.25.527.562.656.933v2.043c-.226.551-.305 1.149-.5 1.711-.266.832-.664 1.633-1.266 2.27-.703.742-1.546 1.332-2.398 1.894-2.094 1.348-4.266 2.57-6.445 3.766-4.41 2.379-8.899 4.621-13.512 6.578-.375.098-.75.203-1.125.285.035-.441.5-.625.816-.847 7.637-4.567 14.477-10.344 20.805-16.575.77-.722 1.477-1.535 2.402-2.058m0 0"/><path fill="#f1d212" d="M135.813 17.512c.277-.133.671 0 .734.324.101.48-.094.957-.274 1.394-.714 1.567-1.84 2.98-3.32 3.88-.789.456-1.656.745-2.508 1.054-4.172 1.422-8.465 2.461-12.761 3.434.043.027.132.082.175.113-.074.016-.218.05-.296.07-.06-.242-.606-.148-.336.074-.493.082-1.028.102-1.45.399q-.1-.135-.195-.27c-.488.024-.973.075-1.457.118q.012-.264.043-.528c.375-.082.75-.187 1.125-.285.309-.059.613-.133.91-.242 1.582-.555 3.125-1.219 4.656-1.906a178 178 0 0 0 12.727-6.453c.738-.399 1.441-.872 2.226-1.176m0 0"/><path fill="#c12237" d="M132.223 24.156c.343-.058.793-.261 1.074.043.34.45-.012 1-.238 1.41-.82 1.227-1.883 2.364-3.27 2.926-.66.32-1.402.274-2.11.348-3.695.215-7.394-.047-11.074-.38-.285-.05-.609-.03-.828-.25.422-.296.957-.316 1.45-.398.085-.015.253-.054.335-.074.079-.02.223-.054.297-.07a90 90 0 0 0 7.598-1.625c2.277-.559 4.504-1.313 6.766-1.93m-75.496 2.278c.836-.407 1.75-.7 2.671-.793.223 1.687.047 3.394.176 5.086.614-.27 1.098-.754 1.696-1.055.628-.344 1.347-.5 2.062-.5.82-.024 1.79.004 2.355.695.473.504.407 1.23.422 1.863.114 1.754.067 3.516.125 5.27.32.227.63.473.871.781-.898.203-1.832.11-2.742.114-.011-1.973-.004-3.946-.004-5.918-.007-.325.028-.66-.039-.98-.21-.255-.441-.54-.754-.669-.8-.074-1.64.012-2.336.438q-.853.527-1.656 1.136c-.086.223-.043.473-.054.707.02 1.426-.024 2.856.02 4.282.206.343.651.523.882.875-.453.109-.922.14-1.387.136-.758-.007-1.527.047-2.27-.136.243-.305.555-.536.852-.778.082-.183.043-.39.055-.586-.02-3.02.027-6.047-.024-9.07-.332-.27-.722-.5-.921-.898m-16.075-.446c1.875-.12 3.758-.047 5.637-.07 1.05.031 2.113-.078 3.148.137.168.586.133 1.207-.019 1.793-.586-.164-.996-.641-1.508-.938-1.55-.062-3.11-.02-4.664-.015q.006 2.022.024 4.05c1.039.016 2.085.07 3.125.004.511-.23.925-.64 1.457-.847.074.914.109 1.835-.043 2.742-.496-.25-.914-.625-1.407-.871-1.047-.047-2.093.02-3.136.007-.004 1.649-.016 3.293-.02 4.942 1.395.02 2.79-.004 4.184.012.258-.016.558.043.773-.133.484-.356.938-.758 1.477-1.031.172.695.133 1.417.12 2.128-3.148.016-6.296-.007-9.44.008v-.082c.37-.445 1.113-.738 1.035-1.418-.008-3.035 0-6.074-.004-9.113.05-.54-.543-.766-.817-1.145zm28.2 1.164c.558-.449 1.464-.222 1.789.407-.215.523-.782.984-1.368.75-.511-.086-.804-.774-.421-1.157m26.058-.187c.547-.184 1.38.156 1.317.816-.293.832-1.68.692-1.942-.105.02-.344.32-.598.625-.711m-42.668 1.492c.399-.25.766-.57 1.23-.68.141.461.122.946.13 1.422.753.059 1.543-.101 2.277.125.266.074.219.383.234.594-.77.234-1.59.098-2.379.164-.07.203-.14.406-.129.625-.02 1.855-.015 3.715-.003 5.574-.004.332.082.66.164.98.27.04.55.075.812-.019.445-.133.805-.523 1.297-.476.164.25.063.562-.172.726a3.54 3.54 0 0 1-1.71.656c-.848.09-1.75-.37-2.098-1.16-.18-.683-.145-1.402-.157-2.101-.004-1.309 0-2.617-.011-3.922.011-.297-.063-.586-.157-.867-.418-.043-.84-.047-1.246-.157.531-.62 1.266-1.011 1.918-1.484m35.305.738c1.355-.297 2.89.04 3.89 1.04.493.46.856 1.046 1.102 1.671.297.703.152 1.48.188 2.223.07 1.258-.762 2.348-1.66 3.133-.954.828-2.301.898-3.493.734-.765-.117-1.43-.531-2.16-.758a50 50 0 0 0-.008 3.067c.2.336.54.566.758.894-.535.145-1.094.11-1.64.121-.633-.008-1.278.04-1.895-.129.238-.316.566-.535.863-.789.067-.187.04-.39.047-.586-.008-2.613-.004-5.226 0-7.84-.008-.32.031-.652-.047-.964-.293-.23-.637-.403-.89-.68.015-.05.039-.148.054-.195.836-.336 1.707-.668 2.614-.723q.091.281.18.563c.683-.297 1.347-.68 2.097-.782m.168.914c-.91.086-1.903.512-2.309 1.371-.039 1.09-.004 2.184-.015 3.278.015.469-.067 1.008.27 1.39.44.52 1.116.762 1.769.875.742.075 1.593.082 2.18-.457.874-.793 1.14-2.066 1.097-3.207-.086-.804-.242-1.636-.695-2.324-.48-.75-1.457-1.004-2.297-.926m-11.977-.847c1.555-.336 3.262-.051 4.567.879.75.558 1.375 1.332 1.656 2.238.078.578.023 1.168.039 1.75.05.844-.406 1.605-.93 2.223-1.035 1.152-2.597 1.707-4.117 1.77-1.336-.063-2.71-.49-3.695-1.43-.649-.622-1.192-1.415-1.336-2.313-.074-.832-.074-1.707.297-2.477.652-1.39 2.039-2.336 3.52-2.64m.62.722c-1.086.254-1.93 1.188-2.18 2.262a5.7 5.7 0 0 0 .15 3.121c.28.86 1 1.563 1.874 1.797.828.281 1.77.086 2.469-.418.777-.613 1.219-1.59 1.25-2.57.062-1.145-.02-2.438-.84-3.324-.66-.77-1.746-1.075-2.723-.868m23.864-.597c1.41-.297 2.906-.403 4.308-.004.668.191 1.344.637 1.528 1.347.226 2.09.12 4.196.156 6.293.316.227.644.45.898.75-.898.207-1.832.118-2.746.122-.031-.38.055-.797-.16-1.133-1.086.293-2.098.8-3.164 1.148-.766.235-1.695.258-2.336-.289-.484-.43-.832-1.066-.816-1.723-.059-1.09.746-2.011 1.625-2.55.906-.57 2.007-.59 3.039-.7.59-.043 1.18-.027 1.773-.046.008-.66.125-1.395-.273-1.977-.457-.66-1.364-.785-2.098-.645-.687.2-1.246.676-1.836 1.063-.312.195-.605.469-.988.496a4.2 4.2 0 0 1 .066-1.672c.239-.316.664-.375 1.024-.48m1.043 4.332c-.778.3-1.45 1.05-1.371 1.926-.082.55.324 1.039.8 1.253.422.07.825-.132 1.211-.27.817-.343 1.66-.651 2.41-1.132.024-.57.079-1.148-.007-1.715-.098-.176-.262-.328-.477-.297-.855-.007-1.746-.062-2.566.235m11.668-4.38c.691-.198 1.418-.155 2.129-.148.64-.02 1.246.274 1.742.66.34.266.422.715.488 1.118.137 2.015.133 4.035.16 6.05.313.231.637.45.89.754-.902.207-1.835.118-2.75.122-.011-1.973-.007-3.946-.023-5.918-.015-.399-.011-.829-.203-1.184-.437-.531-1.199-.496-1.82-.484-1.195-.008-2.215.742-3.016 1.554-.23.176-.136.496-.16.746.031 1.418-.05 2.844.04 4.258.316.36.702.656 1.01 1.024-1.269-.02-2.554.109-3.808-.114.246-.304.567-.53.86-.785.07-.187.039-.394.05-.59-.011-1.77.008-3.539-.007-5.308-.266-.254-.598-.457-.79-.778-.12-.203.18-.265.305-.324.727-.258 1.461-.515 2.223-.668.137.426.125.88.148 1.32.371-.035.649-.296.942-.5.48-.351 1.008-.652 1.59-.804m-19.036.653c.723-.262 1.45-.504 2.2-.672.21 1.551.113 3.121.144 4.68.024.957-.05 1.918.035 2.867.317.36.703.656 1.012 1.024-1.27-.02-2.559.113-3.812-.13.265-.288.582-.515.898-.738.012-1.98.008-3.957.004-5.933-.266-.25-.594-.457-.785-.774-.11-.207.176-.265.304-.324m-26.132.211c.832-.453 1.789-.7 2.73-.785.192 1.984.106 3.98.133 5.973.02.53-.059 1.074.043 1.597.297.242.613.473.855.778-.457.109-.922.14-1.386.136-.762-.007-1.532.047-2.274-.136.242-.305.559-.536.856-.778.078-.183.039-.39.054-.586l-.011-4.425c0-.352-.004-.747-.254-1.024-.25-.25-.567-.433-.746-.75m8.64 12.73c1.008-.449 2.18-.523 3.246-.245.559.14 1.168.46 1.313 1.07.2.676.176 1.586-.473 2.008-.816.492-1.805.304-2.703.406.29.687 1.09.973 1.383 1.652.14.578.183 1.18.45 1.719H77.71c.41-.383.598-1.117.16-1.55-.746-.727-1.676-1.274-2.308-2.114-.325-.645-.278-1.418-.055-2.086.14-.414.52-.68.898-.86m1.086.2c-.508.238-1.012.742-.937 1.351.015.344-.09.825.297 1.004.773.098 1.566.047 2.34-.02.59-.058.667-.765.68-1.234.066-.511-.388-.918-.813-1.097a5.7 5.7 0 0 0-1.567-.004m4.867-.047c.41-.242.871-.438 1.356-.434.332.07.27.52.375.778q.674.091 1.347.207c-.027.738-.687 1.207-.96 1.851.585.078 1.183.078 1.77.184.382.086.839.273.925.707.176.71.086 1.453.137 2.18.359-.133.707-.325 1.09-.387.195.082.21.312.277.488.074.328.265.606.441.883H87.54c-.004-.234-.34-.23-.344 0h-.863c-.207-.785-.125-1.598-.164-2.398-.016-.352-.145-.793-.543-.868-.594-.109-1.336-.34-1.836.125-.578.493-.371 1.344-.418 2.012-.062.441.207.8.457 1.129H81.84c.164-.277.394-.547.414-.883.074-.816-.117-1.71.332-2.445.445-.719 1.016-1.352 1.46-2.074-.331-.047-.698-.016-.98-.223-.304-.211-.496-.535-.707-.832m14.746.23c.625-.648 1.579-.773 2.434-.765.719.035 1.5.027 2.121.449.488.348.59.98.79 1.508q.598.034 1.202.039c-.047.574.211 1.066.528 1.523-.485.07-.977.047-1.465.024-.07-.336-.133-.668-.207-1-.438.261-.723.754-1.242.879-.75.261-1.563.039-2.317.27.403.558 1.067.866 1.422 1.46.211.606.121 1.293.512 1.84h-1.89c.195-.383.62-.848.316-1.285-.692-.953-1.899-1.395-2.52-2.406-.375-.805-.316-1.875.316-2.536m1.723-.156c-.855.094-1.156 1.09-1.05 1.824.054.207.097.536.378.532.668.066 1.344.043 2.016.011.523.02.95-.527.902-1.03.008-.411.008-.923-.37-1.173-.571-.312-1.259-.265-1.876-.164m14.25.477c.383-.711 1.23-.957 1.98-1.04.899-.07 1.88-.124 2.7.325.96.508 1.07 1.98.351 2.734-.816.68-1.941.324-2.886.586.476.66 1.234 1.051 1.71 1.707a.29.29 0 0 1-.187.492c-1.05.227-2.16.125-3.191.465q.217.322.433.637h-1.98c.144-.25.293-.496.394-.766.07-.129.082-.347.258-.375.848-.21 1.738-.156 2.582-.382-.625-.782-1.57-1.239-2.144-2.067-.403-.7-.371-1.605-.02-2.316m1.89-.504c-.507.238-1.011.742-.94 1.351.019.344-.09.825.3 1.004.774.098 1.563.047 2.34-.02.59-.058.668-.761.68-1.234.066-.507-.387-.918-.813-1.097a5.7 5.7 0 0 0-1.566-.004m-24.75-.117c.5-.184 1.028-.328 1.567-.278q.134.328.262.66c.242.102.48.204.723.309.18.621.21 1.273.218 1.918.88.012 1.75.105 2.63.152.066.504.222.993.476 1.434-.387.043-.793.113-1.18.008-.394-.137-.387-.625-.473-.961a8.3 8.3 0 0 0-1.46-.04c0 .817-.028 1.634-.004 2.45-.004.312.156.594.273.875h-1.914c.176-.219.39-.45.379-.75a44 44 0 0 0-.016-2.602 10 10 0 0 0-1.48-.043c-.114.329-.196.66-.281.997-.45.125-.93.175-1.376.015.297-.441.434-.95.442-1.48.89-.016 1.789.035 2.676-.09.066-.473.066-.953.035-1.43-.715-.004-1.156-.597-1.496-1.144m16.477-.086c.438-.164.899-.266 1.368-.235.035.242.074.489.117.73.656.165 1.343.317 1.863.778.406.43 1.035.274 1.543.469.2.457.254.973.531 1.402-.484.063-.972.047-1.457.02-.066-.336-.125-.676-.191-1.008-.309.55-.711 1.035-1.239 1.39.29.227.657.403.82.75.25.563.145 1.192.247 1.786.101.195.246.36.383.531h-1.961c.34-.531.586-1.191.328-1.816-.18-.618-.934-.825-1.492-.649-.621.176-1.27.352-1.793.742-.422.528-.063 1.235.258 1.723h-1.973c.133-.172.281-.336.379-.531.113-.63-.024-1.352.406-1.883.29-.274.668-.43.996-.649-.496-.375-1.121-.875-.965-1.582.157-.8.953-1.168 1.653-1.386q.086-.294.18-.582m.081 1.234c-.593.133-.902.852-.578 1.367.324.504 1.012.434 1.524.344.476-.137 1.007-.305 1.308-.727.23-.308-.066-.691-.316-.882-.582-.34-1.313-.266-1.938-.102m0 0"/><path fill="#854728" fill-opacity=".29" d="M117.227 27.855c-.27-.222.277-.316.335-.074-.082.02-.25.059-.335.074M87.195 49.543c.004-.23.34-.234.344 0Zm0 0"/></svg>