<svg xmlns="http://www.w3.org/2000/svg" xmlns:xlink="http://www.w3.org/1999/xlink" width="240" zoomAndPan="magnify" viewBox="0 0 180 67.92" height="80" preserveAspectRatio="xMidYMid meet" version="1.0"><path fill="#bd8b13" d="M 98.007812 11.441406 L 97.921875 11.355469 L 96.355469 9.785156 L 94.617188 11.527344 L 96.355469 13.273438 Z M 98.007812 11.441406 " fill-opacity="1" fill-rule="nonzero"/><path fill="#bd8b13" d="M 101.484375 11.441406 L 101.222656 11.355469 L 99.660156 9.785156 L 97.921875 11.527344 L 99.660156 13.273438 Z M 101.484375 11.441406 " fill-opacity="1" fill-rule="nonzero"/><path fill="#bd8b13" d="M 77.839844 11.09375 C 77.839844 11.441406 78.1875 11.617188 78.449219 11.703125 C 78.796875 11.789062 79.144531 12.050781 79.144531 12.574219 L 79.144531 26 L 93.921875 26 L 93.921875 26.261719 C 93.921875 26.347656 93.921875 26.347656 93.921875 26.609375 C 93.921875 27.742188 94.269531 28.4375 94.878906 28.699219 C 94.878906 28.699219 95.226562 28.960938 95.746094 28.960938 C 96.09375 28.960938 96.441406 28.875 96.878906 28.613281 L 97.136719 28.527344 L 96.878906 28.265625 C 96.53125 27.917969 96.269531 26.871094 96.269531 26.261719 L 96.269531 26.171875 L 101.746094 26.171875 L 101.746094 13.792969 C 101.746094 13.792969 101.050781 15.363281 98.355469 17.367188 C 98.355469 17.367188 98.441406 17.890625 98.964844 18.152344 C 99.660156 18.5 99.570312 18.9375 99.570312 18.9375 L 99.570312 23.90625 L 96.183594 23.90625 L 96.183594 23.382812 C 96.183594 22.164062 95.835938 19.199219 92.53125 19.199219 L 92.445312 19.199219 C 91.488281 19.199219 90.53125 19.199219 89.75 19.199219 L 89.488281 19.199219 C 87.578125 19.199219 86.53125 18.9375 86.183594 18.414062 L 86.097656 18.152344 L 86.011719 18.238281 C 85.664062 18.5 85.402344 18.9375 85.402344 19.460938 C 85.402344 20.246094 85.925781 21.203125 86.621094 21.203125 C 87.140625 21.203125 87.835938 21.203125 88.53125 21.203125 C 89.75 21.203125 91.140625 21.203125 91.140625 21.203125 C 93.835938 21.203125 93.921875 22.425781 93.921875 22.949219 L 93.921875 23.558594 L 81.316406 23.558594 L 81.316406 7.167969 C 81.316406 7.167969 79.839844 9.175781 77.753906 10.65625 L 77.753906 11.09375 Z M 77.839844 11.09375 " fill-opacity="1" fill-rule="nonzero"/><path fill="#bd8b13" d="M 69.234375 28.003906 C 69.234375 28.003906 68.972656 30.007812 73.058594 30.007812 C 76.363281 30.007812 76.449219 27.917969 76.449219 27.917969 L 76.449219 20.246094 C 76.449219 19.722656 76.363281 18.414062 74.972656 18.414062 L 63.496094 18.414062 L 63.496094 17.542969 C 63.496094 17.28125 63.585938 17.28125 63.84375 17.195312 C 64.453125 16.84375 64.539062 16.410156 64.453125 16.234375 C 63.148438 15.449219 61.847656 13.707031 61.847656 13.707031 L 61.847656 20.417969 L 73.40625 20.417969 C 73.753906 20.417969 74.277344 20.507812 74.277344 21.292969 L 74.277344 26.695312 C 74.277344 26.695312 74.277344 27.828125 73.144531 27.828125 C 71.320312 27.828125 71.40625 26.871094 71.40625 26.871094 L 71.40625 23.90625 L 61.847656 23.90625 L 61.847656 26.261719 L 69.410156 26.261719 L 69.410156 28.003906 Z M 69.234375 28.003906 " fill-opacity="1" fill-rule="nonzero"/><path fill="#bd8b13" d="M 117.304688 12.574219 C 117.304688 11.964844 117.652344 11.789062 117.914062 11.703125 C 118.175781 11.617188 118.433594 11.441406 118.523438 10.917969 L 118.523438 10.832031 C 118.523438 10.570312 118.433594 10.570312 118.175781 10.480469 C 117.914062 10.394531 117.566406 10.132812 116.871094 9.523438 C 115.652344 8.5625 115.394531 8.042969 115.394531 8.042969 L 115.042969 7.429688 L 115.042969 26.171875 L 117.390625 26.171875 C 117.304688 26.085938 117.304688 12.921875 117.304688 12.574219 Z M 117.304688 12.574219 " fill-opacity="1" fill-rule="nonzero"/><path fill="#bd8b13" d="M 109.480469 28.527344 L 107.917969 30.09375 L 106.351562 28.527344 L 107.917969 26.957031 Z M 104.179688 28.527344 L 108.003906 32.363281 L 111.828125 28.527344 L 109.480469 26.171875 L 112.261719 23.207031 L 112.261719 7.429688 C 112.261719 7.429688 111.132812 9.785156 109.308594 11.003906 L 109.308594 11.09375 C 109.308594 11.441406 109.570312 11.617188 109.828125 11.703125 C 110.089844 11.789062 110.351562 12.050781 110.351562 12.574219 C 110.351562 13.097656 110.351562 22.074219 110.351562 22.074219 L 108.003906 24.515625 L 105.65625 22.074219 C 105.65625 21.988281 105.65625 12.921875 105.65625 12.574219 C 105.65625 11.964844 105.917969 11.789062 106.179688 11.703125 C 106.4375 11.617188 106.527344 11.441406 106.699219 11.09375 L 106.699219 11.003906 C 104.960938 9.785156 103.746094 7.429688 103.746094 7.429688 L 103.746094 23.46875 L 106.527344 26.347656 Z M 104.179688 28.527344 " fill-opacity="1" fill-rule="nonzero"/><path fill="#bd8b13" d="M 97.484375 36.808594 L 98.09375 37.15625 C 98.179688 37.242188 98.179688 37.242188 98.179688 37.417969 L 98.179688 42.386719 L 87.578125 42.386719 L 85.140625 45.4375 L 85.140625 37.332031 L 85.230469 37.242188 L 85.75 36.894531 L 85.75 36.371094 L 80.359375 36.371094 L 80.359375 36.894531 L 80.882812 37.242188 L 80.96875 37.332031 L 80.96875 52.324219 L 80.882812 52.410156 L 80.359375 52.757812 L 80.359375 53.28125 L 85.75 53.28125 L 85.75 52.757812 L 85.140625 52.410156 L 85.054688 52.324219 L 85.054688 45.613281 L 85.664062 45.699219 L 86.359375 45.351562 L 86.707031 45.261719 C 86.707031 45.261719 86.792969 45.261719 86.96875 45.261719 L 98.09375 45.261719 L 98.09375 50.492188 L 102.09375 46.132812 L 102.09375 37.59375 L 102.179688 37.503906 L 102.789062 37.242188 L 102.789062 36.71875 L 97.484375 36.71875 Z M 97.484375 36.808594 " fill-opacity="1" fill-rule="nonzero"/><path fill="#bd8b13" d="M 154.945312 42.820312 C 154.335938 40.816406 152.859375 39.25 150.683594 38.027344 C 148.773438 36.894531 145.902344 36.457031 142.164062 36.457031 L 127.648438 36.457031 L 127.648438 36.980469 L 128.257812 37.332031 L 128.257812 39.074219 L 142.078125 39.074219 C 144.859375 39.074219 146.945312 39.421875 148.164062 40.207031 C 150.074219 41.339844 151.121094 42.910156 151.121094 44.738281 C 151.121094 45.699219 150.859375 46.570312 150.425781 47.441406 C 149.902344 48.226562 149.121094 48.925781 148.078125 49.445312 C 146.773438 50.230469 144.6875 50.582031 141.992188 50.582031 L 134.777344 50.582031 L 134.777344 40.207031 L 130.867188 40.207031 L 130.867188 52.0625 L 130.777344 52.148438 L 130.257812 52.410156 L 130.257812 52.933594 L 142.078125 52.933594 C 144.425781 52.933594 146.078125 52.847656 147.46875 52.585938 C 149.207031 52.238281 150.773438 51.625 151.988281 50.753906 C 153.292969 49.882812 154.335938 48.75 154.769531 47.703125 C 155.117188 46.832031 155.378906 45.960938 155.378906 45 C 155.203125 44.21875 155.03125 43.433594 154.945312 42.820312 Z M 154.945312 42.820312 " fill-opacity="1" fill-rule="nonzero"/><path fill="#bd8b13" d="M 110.351562 39.421875 L 97.398438 52.933594 L 103.398438 52.933594 L 103.398438 52.324219 L 102.613281 52.324219 L 112.523438 41.863281 Z M 110.351562 39.421875 " fill-opacity="1" fill-rule="nonzero"/><path fill="#bd8b13" d="M 123.390625 52.496094 L 123.390625 53.109375 L 129.214844 53.109375 L 113.566406 36.457031 L 111.21875 38.898438 L 113.828125 41.601562 L 116.523438 44.304688 L 112.003906 44.304688 L 109.570312 46.917969 L 110.089844 47.269531 L 110.699219 46.917969 L 110.785156 46.917969 C 110.785156 46.917969 111.046875 46.917969 111.132812 46.917969 L 118.695312 46.917969 L 123.910156 52.585938 C 123.910156 52.585938 123.824219 52.671875 123.390625 52.671875 L 123.304688 52.671875 L 123.304688 52.496094 Z M 123.390625 52.496094 " fill-opacity="1" fill-rule="nonzero"/><path fill="#bd8b13" d="M 78.101562 37.15625 L 78.621094 36.808594 L 78.621094 36.285156 L 73.40625 36.285156 L 73.40625 36.808594 L 73.929688 37.15625 L 74.191406 37.417969 L 74.191406 52.148438 L 74.101562 52.238281 L 73.492188 52.496094 L 73.492188 53.019531 L 78.710938 53.019531 L 78.710938 52.496094 L 78.1875 52.238281 L 78.101562 52.148438 Z M 78.101562 37.15625 " fill-opacity="1" fill-rule="nonzero"/><path fill="#bd8b13" d="M 51.9375 49.796875 L 51.066406 49.796875 L 50.371094 50.144531 C 50.285156 50.230469 50.109375 50.230469 50.023438 50.230469 L 38.113281 50.230469 C 35.421875 50.230469 33.335938 49.882812 32.03125 49.097656 C 29.945312 47.964844 28.988281 46.484375 28.988281 44.390625 C 28.988281 43.519531 29.25 42.5625 29.855469 41.777344 C 30.8125 40.292969 32.292969 39.160156 34.464844 38.8125 C 35.074219 38.726562 35.59375 38.726562 35.941406 38.726562 L 42.027344 38.726562 C 42.375 38.726562 42.375 38.8125 42.375 38.8125 L 42.289062 39.335938 L 42.722656 39.335938 L 45.328125 36.109375 L 38.027344 36.109375 C 36.289062 36.109375 34.984375 36.109375 34.117188 36.195312 C 33.59375 36.195312 33.160156 36.285156 32.8125 36.457031 C 31.59375 36.71875 30.464844 37.242188 29.421875 37.851562 C 27.511719 38.898438 26.207031 40.207031 25.511719 41.6875 C 25.164062 42.5625 24.902344 43.519531 24.902344 44.652344 C 24.902344 47.355469 26.378906 49.445312 29.160156 51.101562 C 30.378906 51.886719 31.855469 52.324219 33.421875 52.585938 C 34.636719 52.847656 36.203125 52.847656 38.203125 52.847656 L 49.242188 52.847656 Z M 51.9375 49.796875 " fill-opacity="1" fill-rule="nonzero"/><path fill="#bd8b13" d="M 45.9375 45.785156 L 48.546875 42.5625 L 31.246094 42.5625 L 29.507812 45.175781 L 45.070312 45.175781 C 45.328125 45.175781 45.417969 45.261719 45.417969 45.261719 L 45.328125 45.785156 Z M 45.9375 45.785156 " fill-opacity="1" fill-rule="nonzero"/><path fill="#bd8b13" d="M 47.242188 36.285156 L 44.808594 39.335938 L 45.328125 39.421875 L 45.417969 39.421875 L 46.113281 39.074219 C 46.375 38.988281 46.460938 38.8125 46.722656 38.8125 L 56.28125 38.8125 L 56.28125 51.886719 L 56.195312 51.976562 L 55.675781 52.324219 L 55.675781 52.847656 L 61.0625 52.847656 L 61.0625 52.324219 L 60.542969 51.976562 L 60.457031 51.886719 L 60.457031 38.898438 L 68.886719 38.898438 C 69.234375 38.898438 69.234375 38.988281 69.234375 38.988281 L 69.234375 39.507812 L 69.757812 39.507812 L 72.363281 36.285156 Z M 47.242188 36.285156 " fill-opacity="1" fill-rule="nonzero"/></svg>