<svg xmlns="http://www.w3.org/2000/svg" xmlns:xlink="http://www.w3.org/1999/xlink" width="240" zoomAndPan="magnify" viewBox="0 0 180 67.92" height="80" preserveAspectRatio="xMidYMid meet" version="1.0"><defs><clipPath id="ae3c65b037"><path d="M 11 17 L 159 17 L 159 43.21875 L 11 43.21875 Z M 11 17 " clip-rule="nonzero"/></clipPath><clipPath id="b4a1151302"><path d="M 147 17 L 169 17 L 169 43.21875 L 147 43.21875 Z M 147 17 " clip-rule="nonzero"/></clipPath><clipPath id="dee0060507"><path d="M 22 22 L 153 22 L 153 43.21875 L 22 43.21875 Z M 22 22 " clip-rule="nonzero"/></clipPath></defs><g clip-path="url(#ae3c65b037)"><path fill="#c23c40" d="M 29.71875 22.058594 L 20.320312 43.203125 L 11.238281 43.203125 L 20.636719 22.058594 L 29.71875 22.058594 M 112.921875 22.058594 L 103.519531 43.203125 L 94.492188 43.203125 L 103.890625 22.058594 L 112.921875 22.058594 M 60.261719 34.175781 L 70.132812 34.175781 L 72.25 29.660156 L 62.203125 29.660156 L 63.613281 26.570312 L 73.660156 26.570312 L 75.773438 22.058594 L 56.820312 22.058594 L 47.421875 43.203125 L 47.402344 43.203125 L 66.140625 43.203125 L 68.957031 37.738281 L 58.5625 37.738281 L 60.261719 34.175781 M 124.070312 43.203125 L 132.625 43.203125 L 132.589844 22.058594 L 120.378906 22.058594 L 105.417969 43.203125 L 114.125 43.203125 L 117.710938 37.738281 L 124.058594 37.738281 Z M 120.0625 33.699219 L 123.988281 27.347656 L 124.050781 33.699219 L 120.0625 33.699219 M 141.210938 27.722656 L 153.203125 27.726562 L 158.066406 17 L 146.09375 17 L 141.210938 27.699219 L 141.210938 27.722656 " fill-opacity="1" fill-rule="nonzero"/></g><g clip-path="url(#b4a1151302)"><path fill="#deb12e" d="M 154.871094 27.722656 L 163.507812 27.722656 C 166.414062 27.722656 168.765625 25.339844 168.765625 22.40625 C 168.765625 19.472656 166.414062 17.007812 163.507812 17.007812 L 159.722656 17 L 154.871094 27.722656 M 154.339844 28.992188 L 147.84375 43.207031 L 161.511719 43.207031 L 161.511719 43.222656 C 161.976562 43.222656 162.4375 43.175781 162.894531 43.082031 C 163.351562 42.992188 163.792969 42.855469 164.222656 42.675781 C 164.652344 42.496094 165.0625 42.273438 165.449219 42.011719 C 165.835938 41.75 166.191406 41.453125 166.519531 41.121094 C 166.851562 40.789062 167.144531 40.425781 167.402344 40.035156 C 167.660156 39.644531 167.878906 39.230469 168.058594 38.796875 C 168.234375 38.363281 168.371094 37.914062 168.460938 37.453125 C 168.550781 36.992188 168.597656 36.527344 168.597656 36.054688 C 168.597656 32.09375 165.425781 29.019531 161.511719 29.019531 L 154.34375 29.023438 L 154.34375 28.992188 " fill-opacity="1" fill-rule="nonzero"/></g><g clip-path="url(#dee0060507)"><path fill="#c23c40" d="M 140.710938 29.003906 L 152.675781 28.992188 L 146.183594 43.203125 L 134.210938 43.203125 L 140.710938 29.023438 L 140.710938 29.003906 M 45.945312 31.363281 C 47.65625 32.214844 48.738281 33.660156 48.738281 35.882812 C 48.738281 39.925781 45.160156 43.207031 40.738281 43.207031 L 22.398438 43.207031 L 31.792969 22.003906 L 46.417969 22 C 49.261719 22 51.570312 23.304688 51.570312 26.542969 C 51.570312 29.546875 48.796875 31.363281 45.945312 31.363281 Z M 33.886719 37.738281 L 36.710938 37.738281 C 36.710938 37.738281 39.46875 37.976562 39.703125 35.839844 C 39.703125 35.839844 40.285156 33.640625 37.933594 33.640625 L 35.769531 33.640625 Z M 39.660156 30.316406 C 41.308594 30.316406 41.9375 29.484375 41.9375 28.234375 C 41.9375 26.988281 40.410156 27.046875 40.410156 27.046875 L 38.585938 27.046875 L 37.175781 30.316406 L 39.660156 30.316406 M 77.710938 43.203125 L 69.1875 43.203125 L 78.589844 22.082031 L 91.453125 22.097656 C 94.773438 22.097656 98.609375 23.054688 98.320312 27.488281 C 98.113281 30.6875 94.773438 33.746094 89.164062 34.050781 L 92.964844 43.082031 L 84.34375 43.082031 L 81.644531 34.171875 Z M 86.347656 30.6875 C 89.082031 30.6875 89.398438 28.550781 89.398438 28.550781 C 89.398438 26.648438 87.480469 26.808594 87.480469 26.808594 L 84.933594 26.808594 L 83.210938 30.6875 L 86.347656 30.6875 " fill-opacity="1" fill-rule="nonzero"/></g><path fill="#deb12e" d="M 149.703125 18.917969 L 149.617188 19.214844 L 149.886719 19.066406 L 149.886719 19.628906 L 149.554688 19.488281 L 149.554688 19.816406 C 149.714844 19.816406 149.878906 20.046875 149.878906 20.046875 C 149.878906 20.484375 149.761719 20.40625 149.761719 20.40625 L 150.511719 20.40625 L 150.910156 21.167969 L 152.566406 21.167969 L 153.277344 22.40625 L 153.042969 22.96875 C 153.042969 22.96875 153.320312 23.207031 153.320312 23.488281 C 153.320312 23.488281 153.203125 23.886719 152.804688 23.886719 L 152.804688 24.367188 L 146.082031 24.367188 L 146.082031 23.886719 C 145.691406 23.886719 145.570312 23.488281 145.570312 23.488281 C 145.570312 23.207031 145.847656 22.96875 145.847656 22.96875 L 145.609375 22.40625 L 146.320312 21.167969 L 147.984375 21.167969 L 148.375 20.40625 L 149.125 20.40625 C 149.125 20.40625 149.003906 20.484375 149.003906 20.046875 C 149.003906 20.046875 149.175781 19.816406 149.332031 19.816406 L 149.332031 19.488281 L 149.003906 19.632812 L 149.003906 19.070312 L 149.273438 19.21875 L 149.1875 18.921875 L 149.703125 18.921875 Z M 151.859375 22.519531 L 151.625 23.03125 C 152.003906 23.242188 151.773438 23.628906 151.773438 23.628906 L 152.453125 23.628906 L 152.839844 22.847656 L 152.21875 21.773438 L 151.390625 21.773438 Z M 149.984375 22.488281 L 149.667969 22.996094 C 150.167969 23.207031 149.875 23.660156 149.875 23.660156 L 151.03125 23.660156 C 150.738281 23.152344 151.269531 23.03125 151.269531 23.03125 L 150.140625 21.167969 L 149.722656 21.167969 Z M 147.351562 21.773438 L 146.523438 21.773438 L 145.898438 22.847656 L 146.285156 23.628906 L 146.964844 23.628906 C 146.964844 23.628906 146.726562 23.242188 147.113281 23.03125 L 146.875 22.519531 Z M 149.007812 21.167969 L 148.59375 21.167969 L 147.46875 23.03125 C 147.46875 23.03125 148.003906 23.152344 147.707031 23.660156 L 148.863281 23.660156 C 148.863281 23.660156 148.570312 23.210938 149.074219 22.996094 L 148.75 22.488281 L 149.007812 21.167969 M 146.078125 24.753906 L 152.785156 24.753906 L 152.785156 25.140625 L 146.078125 25.140625 Z M 146.078125 24.753906 " fill-opacity="1" fill-rule="nonzero"/></svg>