<svg xmlns="http://www.w3.org/2000/svg" xmlns:xlink="http://www.w3.org/1999/xlink" width="240" zoomAndPan="magnify" viewBox="0 0 180 67.92" height="80" preserveAspectRatio="xMidYMid meet" version="1.0"><defs><clipPath id="6aae218209"><path d="M 66.199219 6.164062 L 114.144531 6.164062 L 114.144531 54.109375 L 66.199219 54.109375 Z M 66.199219 6.164062 " clip-rule="nonzero"/></clipPath><clipPath id="f0579383a0"><path d="M 69 6.164062 L 111 6.164062 L 111 48 L 69 48 Z M 69 6.164062 " clip-rule="nonzero"/></clipPath></defs><g clip-path="url(#6aae218209)"><path fill="#ffffff" d="M 66.199219 6.164062 L 114.144531 6.164062 L 114.144531 54.109375 L 66.199219 54.109375 Z M 66.199219 6.164062 " fill-opacity="1" fill-rule="evenodd"/></g><path stroke-linecap="butt" transform="matrix(0.248727, 0, 0, 0.248727, 66.200743, 6.165452)" fill="none" stroke-linejoin="miter" d="M 148.688799 95.166705 C 148.484634 95.417985 148.280469 95.65356 148.076304 95.889135 C 148.280469 95.65356 148.484634 95.417985 148.688799 95.166705 " stroke="#000000" stroke-width="3" stroke-opacity="1" stroke-miterlimit="2.613"/><path fill="#000000" d="M 76.667969 52.597656 C 76.554688 53.136719 76.21875 53.402344 75.707031 53.402344 C 74.855469 53.402344 74.96875 52.859375 75.074219 52.371094 L 75.570312 52.371094 C 75.488281 52.773438 75.472656 52.96875 75.757812 52.96875 C 76.035156 52.96875 76.09375 52.792969 76.136719 52.597656 L 76.523438 50.78125 L 77.054688 50.78125 Z M 78.398438 51.359375 L 78.40625 51.359375 L 78.507812 52.371094 L 77.855469 52.371094 Z M 77.621094 52.808594 L 78.5625 52.808594 L 78.613281 53.335938 L 79.195312 53.335938 L 78.835938 50.78125 L 78.222656 50.78125 L 76.769531 53.335938 L 77.332031 53.335938 Z M 80.359375 51.972656 L 80.519531 51.222656 L 80.941406 51.222656 C 81.273438 51.222656 81.386719 51.328125 81.335938 51.574219 C 81.3125 51.691406 81.25 51.972656 80.851562 51.972656 Z M 80.265625 52.414062 L 80.875 52.414062 C 81.5625 52.414062 81.8125 51.832031 81.863281 51.601562 C 81.96875 51.097656 81.738281 50.785156 81.246094 50.785156 L 80.078125 50.785156 L 79.535156 53.335938 L 80.070312 53.335938 Z M 82.980469 51.359375 L 82.988281 51.359375 L 83.089844 52.371094 L 82.441406 52.371094 Z M 82.203125 52.808594 L 83.144531 52.808594 L 83.199219 53.335938 L 83.777344 53.335938 L 83.421875 50.78125 L 82.804688 50.78125 L 81.351562 53.335938 L 81.914062 53.335938 Z M 86.21875 50.785156 L 86.71875 50.785156 L 86.175781 53.335938 L 85.640625 53.335938 L 84.988281 51.515625 L 84.980469 51.515625 L 84.59375 53.335938 L 84.09375 53.335938 L 84.636719 50.785156 L 85.199219 50.785156 L 85.835938 52.5625 L 85.839844 52.5625 Z M 89.105469 51.359375 L 89.113281 51.359375 L 89.214844 52.371094 L 88.5625 52.371094 Z M 88.328125 52.808594 L 89.269531 52.808594 L 89.320312 53.335938 L 89.902344 53.335938 L 89.546875 50.78125 L 88.929688 50.78125 L 87.476562 53.335938 L 88.039062 53.335938 Z M 90.734375 53.335938 L 90.199219 53.335938 L 90.742188 50.785156 L 91.277344 50.785156 Z M 92.058594 51.90625 L 92.203125 51.222656 L 92.867188 51.222656 C 93.183594 51.222656 93.199219 51.421875 93.171875 51.558594 C 93.117188 51.8125 92.960938 51.90625 92.683594 51.90625 Z M 91.230469 53.335938 L 91.753906 53.335938 L 91.96875 52.335938 L 92.519531 52.335938 C 92.914062 52.335938 92.90625 52.472656 92.832031 52.820312 C 92.777344 53.082031 92.769531 53.214844 92.777344 53.335938 L 93.371094 53.335938 L 93.382812 53.269531 C 93.277344 53.226562 93.296875 53.132812 93.378906 52.761719 C 93.480469 52.285156 93.382812 52.207031 93.191406 52.113281 C 93.464844 52.027344 93.65625 51.785156 93.714844 51.503906 C 93.761719 51.285156 93.746094 50.78125 93.066406 50.78125 L 91.773438 50.78125 Z M 95.417969 52.875 L 96.6875 52.875 L 96.589844 53.335938 L 94.789062 53.335938 L 95.332031 50.785156 L 95.863281 50.785156 Z M 97.453125 53.335938 L 96.917969 53.335938 L 97.460938 50.785156 L 97.996094 50.785156 Z M 100.050781 50.785156 L 100.546875 50.785156 L 100.003906 53.335938 L 99.472656 53.335938 L 98.816406 51.515625 L 98.808594 51.515625 L 98.421875 53.335938 L 97.925781 53.335938 L 98.46875 50.785156 L 99.027344 50.785156 L 99.664062 52.5625 L 99.671875 52.5625 Z M 102.839844 51.234375 L 101.488281 51.234375 L 101.371094 51.773438 L 102.617188 51.773438 L 102.519531 52.222656 L 101.277344 52.222656 L 101.136719 52.882812 L 102.550781 52.882812 L 102.457031 53.335938 L 100.515625 53.335938 L 101.058594 50.785156 L 102.9375 50.785156 Z M 103.4375 52.550781 C 103.410156 52.691406 103.421875 52.960938 103.890625 52.960938 C 104.140625 52.960938 104.4375 52.902344 104.492188 52.632812 C 104.535156 52.433594 104.355469 52.378906 104.097656 52.316406 L 103.839844 52.25 C 103.445312 52.15625 103.066406 52.0625 103.1875 51.5 C 103.246094 51.214844 103.507812 50.714844 104.335938 50.714844 C 105.117188 50.714844 105.21875 51.226562 105.15625 51.539062 L 104.644531 51.539062 C 104.652344 51.425781 104.667969 51.15625 104.203125 51.15625 C 104 51.15625 103.742188 51.230469 103.691406 51.460938 C 103.652344 51.660156 103.804688 51.703125 103.90625 51.730469 L 104.496094 51.882812 C 104.828125 51.964844 105.117188 52.109375 105.019531 52.566406 C 104.855469 53.335938 104.058594 53.402344 103.835938 53.402344 C 102.902344 53.402344 102.855469 52.867188 102.925781 52.550781 Z M 103.4375 52.550781 " fill-opacity="1" fill-rule="evenodd"/><g clip-path="url(#f0579383a0)"><path fill="#b4282e" d="M 110.234375 30.792969 C 110.445312 29.609375 110.546875 28.421875 110.546875 27.222656 C 110.546875 26.484375 110.507812 25.789062 110.429688 25.128906 C 110.414062 24.984375 108.089844 29.75 104.375 32.765625 C 106.960938 30.449219 110.332031 24.402344 110.285156 24.140625 C 110.246094 23.914062 110.199219 23.6875 110.148438 23.460938 C 109.703125 21.511719 108.902344 19.777344 107.808594 17.894531 C 107.46875 21.894531 106.289062 26.152344 103.183594 29.835938 C 106.40625 25.972656 107.527344 17.167969 106.757812 15.953125 C 103.667969 11.109375 97.164062 6.871094 90.195312 6.871094 L 90.148438 7 L 90.148438 6.878906 C 83.183594 6.878906 76.675781 11.117188 73.585938 15.964844 C 72.820312 17.175781 73.941406 25.980469 77.160156 29.847656 C 74.058594 26.164062 72.875 21.902344 72.535156 17.902344 C 71.445312 19.789062 70.640625 21.519531 70.199219 23.472656 C 70.148438 23.695312 70.101562 23.921875 70.058594 24.148438 C 70.011719 24.414062 73.386719 30.457031 75.972656 32.773438 C 72.253906 29.757812 69.929688 24.992188 69.914062 25.136719 C 69.835938 25.832031 69.796875 26.53125 69.796875 27.230469 C 69.796875 28.449219 69.90625 29.640625 70.109375 30.800781 C 70.300781 31.871094 74.621094 34.824219 74.734375 34.917969 C 71.59375 33.691406 70.296875 31.761719 70.414062 32.226562 C 72.644531 41.050781 80.632812 47.582031 90.148438 47.582031 L 90.148438 47.570312 L 90.195312 47.570312 C 99.710938 47.570312 107.703125 41.042969 109.929688 32.21875 C 110.046875 31.753906 108.75 33.683594 105.613281 34.910156 C 105.722656 34.816406 110.046875 31.863281 110.234375 30.792969 Z M 96.777344 31.574219 C 96.570312 31.664062 96.363281 31.742188 96.148438 31.796875 C 94.199219 32.332031 91.484375 32.136719 90.21875 30.476562 C 88.933594 28.800781 89.289062 26.082031 90.289062 24.367188 C 91.292969 22.636719 92.804688 21.347656 94.148438 19.890625 C 94.792969 19.195312 95.449219 18.511719 96.117188 17.835938 C 96.550781 17.398438 97.730469 16.460938 97.707031 15.832031 C 97.695312 15.535156 97.15625 15.011719 97.007812 14.730469 C 96.789062 14.324219 96.652344 13.914062 96.417969 13.523438 C 95.898438 12.664062 95.203125 12.269531 94.269531 12.082031 C 93.097656 11.851562 92.257812 11.957031 91.289062 12.605469 C 90.558594 13.09375 89.800781 14.003906 88.910156 14.101562 C 87.503906 14.253906 81.375 15.269531 81.085938 15.453125 C 81.839844 15.394531 91.082031 15.574219 92.128906 15.832031 C 93.359375 16.136719 93.304688 17.128906 92.46875 17.90625 C 89.839844 20.359375 85.96875 21.820312 84.316406 25.195312 C 83.546875 26.773438 83.050781 27.84375 83.046875 29.6875 C 83.046875 30.449219 83.105469 32.011719 84.046875 33.949219 C 84.003906 33.917969 82.5625 32.21875 82.503906 30.78125 C 79.027344 28.457031 77.257812 24.976562 77.257812 20.453125 C 77.257812 13.277344 83.019531 7.460938 90.125 7.460938 C 97.234375 7.460938 102.996094 13.277344 102.996094 20.453125 C 102.996094 25.167969 100.980469 29.535156 96.777344 31.574219 Z M 96.777344 31.574219 " fill-opacity="1" fill-rule="evenodd"/></g><path fill="#ffffff" d="M 90.683594 35.515625 L 89.003906 40.128906 C 88.035156 42.789062 83.929688 42.230469 83.785156 42.230469 C 83.445312 42.230469 83.1875 42.191406 82.929688 41.949219 L 83.542969 41.261719 C 83.691406 41.375 83.921875 41.441406 84.15625 41.441406 C 84.347656 41.441406 86.457031 41.898438 87.085938 40.128906 L 88.765625 35.515625 Z M 102.539062 41.300781 L 102.253906 42.078125 L 96.480469 42.078125 L 98.867188 35.515625 L 100.804688 35.515625 L 98.699219 41.300781 Z M 93.925781 35.53125 L 88.808594 42.09375 L 89.804688 42.09375 L 91.097656 40.3125 L 93.417969 40.3125 L 93.03125 42.09375 L 95.074219 42.09375 L 96.640625 35.53125 Z M 91.773438 39.382812 L 94.414062 36.152344 L 93.6875 39.382812 Z M 91.773438 39.382812 " fill-opacity="1" fill-rule="evenodd"/></svg>