<svg xmlns="http://www.w3.org/2000/svg" width="240" height="80" version="1.0" viewBox="0 0 180 67.92"><defs><clipPath id="a"><path d="M6.098 11.473h167.804V48.18H6.098Zm0 0"/></clipPath></defs><g clip-path="url(#a)"><path fill="#fff" fill-rule="evenodd" d="M6.098-51.426h167.804V116.38H6.098Zm0 0"/></g><path fill="#2d509f" fill-rule="evenodd" d="M59.742 24.094s-8.105.605-12.472.203c0 0-.52-.145-.66.46 0 0-.29.458.171.774.457.317 1.782 1.094 1.782 3.965v5.547s.257 3.047-1.84 4.2c0 0-.43.14-.2.745 0 0 .028.547.633.457.602-.082 3.992-.343 8.649-.027 0 0 .402.027.52-.23.112-.258.144-.286.144-.286s.402-.402-.203-.804c-.602-.403-1.61-1.008-1.696-3.567-.086-2.558 0-2.613 0-2.613h.375s1.293-.117 2.153 1.836c0 0 1.668 4.027 1.925 4.516.262.488.75 1.523 2.559 1.351 1.813-.176 10.262-.777 19.23.027 0 0 .977.145 1.348-.804 0 0 1.555-4.168 1.926-4.828 0 0 3.277-.086 5.059-.059 0 0 .66 1.121.66 2.473a1.69 1.69 0 0 1-1.176 1.668s-.488.199-.262.804c0 0 .086.575.664.516.574-.055 5.719-.543 13.477-.055 0 0 .52.2.691-.488 0 0 .317-.547-.23-.809 0 0-2.04-.457-2.04-3.707 0-3.246.028-5.547.028-5.547s1.55 2.215 3.39 5.52 2.817 4.715 2.817 4.715.922 1.781 2.73.832c1.813-.95 3.766-2.04 4.887-2.816 0 0 .43-.204.2-.747l-.172-.347s-.028-.2-.633-.258c0 0-1.352.316-1.38-1.61-.026-1.925-.112-4.656 0-7.44 0 0 .056-1.727 1.638-2.216 0 0 .574-.058.316-.746l-.172-.347s0-.286-.402-.227c-.403.055-2.645.258-5.028.055 0 0-.52 0-.578.574 0 0-.144.52.262.691.398.172 1.809.688 1.895 2.903.09 2.21.117 5.285.117 5.285s-3.278-4.824-5.375-8.531c0 0-.344-1.008-1.582-.922-1.235.086-4.196.23-6.352.027 0 0-.601-.086-.687.605 0 0-.172.602.343.864 0 0 1.723 1.09 1.723 1.465s-.027 8.015-.027 8.015.144 3.137-.692 2.735c0 0-.488.312-1.668-1.84-1.175-2.156-2.699-5.23-5.172-11.211 0 0-.515-1.664-1.578-1.664 0 0-.632.027-1.293.402-.664.371-2.761 1.55-4.945 2.184 0 0-.574.172-.402.746 0 0-.086.43.547.66.632.23 1.18.488 1.351.805 0 0-.664 2.125-1.87 4.312-1.208 2.184-2.759 5.805-7.212 5.805H74.2s-.46.058-.46-.574v-4.63h1.148s1.87-.402 2.761 2.016c0 0 .172.746.805.457 0 0 .719-.086.66-.804-.058-.72-.113-2.672.032-4.395 0 0 .054-.52-.52-.633 0 0-.46-.23-.805.145-.343.371-1.062 1.262-2.703 1.262H73.77v-4.309s-.032-.29.171-.316c.2-.028 2.7-.633 4.168.546 1.465 1.176 1.551 1.665 1.868 2.098 0 0 .289.719 1.035.23 0 0 .574-.09.285-.976-.285-.89-.371-1.21-.863-3.45 0 0-.086-.948-1.063-.862-.976.085-7.098.804-12.844.343 0 0-.605-.144-.718.489 0 0-.262.433.226.835 0 0 1.695.774 1.695 3.766v5s.29 3.965-1.12 3.965c0 0-.602.258-1.637-1.781-1.035-2.043-1.094-2.098-1.094-2.098s-.832-2.672-4.426-2.789c0 0 4.973-.832 4.516-4.57 0 0-.086-2.844-3.824-2.957h-.403Zm-5.203 7.043V28.32s.031-2.097 1.695-2.097c1.668 0 1.457 2.039 1.473 2.297.012.261-.094 2.617-3.168 2.617m30.41 1.894s1.063-2.5 1.524-3.215c0 0 1.293 1.782 1.754 3.247-.004 0-1.47.23-3.278-.032m55.586 1.239s.113 3.765-1.297 3.503c0 0-.488.317-1.668-1.836-1.175-2.156-2.699-5.23-5.172-11.21 0 0-.515-1.668-1.578-1.668 0 0-.632.03-1.293.402-.66.375-2.761 1.555-4.945 2.187 0 0-.574.172-.402.747 0 0-.086.43.547.66.632.23 1.18.488 1.351.804 0 0-.664 2.125-1.867 4.309-1.211 2.187-2.273 5.375-5.117 6.812 0 0-.555.118-.375.778.203.746.574.547.574.547 3.305-.344 4.312-.059 5.059 0s.632-.547.632-.547c.204-.375-.054-.602-.054-.602l-.317-.402s-1.238-.316.516-3.852c0 0 3.277-.09 5.058-.058 0 0 .66 1.12.66 2.472s-1.175 1.664-1.175 1.664-.488.204-.262.81c0 0 .09.573.664.515.574-.059 10.117-.457 17.875.027 0 0 .547.031.692-.457 0 0 .316-.605-.23-.95 0 0-1.524-.69-1.638-3.132-.117-2.441-.09-7.07-.09-7.07s-.113-2.586 1.524-3.391c0 0 .43-.203.203-.777 0 0-.117-.547-.637-.489-.515.059-5.945.344-8.503.028 0 0-.575-.028-.688.46 0 0-.289.462.2.837.488.37 1.753 1.234 1.753 3.906Zm-13.02-4.657c1.551 2.211 1.75 3.246 1.75 3.246-1.234.2-3.273-.027-3.273-.027.602-1.61 1.524-3.219 1.524-3.219m35.895-5.75s-6.324.746-12.187.172c0 0-.746-.2-.832.578 0 0-.059.516.257.719.317.2 1.614.977 1.696 3.68.09 2.699.144 1.925.09 5.601 0 0 .226 3.535-1.786 4.399 0 0-.515.117-.226.863 0 0 .168.574.66.371 0 0 4.711-.312 8.793.031 0 0 .46.172.605-.43 0 0 .372-.406-.203-.835-.574-.43-1.609-1.18-1.722-2.989-.114-1.812-.086-3.25-.086-3.25h.402s1.352-.171 2.27 1.957a184 184 0 0 1 1.55 3.676s.602 1.7 1.582 2.246c0 0 .403.371 1.895.2 0 0 2.445-.145 4.86-1.266 0 0 .546-.113.37-.746 0 0 .118-.488-.57-.633-.691-.145-1.21-.805-1.7-1.781a226 226 0 0 0-1.233-2.414s-1.008-2.5-4.286-2.532c0 0 4.516-.773 4.516-4.164 0-3.394-4.023-3.449-4.023-3.449h-.692Zm-4.941 7.157v-2.817s.054-2.098 1.636-2.098c1.583 0 1.61 1.778 1.528 2.36-.086.578-.235 2.555-3.164 2.555m0 0"/><path fill="#fff" fill-rule="evenodd" d="M46.398 32.477c0 5.261-4.261 9.527-9.523 9.527a9.527 9.527 0 0 1 0-19.055c5.262 0 9.523 4.266 9.523 9.528m0 0"/><path fill="#cc2229" fill-rule="evenodd" d="M40.965 26.734c.418.13.816.293 1.203.496q.574.305 1.09.704.51.404.945.894c.285.324.543.676.766 1.047q.334.563.562 1.172.23.609.34 1.254a7.2 7.2 0 0 1-.023 2.586l-.012.062a8 8 0 0 1-1.453 3.395l-.016.011a9.47 9.47 0 0 0 2.035-5.882c0-5.262-4.265-9.532-9.53-9.532a9.4 9.4 0 0 0-3.349.606 9.4 9.4 0 0 0-2.918 1.742l-.02.02a6.5 6.5 0 0 0-1.589 2.214 6.6 6.6 0 0 0-.558 2.668c0 .801.14 1.567.402 2.278l.012.035c.199.434.464.828.8 1.172q.497.521 1.141.844a4.218 4.218 0 0 0 4.098-.18 4.2 4.2 0 0 0 1.754-2.18q.241-.679.242-1.398l-.012-1.809c0-.836.46-1.558 1.145-1.93l.007-.003q1.407-.776 2.938-.286m0 0"/><path fill="#2d509f" fill-rule="evenodd" d="M29.574 38.605a9.4 9.4 0 0 0 3.274 2.516 9.3 9.3 0 0 0 4.03.89 9.5 9.5 0 0 0 6.263-2.347l.023-.016a6.6 6.6 0 0 0 1.586-2.214 6.6 6.6 0 0 0 .563-2.668c0-.801-.145-1.57-.403-2.282l-.015-.03a4.185 4.185 0 0 0-1.941-2.016 4.3 4.3 0 0 0-1.356-.415 4.3 4.3 0 0 0-1.422.063 4.2 4.2 0 0 0-1.317.531q-.61.375-1.062.938a4.2 4.2 0 0 0-.695 1.238 4.3 4.3 0 0 0-.239 1.398L36.875 36c0 .836-.465 1.559-1.148 1.93l-.008.004a3.6 3.6 0 0 1-1.801.46c-.395 0-.777-.058-1.133-.171l-.004-.004a7.16 7.16 0 0 1-3.238-2.09 7.2 7.2 0 0 1-1.328-2.219 7.1 7.1 0 0 1-.313-3.844l.008-.062a8 8 0 0 1 1.457-3.39l.012-.016a9.4 9.4 0 0 0-1.512 2.77 9.4 9.4 0 0 0-.52 3.112c0 1.532.36 2.98 1 4.258l-.077.063s-.375.285-1.122-.578c-.746-.864-5.144-6.18-5.144-6.18s2.789-2.988 5.52-4.195c0 0 .714-.23.542-.86l-.113-.375s-.027-.402-.66-.316-3.625.316-6.613.027c0 0-.457 0-.633.375 0 0-.285.488 0 .778.289.285 1.324 1.003 1.324 1.98 0 0 .23.719-1.351 1.871-1.582 1.149-2.56 1.895-3.22 2.238l.028-2.699s-.086-2.27 1.555-3.336c0 0 .402-.172.258-.543l-.118-.289s-.085-.46-.574-.402c0 0-2.844.316-8.504.058 0 0-.375-.03-.52.258l-.113.23s-.203.516.114.747c.316.23 1.64 1.004 1.695 3.39 0 0 .145 4.512-.055 6.266-.203 1.754-.347 2.758-1.754 3.996 0 0-.374.285-.203.719l.204.371s.14.29.632.23c.489-.054 4.024-.402 8.504-.054 0 0 .317.113.461-.203l.203-.403s.23-.402-.203-.718c-.43-.313-1.582-1.235-1.61-3.016-.027-1.781-.027-2.902-.027-2.902s.774.316 4.915 6.437c0 0 1.464 2.645 4.57 1.004 0 0 2.27-1.234 3.219-2.039Zm0 0"/></svg>