<svg xmlns="http://www.w3.org/2000/svg" xmlns:xlink="http://www.w3.org/1999/xlink" width="240" zoomAndPan="magnify" viewBox="0 0 180 67.92" height="80" preserveAspectRatio="xMidYMid meet" version="1.0"><defs><clipPath id="e693af9c14"><path d="M 51.203125 7.390625 L 129.109375 7.390625 L 129.109375 52.339844 L 51.203125 52.339844 Z M 51.203125 7.390625 " clip-rule="nonzero"/></clipPath></defs><g clip-path="url(#e693af9c14)"><path fill="#00a1e4" d="M 88.710938 7.402344 L 91.160156 7.402344 C 91.179688 8.21875 91.179688 9.035156 91.179688 9.875 L 93.628906 9.875 C 93.628906 10.691406 93.628906 11.484375 93.605469 12.304688 C 92.804688 12.304688 91.980469 12.304688 91.179688 12.304688 L 91.179688 14.6875 C 90.378906 14.730469 89.578125 14.730469 88.753906 14.730469 C 88.753906 13.914062 88.753906 13.121094 88.753906 12.304688 C 87.929688 12.304688 87.105469 12.304688 86.304688 12.304688 C 86.285156 11.507812 86.285156 10.691406 86.285156 9.875 L 88.753906 9.875 C 88.730469 9.058594 88.820312 8.21875 88.710938 7.402344 Z M 74.554688 14.222656 C 77.023438 13.628906 79.71875 15.660156 79.671875 18.199219 C 79.851562 20.425781 77.914062 22.503906 75.664062 22.546875 C 73.664062 22.722656 71.703125 21.265625 71.304688 19.324219 C 70.679688 17.117188 72.304688 14.644531 74.554688 14.222656 Z M 84.347656 14.222656 C 86.816406 13.648438 89.511719 15.679688 89.445312 18.21875 C 89.644531 20.492188 87.550781 22.613281 85.257812 22.570312 C 83.234375 22.65625 81.34375 21.089844 81.03125 19.101562 C 80.585938 16.9375 82.164062 14.621094 84.347656 14.222656 Z M 94.140625 14.222656 C 96.523438 13.671875 99.128906 15.546875 99.214844 18 C 99.417969 19.65625 98.460938 21.332031 96.96875 22.082031 C 95.410156 22.921875 93.339844 22.613281 92.046875 21.398438 C 90.625 20.074219 90.3125 17.734375 91.402344 16.101562 C 92.003906 15.152344 93.007812 14.445312 94.140625 14.222656 Z M 103.957031 14.222656 C 106.09375 13.738281 108.410156 15.195312 108.898438 17.3125 C 109.320312 18.949219 108.675781 20.78125 107.296875 21.773438 C 106.003906 22.722656 104.15625 22.855469 102.753906 22.0625 C 101.21875 21.265625 100.308594 19.476562 100.574219 17.800781 C 100.773438 16.054688 102.199219 14.53125 103.957031 14.222656 Z M 75.355469 28.683594 C 75.289062 27.007812 75.308594 25.304688 75.332031 23.628906 C 85.125 23.652344 94.898438 23.628906 104.691406 23.652344 L 104.691406 28.683594 C 94.921875 28.660156 85.125 28.640625 75.355469 28.683594 Z M 51.203125 32.96875 L 58.613281 32.96875 L 58.613281 40.007812 C 61.0625 37.691406 63.46875 35.308594 65.917969 32.96875 L 73.394531 32.96875 C 70.523438 35.859375 67.5625 38.683594 64.714844 41.597656 C 68.296875 45.042969 71.769531 48.640625 75.398438 52.042969 C 75.421875 45.683594 75.398438 39.324219 75.421875 32.96875 L 83.011719 32.96875 L 83.011719 47.449219 C 87.039062 47.425781 91.070312 47.472656 95.121094 47.425781 C 95.164062 49.0625 95.121094 50.695312 95.144531 52.328125 C 85.328125 52.328125 75.53125 52.328125 65.714844 52.328125 C 63.402344 49.988281 61.042969 47.691406 58.703125 45.375 C 58.660156 47.691406 58.703125 50.011719 58.683594 52.328125 C 56.1875 52.308594 53.695312 52.328125 51.203125 52.308594 Z M 97.191406 32.96875 C 101.265625 32.945312 105.335938 32.988281 109.390625 32.945312 C 110.679688 36.410156 111.792969 39.921875 113.015625 43.433594 C 113.128906 43.277344 113.261719 43.144531 113.304688 42.96875 C 114.464844 39.632812 115.644531 36.324219 116.824219 32.988281 L 129.089844 32.988281 L 129.089844 52.351562 C 126.59375 52.371094 124.082031 52.371094 121.566406 52.371094 C 121.566406 47.914062 121.585938 43.453125 121.542969 38.996094 C 121.1875 39.191406 121.164062 39.632812 121.007812 39.964844 C 119.5625 44.117188 118.070312 48.222656 116.601562 52.371094 C 114.242188 52.371094 111.882812 52.394531 109.542969 52.351562 C 108.074219 48.113281 106.539062 43.917969 105.046875 39.679688 C 105.003906 39.4375 104.871094 39.257812 104.648438 39.148438 L 104.648438 52.351562 C 102.15625 52.351562 99.640625 52.351562 97.144531 52.351562 C 97.191406 45.859375 97.191406 39.414062 97.191406 32.96875 Z M 97.191406 32.96875 " fill-opacity="1" fill-rule="nonzero"/></g></svg>