<svg xmlns="http://www.w3.org/2000/svg" xmlns:xlink="http://www.w3.org/1999/xlink" width="240" zoomAndPan="magnify" viewBox="0 0 180 67.92" height="80" preserveAspectRatio="xMidYMid meet" version="1.0"><defs><clipPath id="14768a4d1d"><path d="M 6.097656 15.652344 L 173.902344 15.652344 L 173.902344 44.117188 L 6.097656 44.117188 Z M 6.097656 15.652344 " clip-rule="nonzero"/></clipPath></defs><g clip-path="url(#14768a4d1d)"><path fill="#efae00" d="M 34.925781 29.921875 C 34.925781 37.800781 28.539062 44.117188 20.617188 44.117188 C 12.730469 44.117188 6.34375 37.800781 6.34375 29.953125 C 6.34375 21.933594 12.730469 15.652344 20.859375 15.652344 C 28.574219 15.652344 34.925781 22.109375 34.925781 29.921875 Z M 7.808594 29.921875 C 7.808594 36.96875 13.53125 42.625 20.617188 42.625 C 27.667969 42.625 33.425781 37.003906 33.425781 29.953125 C 33.425781 22.769531 27.773438 17.144531 20.511719 17.144531 C 13.566406 17.144531 7.808594 22.90625 7.808594 29.921875 Z M 17.476562 29.328125 L 17.300781 29.675781 C 16.671875 29.539062 15.453125 29.085938 14.195312 28.53125 L 14.019531 28.84375 L 14.542969 29.121094 C 16.359375 30.058594 16.988281 30.265625 18 30.265625 C 20.128906 30.265625 21.734375 29.085938 22.5 26.96875 C 23.792969 26.691406 25.46875 26.585938 27.492188 26.585938 C 29.203125 26.585938 30.667969 26.65625 32.589844 26.898438 L 32.097656 27.488281 C 31.226562 27.386719 29.585938 27.28125 28.433594 27.28125 C 27.003906 27.28125 26.167969 27.28125 25.675781 27.316406 L 25.46875 27.835938 C 26.621094 27.769531 27.039062 27.769531 27.945312 27.769531 C 29.515625 27.769531 30.738281 27.835938 31.75 27.90625 L 31.261719 28.566406 C 29.445312 28.496094 28.644531 28.460938 27.28125 28.460938 C 26.550781 28.460938 25.992188 28.496094 25.121094 28.53125 L 24.875 29.050781 C 25.644531 28.984375 26.726562 28.949219 27.808594 28.949219 C 28.890625 28.949219 30.144531 28.984375 30.878906 29.015625 L 30.390625 29.640625 C 29.867188 29.609375 28.886719 29.609375 28.121094 29.609375 C 26.898438 29.609375 25.328125 29.675781 24.5625 29.78125 L 24.316406 30.234375 C 25.78125 30.09375 26.691406 30.023438 28.296875 30.023438 C 28.921875 30.023438 29.308594 30.023438 30.039062 30.09375 L 29.480469 30.753906 C 28.503906 30.683594 28.191406 30.683594 27.808594 30.683594 C 25.121094 30.683594 23.339844 31.066406 21.558594 32.074219 C 23.199219 33.703125 25.886719 34.816406 28.328125 34.816406 C 28.539062 34.816406 28.644531 34.816406 29.167969 34.78125 L 28.015625 35.960938 C 21.558594 34.257812 20.40625 33.808594 14.472656 30.300781 C 12.136719 28.984375 10.21875 28.082031 8.679688 27.628906 L 8.890625 26.898438 C 9.238281 26.96875 10.042969 27.179688 10.773438 27.457031 L 11.125 26.65625 L 17.476562 29.328125 M 159.523438 35.683594 C 159.523438 33.632812 160.847656 32.175781 163.464844 31.449219 C 163.886719 31.34375 165.210938 31.03125 167.480469 30.648438 C 168.421875 30.441406 168.804688 30.164062 168.804688 29.46875 C 168.804688 28.703125 168.003906 28.21875 166.816406 28.21875 C 165.386719 28.21875 164.476562 28.914062 164.476562 30.09375 L 160.394531 30.09375 C 160.394531 27.003906 162.839844 25.164062 166.921875 25.164062 C 171.179688 25.164062 173.238281 26.933594 173.238281 30.511719 L 173.238281 37.488281 C 173.238281 38.667969 173.238281 38.667969 173.65625 39.398438 L 169.46875 39.398438 L 169.226562 38.25 C 167.585938 39.570312 166.574219 39.953125 164.792969 39.953125 C 161.722656 39.953125 159.523438 38.148438 159.523438 35.683594 M 167.722656 33.21875 C 167.234375 33.289062 166.675781 33.425781 166.082031 33.566406 C 164.617188 33.945312 163.917969 34.535156 163.917969 35.40625 C 163.917969 36.308594 164.582031 36.792969 165.734375 36.792969 C 167.933594 36.792969 168.945312 35.820312 168.945312 33.808594 L 168.945312 32.871094 C 168.386719 33.042969 168.179688 33.042969 167.722656 33.21875 M 145.246094 34.847656 L 149.644531 34.847656 L 149.644531 35.023438 C 149.644531 36.167969 150.589844 36.863281 152.089844 36.863281 C 153.378906 36.863281 154.183594 36.378906 154.183594 35.613281 C 154.183594 34.816406 153.449219 34.328125 151.703125 34.050781 L 150.273438 33.808594 C 147.027344 33.253906 145.632812 32.074219 145.632812 29.921875 C 145.632812 26.933594 148.109375 25.164062 152.195312 25.164062 C 155.054688 25.164062 156.835938 25.929688 157.742188 27.59375 C 158.125 28.253906 158.195312 28.496094 158.300781 29.988281 L 154.113281 29.988281 C 154.007812 28.703125 153.449219 28.21875 152.089844 28.21875 C 150.972656 28.21875 150.273438 28.636719 150.273438 29.363281 C 150.273438 30.023438 150.9375 30.40625 152.4375 30.648438 L 153.972656 30.925781 C 157.21875 31.480469 158.71875 32.871094 158.71875 35.230469 C 158.71875 38.113281 156.277344 39.953125 152.367188 39.953125 C 147.761719 39.953125 145.246094 38.148438 145.246094 34.847656 M 115.792969 35.683594 C 115.792969 33.632812 117.152344 32.175781 119.769531 31.449219 C 120.1875 31.34375 121.515625 31.066406 123.75 30.648438 C 124.726562 30.441406 125.109375 30.164062 125.109375 29.46875 C 125.109375 28.703125 124.308594 28.21875 123.085938 28.21875 C 121.65625 28.21875 120.78125 28.878906 120.746094 30.09375 L 116.664062 30.09375 C 116.664062 27.003906 119.105469 25.164062 123.15625 25.164062 C 127.414062 25.164062 129.542969 26.933594 129.542969 30.511719 L 129.542969 37.488281 C 129.542969 38.667969 129.542969 38.667969 129.890625 39.398438 L 125.738281 39.398438 L 125.492188 38.25 C 124.0625 39.5 122.839844 39.953125 121.0625 39.953125 C 118.023438 39.953125 115.792969 38.148438 115.792969 35.683594 M 124.027344 33.21875 C 123.46875 33.320312 122.980469 33.460938 122.386719 33.566406 C 120.921875 33.945312 120.222656 34.535156 120.222656 35.40625 C 120.222656 36.308594 120.921875 36.792969 122.039062 36.792969 C 124.167969 36.792969 125.214844 35.820312 125.214844 33.808594 L 125.214844 32.871094 C 124.621094 33.042969 124.445312 33.042969 124.027344 33.21875 M 68.363281 37.59375 C 67.769531 36.585938 67.664062 36.066406 67.664062 33.808594 L 67.664062 25.753906 L 72.164062 25.753906 L 72.164062 33.636719 C 72.164062 35.648438 72.722656 36.445312 74.15625 36.445312 C 75.621094 36.445312 76.390625 35.507812 76.390625 33.636719 L 76.390625 25.753906 L 80.855469 25.753906 L 80.855469 39.398438 L 76.773438 39.398438 L 76.632812 38.042969 C 75.515625 39.222656 74.257812 39.746094 72.6875 39.746094 C 70.769531 39.746094 69.164062 38.980469 68.363281 37.59375 M 139.769531 39.398438 L 139.769531 31.65625 C 139.769531 29.640625 139.175781 28.808594 137.78125 28.808594 C 136.3125 28.808594 135.582031 29.746094 135.582031 31.65625 L 135.582031 39.398438 L 131.113281 39.398438 L 131.113281 25.753906 L 135.195312 25.753906 L 135.335938 27.28125 C 136.382812 25.929688 137.640625 25.335938 139.316406 25.335938 C 141.234375 25.335938 142.769531 26.171875 143.574219 27.59375 C 144.167969 28.636719 144.234375 29.226562 144.234375 31.480469 L 144.234375 39.398438 L 139.769531 39.398438 M 110.3125 39.398438 L 110.3125 31.65625 C 110.3125 29.675781 109.683594 28.808594 108.324219 28.808594 C 106.855469 28.808594 106.125 29.746094 106.125 31.65625 L 106.125 39.398438 L 101.621094 39.398438 L 101.621094 20.410156 L 106.125 20.410156 L 106.125 27.28125 C 106.925781 25.929688 108.113281 25.335938 109.824219 25.335938 C 111.707031 25.335938 113.242188 26.136719 114.082031 27.59375 C 114.675781 28.636719 114.746094 29.191406 114.746094 31.480469 L 114.746094 39.398438 L 110.3125 39.398438 M 97.292969 39.398438 C 94.640625 39.398438 93.421875 38.148438 93.421875 35.40625 L 93.421875 28.738281 L 91.535156 28.738281 L 91.535156 25.753906 L 93.421875 25.753906 L 93.421875 21.449219 L 97.886719 21.449219 L 97.886719 25.753906 L 100.433594 25.753906 L 100.433594 28.738281 L 97.886719 28.738281 L 97.886719 34.15625 C 97.921875 36.167969 98.0625 36.273438 99.773438 36.273438 L 100.644531 36.273438 L 100.644531 39.398438 L 97.292969 39.398438 M 83.71875 39.398438 L 83.71875 28.738281 L 81.761719 28.738281 L 81.761719 25.753906 L 83.71875 25.753906 L 83.71875 25.335938 C 83.71875 21.726562 85.078125 20.40625 88.570312 20.40625 L 91.011719 20.40625 L 91.011719 23.429688 L 90.277344 23.429688 C 88.605469 23.429688 88.183594 23.808594 88.183594 25.339844 L 88.183594 25.753906 L 90.835938 25.753906 L 90.835938 28.738281 L 88.183594 28.738281 L 88.183594 39.398438 L 83.71875 39.398438 M 53.980469 39.398438 L 53.980469 20.40625 L 58.730469 20.40625 L 58.730469 35.648438 L 66.789062 35.648438 L 66.789062 39.398438 L 53.984375 39.398438 " fill-opacity="1" fill-rule="nonzero"/></g></svg>