<svg xmlns="http://www.w3.org/2000/svg" width="240" height="80" version="1.0" viewBox="0 0 180 67.92"><defs><clipPath id="a"><path d="M6.2 12H49v36H6.2Zm0 0"/></clipPath></defs><path fill="#1b1d80" fill-rule="evenodd" d="M50.625 24.883c-14.703.406-28.934 3.754-30.258 8.496-.12.43-.148.855-.148 1.289 0 4.672 9.726 6.273 20.258 7.59.18.02.171-.125.113-.23-.04-.071-.2-.352-.305-.544-.043-.074-.09-.125-.238-.168-5.762-1.468-11.613-3.617-11.613-5.62 0-3.79 9.804-7.54 20.968-9.258.368-.07.543-.137.793-.336.309-.247.992-.805 1.278-1.036.187-.156.12-.207.05-.207zm0 0"/><g clip-path="url(#a)"><path fill="#df0011" fill-rule="evenodd" d="M34.36 47.754c-7.637-1.922-15.208-8.348-14.016-14.3 1.742-8.688 13.394-17.102 27.937-21.06.328-.097.45-.312.028-.312H28.46c-3.434 0-4.18.445-5.512 2.25-.707.961-6.648 9.172-9.328 12.875-.344.441-.832.914-1.914.914H6.918q-.001.002.004.004c5.676 16.074 11.77 19.863 17.875 19.863h9.64c.137 0 .27-.148-.078-.234"/></g><path fill="#df0011" fill-rule="evenodd" d="M125.824 15.426v1.379h-6.039c-.566 0-1.023.457-1.023 1.027 0 .566.457 1.027 1.023 1.027 0 0 2.531-.027 2.953-.03l-.008 2.51c-.14 3.99-1.996 6.407-2.793 7.434l-.214.29a1.028 1.028 0 0 0 .633 1.832c.312 0 .66-.149.843-.356-.011.004.02-.012.02-.012.726-.578 3.133-2.847 3.594-7.98h6.511a98 98 0 0 1-.09 3.77c-.105 2.581-1.886 2.519-2.746 2.484h-.054c-.75-.078-1.875-.356-1.883-.356l-.274-.03c-.566 0-1.023.456-1.023 1.026 0 .473.316.883.777.997 0 .011 1.086.382 2.094.398l.2.004c1.284.02 2.738.039 3.76-.953.864-.844 1.298-2.278 1.325-4.383a75 75 0 0 0 .067-3.055c0-.246 0-.437-.008-.531-.043-.809-.656-1.418-1.414-1.418l-7.137-.008v-1.664l9.148.031a1.028 1.028 0 0 0 0-2.054h-6.097v-1.407c0-.539-.5-.996-1.086-.996-.574 0-1.059.473-1.059 1.028m33.278 8.574a1.03 1.03 0 0 0 0 2.059h5.082v2.609h-6.055a1.03 1.03 0 0 0 0 2.058h14.133a1.03 1.03 0 0 0 1.023-1.03 1.03 1.03 0 0 0-1.023-1.028h-5.973v-2.61h5.086a1.029 1.029 0 0 0 0-2.059Zm5.07-8.544v.688h-5.27a1.44 1.44 0 0 0-1.422 1.43l.004.035v2.063a1.024 1.024 0 1 0 2.047 0v-1.473h2.387c.012.067.023.18.023.332a3 3 0 0 1-.105.79c-.297 1.038-1.348 1.765-3.133 2.152l-.07.015a.99.99 0 0 0-.903.992c0 .555.493 1.028 1.079 1.028l.113-.012c3.976-.367 5.031-2.441 5.226-4.125.047-.469.055-.977.055-1.172v-.012l2.008.012v3.735a1.41 1.41 0 0 0 1.383 1.41h2.98c1.547 0 2.2-1.078 2.207-1.086.117-.172.18-.442.188-.637.031-.496-.188-.629-.418-.773l-.051-.036q-.55-.346-1.2.215c-.507.438-.937.367-.945.367l-1.742-.003s-.164.003-.265-.102q-.096-.088-.098-.262l.008-2.828h2.758l-.223.828c-.016.078-.031.16-.031.242a1.01 1.01 0 0 0 .785.969c.555.13 1.2-.262 1.328-.805.02-.046.41-1.136.398-1.765-.015-1.004-.5-1.504-1.48-1.527l-5.543.007v-.691c0-.559-.48-1.027-1.055-1.027-.566 0-1.02.46-1.02 1.027m-74.632 1.937c-.145.16-.2.383-.176.657l.004.02c0 .01.016.179.027.284l-4.714.012c-.426 0-.899.336-.899.817 0 .449.39.82.852.82l4.98.012c.297 1.875.695 3.453 1.203 4.812a27 27 0 0 1-1.492 2.129c-.113.121-.21.5-.21.785 0 .117.01.219.05.281a.79.79 0 0 0 .582.41c.273.032.55-.078.785-.312.227-.227.36-.437.559-.762 0 0 .426-.648.52-.797.48.938.902 1.559.91 1.563a.85.85 0 0 0 .722.41.85.85 0 0 0 .762-.48l.039-.079c.14-.27.516-.988.77-2.476V25.5c.023-.324-.051-.586-.212-.77a.73.73 0 0 0-.52-.25c-.327-.011-.694.176-.776.57 0 0-.137.622-.211.938-.11-.246-.403-.914-.426-.957.781-1.304 1.316-2.511 1.644-3.691l.028-.305a.84.84 0 0 0-.281-.574.8.8 0 0 0-.594-.203.82.82 0 0 0-.742.59c-.004.007-.426 1.312-.813 2.105-.234-.781-.441-1.723-.648-2.933h2.742a.82.82 0 0 0 .812-.832.82.82 0 0 0-.812-.829h-.434q.007-.051.008-.086a.86.86 0 0 0-.207-.57l-.098-.121a.86.86 0 0 0-.593-.309.87.87 0 0 0-.645.204.47.47 0 0 0-.168.367v.011c0 .16.086.336.207.48-.191.005-.918.009-1.008.009-.011-.082-.054-.352-.054-.352-.067-.558-.344-.84-.84-.84-.266 0-.489.086-.637.246"/><path fill="#df0011" fill-rule="evenodd" d="M95.055 28.512q-.001.253-.254.254l-4.535-.008-6.473-.012q-.222.001-.223-.25l.008-11.203q-.002-.122.055-.18c.039-.039.097-.058.183-.058l11.016.004a.3.3 0 0 1 .203.062q.048.061.05.168Zm.566-13.41-12.574.003a1.437 1.437 0 0 0-1.41 1.43v12.73c.004.786.636 1.43 1.41 1.446H95.62a1.44 1.44 0 0 0 1.426-1.434c.004 0 .004-12.746.004-12.746 0-.789-.64-1.43-1.43-1.43m0 0"/><path fill="#df0011" fill-rule="evenodd" d="M85.594 23.656h2.383v-1.601h-2.383Zm3.836-2.676a.755.755 0 0 0-.7-.484h-3.89c-.23 0-.45.11-.594.29a.8.8 0 0 0-.172.5v3.144l.016.16c.07.363.383.625.746.625h3.894l.223-.035a.78.78 0 0 0 .543-.746v-3.149a.7.7 0 0 0-.066-.305m-1.309 4.567c-.02.004-1.984.637-3.332.621-.637-.008-.953.434-.98.84a.73.73 0 0 0 .218.535c.2.21.489.348.739.352 2.312.015 4.058-.762 4.07-.774h.004c.437-.203.8-.687.597-1.191-.296-.75-1.308-.387-1.316-.383M75.953 24.27c0 .046-.008.152-.062.214a.23.23 0 0 1-.172.063H71.19v-5.735h4.496q.137 0 .204.075c.046.047.05.117.05.144v.02l.012 5.195Zm-6.82.28-4.555-.003c-.02 0-.207-.008-.219-.254v-5.246a.26.26 0 0 1 .059-.168.23.23 0 0 1 .176-.067l4.539.012Zm7.531-7.792H71.2v-1.485c0-.574-.465-1.039-1.031-1.039-.574 0-1.035.465-1.035 1.04v1.484h-5.43c-.785 0-1.418.648-1.418 1.433v6.98a1.43 1.43 0 0 0 1.418 1.43s4.82.012 5.43.012v3.344a1.034 1.034 0 1 0 2.066 0v-3.336l5.461.008c.79 0 1.43-.64 1.43-1.43v-7.015c0-.79-.64-1.426-1.426-1.426m32.808 6.992v-1.012h4.086c0 .106-.012.903-.016 1.012Zm0-3.617h4.086c0 .105-.012.902-.016 1.008h-4.07zm-2.106 1.012h-4.129c0-.106 0-.903.004-1.012h4.125Zm0 2.613h-4.129c0-.11 0-.903.004-1.012h4.125Zm8.676 4.734c-.027-.012-2.777-1.164-5.422-3.02h3.399c.78 0 1.414-.632 1.414-1.41l-.008-.097v-.11c0-.652-.012-3.933-.012-3.933 0-.762-.594-1.379-1.352-1.41l-4.652-.004v-.961l6.078-.012c.575 0 1.024-.433 1.024-.988s-.469-1.008-1.035-1.008h-6.067v-.191a1.02 1.02 0 0 0-2.043 0v.191h-6.062c-.559 0-1.024.453-1.024 1.008s.465 1 1.024 1h6.062v.96h-4.664c-.894.036-1.41.552-1.41 1.427l-.008 4.105c.012.008.012.023.012.023 0 .782.633 1.415 1.41 1.415l3.371-.004c-1.926 1.437-5.445 2.933-5.484 2.949a1.026 1.026 0 0 0 .46 1.941l.262-.035c.047 0 3.786-1.129 6.04-3.59.003.293 0 3.407 0 3.407 0 .566.468 1.023 1.03 1.023s1.012-.457 1.012-1.023c0 0 .004-2.778 0-3.489 1.649 1.852 5.66 3.672 5.707 3.692.153.093.579.152.762.152.535 0 .953-.465.953-1.055 0-.43-.402-.777-.777-.953m32.27-8.992h-.13l-.05.008-.043.004c-.715 0-1.281.605-1.32 1.406v4.91c-.09 2.047-.946 3.246-1.122 3.469l-.039.047-.023.035c-.016.031-.176.336-.176.574a1 1 0 0 0 .992 1c.317 0 .61-.148.797-.398.004-.004 1.715-1.79 1.715-4.598v-.027c.004-.442-.023-4.348-.023-4.348h1.738v7.523c.012.832.523 1.668 1.488 1.665h1.223c.035.003 1.047.09 1.59-1.754 0-.008.035-.153.035-.153l.062-.379.004-.062c.016-.207.043-.64-.68-.863-.437-.137-.796.058-.964.515l-.106.293c-.082.281-.125.383-.273.395 0 0-.266.004-.383.004V20.91c0-.015-.035-1.328-1.375-1.41zm.191-4.137v1.203h-1.863c-.594 0-1.078.45-1.078 1 0 .551.484 1.004 1.078 1.004h6.336c.59 0 1.074-.453 1.074-1.004s-.485-1-1.074-1h-2.47V15.36c0-.55-.448-1.007-1-1.007a1.01 1.01 0 0 0-1.003 1.011m-5.258 6.71-.926.004a.88.88 0 0 0 .215-.734l-.219-1.403a.85.85 0 0 0-.347-.586.8.8 0 0 0-.614-.125c-.414.082-.699.457-.699.891 0 .047 0 .098.008.145l.219 1.406c.023.16.082.289.156.406h-.875v-3.5l3.078-.008Zm2.133-.012h-.098v-4.53c0-.567-.449-1.028-.996-1.028l-1.652.004c.035-.13.176-.7.176-.7l.058-.156q.03-.124.031-.242a1 1 0 0 0-.14-.512.98.98 0 0 0-.613-.457.97.97 0 0 0-.754.114.97.97 0 0 0-.45.613s-.316 1.258-.34 1.348l-1.39.007c-.012-.007-.04-.007-.04-.007-.55 0-1 .464-1 1.03v4.536c-.566.004-1.026.445-1.026.988 0 .54.457.98 1.023.985-.004.105-.008.574-.008.574l-.008.101v.032q-.023 1.183-.14 2.18l-.008.097c-.23 1.941-.61 2.707-.613 2.715-.04.137-.067.277-.067.414a.993.993 0 0 0 1.895.414c.043-.082.492-.914.754-3.305l.015-.144c.075-.73.13-1.54.157-2.399 0-.004.011-.504.011-.68h.73v2.47c0 .535.337.925.802.925.464 0 .82-.398.82-.926v-2.48l.781-.004v4.777a.24.24 0 0 1-.082.196c-.207.175-.746.082-.95.043l-.112-.016c-.536.023-.903.414-.903.961 0 .438.164.578.34.723l.047.039c.242.207.644.226.695.222 1.29.051 1.992-.105 2.422-.52.371-.362.535-.944.535-1.874v-4.55h.098c.543 0 .945-.415.945-.99 0-.57-.402-.988-.945-.988m0 0"/><path fill="#1b1d80" fill-rule="evenodd" d="M93.14 35.809q-.255.309-.253.945v5.441L89.73 36.86c-.535-.906-1.085-1.367-1.636-1.367-.477 0-.817.117-1.004.344-.188.23-.278.64-.278 1.254v7.324c0 .434.079.758.247.957.168.203.441.309.8.309q.538 0 .801-.317c.176-.203.262-.523.262-.949v-5.422c.223.371 3.297 5.559 3.297 5.559.293.496.543.804.758.933.21.13.503.196.867.196.422 0 .726-.121.898-.356s.258-.633.258-1.219v-7.351c0-.426-.086-.75-.258-.953-.168-.207-.437-.309-.797-.309-.363 0-.629.102-.804.317m-10.176-.033c-.18.188-.27.477-.27.856v7.91c0 .371.098.652.274.848.18.191.449.289.797.289.355 0 .629-.098.808-.29.172-.187.262-.472.262-.847v-7.91c0-.375-.09-.664-.266-.852-.18-.191-.453-.289-.804-.289-.356 0-.621.098-.801.285m-4.113 0c-.172.188-.266.477-.266.856v2.648h-3.91v-2.648c0-.375-.086-.664-.27-.852-.176-.191-.449-.289-.8-.289-.356 0-.626.098-.801.285-.18.188-.266.477-.266.856v7.91c0 .371.086.652.266.848.175.191.445.289.8.289s.633-.098.805-.29c.18-.187.266-.472.266-.847v-3.328h3.91v3.328c0 .371.094.656.273.848s.45.289.801.289q.541-.001.813-.29c.175-.187.27-.472.27-.847v-7.91c0-.375-.095-.664-.278-.852q-.271-.288-.805-.289c-.355 0-.629.098-.808.285M63.54 36.785c-.833.945-1.255 2.281-1.255 3.965 0 1.566.418 2.816 1.238 3.723.825.902 1.973 1.359 3.407 1.359.68 0 1.285-.094 1.8-.273a4.5 4.5 0 0 0 1.465-.887c.282-.254.508-.535.676-.832.168-.309.258-.598.258-.852a.9.9 0 0 0-.3-.691 1 1 0 0 0-.735-.29q-.284.002-.52.138c-.144.082-.308.242-.48.464l-.156.27-.22.34q-.27.316-.698.492a2.6 2.6 0 0 1-.977.168c-.824 0-1.465-.285-1.906-.852-.45-.566-.676-1.386-.676-2.437 0-1.031.227-1.844.672-2.426.441-.574 1.055-.867 1.82-.867q.551-.002.98.18c.278.117.528.296.731.539l.191.277c.098.156.176.262.258.34.149.14.309.25.461.32.156.063.32.106.496.106q.463-.002.739-.286c.187-.187.277-.441.277-.746 0-.277-.086-.57-.266-.87a2.8 2.8 0 0 0-.726-.794 4.7 4.7 0 0 0-1.41-.761 5.2 5.2 0 0 0-1.63-.243c-1.495 0-2.675.48-3.515 1.426m35.688 4.977c.05-.153 1.16-3.57 1.27-3.903.105.328 1.222 3.75 1.269 3.903Zm5.664 2.718-.082-.273-2.75-7.64c-.172-.454-.352-.735-.555-.868-.207-.125-.524-.187-.969-.187-.469 0-.797.066-1 .199s-.379.426-.543.883l-2.699 7.613-.082.273-.02.27c0 .285.094.52.29.688.187.175.437.261.742.261.265 0 .48-.066.656-.191.172-.13.293-.324.383-.582 0 0 .363-1.149.433-1.36h3.7l.449 1.36q.127.393.379.59.252.181.644.183c.309 0 .563-.086.75-.261a.88.88 0 0 0 .301-.688s.004-.172-.027-.27m66.539-8.671q-.26.309-.262.945v5.441l-3.152-5.336c-.536-.906-1.086-1.367-1.637-1.367q-.716.002-1.004.344c-.187.23-.281.64-.281 1.254v7.324c0 .438.086.754.25.957.168.203.441.309.804.309q.534 0 .797-.317.263-.31.262-.949v-5.422c.223.367 3.293 5.559 3.293 5.559.297.496.547.804.766.93.207.132.504.199.867.199.418 0 .722-.121.894-.356s.258-.633.258-1.219v-7.351c0-.426-.09-.75-.254-.953q-.259-.31-.804-.309c-.356 0-.625.102-.797.317m-23.727-.184c-.473 0-.816.113-1.004.344-.187.23-.281.644-.281 1.261v6.727c0 .617.094 1.027.281 1.258.188.226.531.344 1.004.344h5.168q.557 0 .852-.243c.199-.168.304-.406.304-.722 0-.32-.101-.563-.293-.723q-.3-.239-.863-.238h-4.34v-2.406h3.66c.368 0 .645-.075.84-.227.203-.156.305-.383.305-.672 0-.3-.102-.535-.293-.683q-.288-.228-.852-.227h-3.66v-1.961h4.078q.562-.001.856-.23.3-.228.3-.672c0-.305-.1-.54-.3-.696-.195-.16-.48-.234-.856-.234Zm-9.629.02c-.34 0-.601.082-.777.234-.18.164-.274.394-.274.703 0 .305.09.54.266.695.168.149.438.223.785.223h1.969v7.043c0 .371.094.656.273.848q.271.29.805.289c.352 0 .621-.094.797-.29.176-.187.27-.472.27-.847V37.5h1.976c.34 0 .602-.074.774-.23.18-.157.265-.387.265-.688 0-.309-.086-.539-.266-.703-.171-.152-.433-.234-.773-.234Zm-26.57-.02c-.48 0-.813.113-1.008.344-.187.23-.281.644-.281 1.261v6.727c0 .617.094 1.027.281 1.258.195.226.527.344 1.008.344h5.16q.562 0 .856-.243.297-.25.296-.722c0-.32-.093-.563-.296-.719-.188-.164-.48-.242-.856-.242h-4.332v-2.406h3.656q.548 0 .836-.227c.203-.156.305-.383.305-.668 0-.305-.102-.539-.297-.687-.187-.153-.473-.227-.844-.227h-3.656v-1.961h4.074c.371 0 .66-.078.852-.23.195-.153.297-.375.297-.672 0-.305-.102-.54-.297-.696-.192-.156-.48-.234-.852-.234Zm18.176.535c-.664.531-1 1.274-1 2.219 0 .836.23 1.484.683 1.922s1.325.804 2.602 1.097l.137.032c1.601.37 2.414.836 2.414 1.386 0 .395-.149.688-.45.891-.308.203-.77.309-1.379.309-.382 0-.718-.059-1-.168a1.76 1.76 0 0 1-.69-.516l-.274-.39c-.317-.481-.664-.727-1.036-.727a.92.92 0 0 0-.707.297c-.175.195-.265.453-.265.758q0 .44.27.898c.175.305.421.566.714.781a4.7 4.7 0 0 0 1.363.672c.461.145 1.024.211 1.657.211 1.195 0 2.152-.293 2.847-.867.7-.574 1.047-1.367 1.047-2.36 0-.539-.097-1.007-.297-1.378q-.3-.572-.93-.93a5 5 0 0 0-.843-.356q-.487-.165-1.543-.43l-.625-.148c-1.078-.254-1.621-.625-1.621-1.105 0-.36.133-.63.406-.832.27-.196.672-.293 1.176-.293.351 0 .66.047.918.144q.376.147.625.442l.191.246c.34.445.7.672 1.067.672.285 0 .52-.09.699-.262q.26-.266.262-.695c0-.254-.094-.532-.27-.82a2.5 2.5 0 0 0-.695-.731 3.9 3.9 0 0 0-1.207-.57 5.4 5.4 0 0 0-1.48-.188c-1.176 0-2.106.266-2.766.79m31.238 3.452c-.227.2-.598.301-1.094.301h-2.297v-2.473h2.391c.441 0 .781.11 1.008.317.219.203.332.515.332.922 0 .43-.113.738-.34.933m2.293 4.13a4 4 0 0 1-.047-.595l-.039-.714c-.043-.457-.164-.82-.355-1.098-.176-.242-.426-.41-.735-.543a1.97 1.97 0 0 0 .977-.79c.254-.405.383-.921.383-1.53 0-.957-.266-1.684-.79-2.149-.523-.465-1.332-.699-2.414-.699h-3.52c-.476 0-.812.113-1 .344-.19.23-.284.644-.284 1.261v7.313q.001.555.265.848.271.29.805.289.534.002.805-.29.264-.282.265-.847v-2.797h2.067c.496 0 .844.086 1.027.258q.287.26.363 1.41c.07 1.02.192 1.637.383 1.89.188.255.508.391.95.391q.48-.001.773-.265c.191-.176.293-.414.293-.715 0-.09-.028-.246-.074-.473Zm-41.215-1.981c.05-.153 1.16-3.57 1.266-3.903.113.328 1.222 3.75 1.273 3.903Zm5.664 2.718-.082-.273-2.754-7.64c-.164-.454-.347-.735-.554-.868-.204-.125-.52-.187-.965-.187-.473 0-.797.066-1 .199s-.38.426-.54.883l-2.703 7.613-.082.273-.023.27c0 .285.102.52.29.688q.29.262.745.261c.266 0 .48-.066.656-.191q.25-.195.383-.582s.364-1.149.434-1.36h3.7l.448 1.36q.125.393.38.59c.163.12.382.183.644.183.308 0 .562-.086.75-.261.199-.176.3-.41.3-.688 0 0 0-.172-.027-.27m0 0"/></svg>