<svg xmlns="http://www.w3.org/2000/svg" xmlns:xlink="http://www.w3.org/1999/xlink" width="240" zoomAndPan="magnify" viewBox="0 0 180 67.92" height="80" preserveAspectRatio="xMidYMid meet" version="1.0"><defs><clipPath id="bae96f8451"><path d="M 23.484375 2.277344 L 156.828125 2.277344 L 156.828125 57.710938 L 23.484375 57.710938 Z M 23.484375 2.277344 " clip-rule="nonzero"/></clipPath></defs><g clip-path="url(#bae96f8451)"><path fill="#ffffff" d="M 23.484375 -37.609375 L 156.828125 -37.609375 L 156.828125 95.734375 L 23.484375 95.734375 Z M 23.484375 -37.609375 " fill-opacity="1" fill-rule="evenodd"/></g><path fill="#2e4c8c" d="M 61.421875 17.757812 L 70.546875 17.757812 L 76.492188 38.398438 C 76.722656 39.050781 77.285156 38.867188 77.378906 38.398438 L 81.167969 17.757812 L 85.195312 17.757812 L 80.46875 44.386719 L 71.15625 44.386719 L 65.355469 23.9375 C 65.167969 23.375 64.605469 23.234375 64.417969 23.984375 L 60.769531 44.386719 L 56.558594 44.386719 Z M 44.859375 17.757812 L 53.75 17.757812 L 55.527344 44.386719 L 48.882812 44.386719 L 48.742188 41.390625 C 48.742188 40.738281 48.226562 40.269531 47.570312 40.269531 L 37.324219 40.269531 L 39.570312 36.476562 L 46.585938 36.476562 C 47.382812 36.476562 48.320312 36.574219 48.273438 35.496094 L 47.523438 23.5625 C 47.523438 22.769531 46.820312 22.394531 46.398438 23.140625 L 33.90625 44.386719 L 29.367188 44.386719 Z M 95.441406 17.757812 L 104.382812 17.757812 L 106.488281 44.386719 L 99.796875 44.386719 L 99.65625 41.390625 C 99.65625 40.738281 99.1875 40.269531 98.53125 40.269531 L 89.125 40.269531 L 91.324219 36.476562 L 97.550781 36.476562 C 98.34375 36.476562 99.28125 36.574219 99.1875 35.496094 L 98.113281 23.5625 C 98.113281 22.769531 97.410156 22.394531 96.988281 23.140625 L 86.039062 44.386719 L 81.496094 44.386719 Z M 95.441406 17.757812 " fill-opacity="1" fill-rule="evenodd"/><path fill="#60b0cc" d="M 133.347656 44.386719 L 150.945312 13.734375 L 126 13.734375 L 108.40625 44.386719 Z M 133.347656 44.386719 " fill-opacity="1" fill-rule="evenodd"/><path fill="#2e4c8c" d="M 128.433594 44.386719 L 146.03125 13.734375 L 126 13.734375 L 108.40625 44.386719 Z M 128.433594 44.386719 " fill-opacity="1" fill-rule="evenodd"/></svg>