<svg xmlns="http://www.w3.org/2000/svg" xmlns:xlink="http://www.w3.org/1999/xlink" width="240" zoomAndPan="magnify" viewBox="0 0 180 67.92" height="80" preserveAspectRatio="xMidYMid meet" version="1.0"><defs><clipPath id="56fc3190ee"><path d="M 150 14.179688 L 173.902344 14.179688 L 173.902344 38 L 150 38 Z M 150 14.179688 " clip-rule="nonzero"/></clipPath><clipPath id="61f6608a49"><path d="M 6.097656 31 L 155 31 L 155 45.640625 L 6.097656 45.640625 Z M 6.097656 31 " clip-rule="nonzero"/></clipPath></defs><g clip-path="url(#56fc3190ee)"><path fill="#e41e26" d="M 150.945312 23.363281 C 150.945312 23.664062 150.945312 23.964844 151.09375 24.265625 C 151.695312 25.621094 153.054688 26.523438 154.867188 25.773438 C 155.316406 25.625 167.40625 20.804688 167.40625 20.804688 C 167.40625 20.804688 162.726562 32.847656 162.421875 33.304688 C 161.671875 34.957031 162.570312 36.617188 163.933594 37.066406 C 164.234375 37.214844 164.539062 37.214844 164.839844 37.214844 C 166.050781 37.214844 166.957031 36.464844 167.5625 35.257812 C 167.707031 35.113281 173.605469 18.851562 173.753906 18.394531 C 173.753906 18.09375 173.902344 17.648438 173.902344 17.191406 C 173.902344 16.441406 173.597656 15.683594 172.996094 15.082031 C 172.390625 14.480469 171.636719 14.179688 170.878906 14.179688 C 170.429688 14.179688 170.125 14.179688 169.667969 14.328125 C 169.523438 14.472656 154.261719 20.195312 152.90625 20.644531 C 151.550781 21.101562 150.945312 22.160156 150.945312 23.363281 " fill-opacity="1" fill-rule="nonzero"/></g><g clip-path="url(#61f6608a49)"><path fill="#737272" d="M 15.3125 45.339844 L 14.40625 42.480469 L 9.570312 42.480469 L 8.664062 45.339844 L 6.097656 45.339844 L 10.632812 31.792969 L 13.351562 31.792969 L 17.886719 45.339844 Z M 11.988281 34.804688 L 10.332031 40.371094 L 13.800781 40.371094 Z M 28 43.53125 C 27.09375 45.1875 25.433594 45.640625 23.621094 45.640625 C 21.359375 45.640625 19.242188 44.738281 18.484375 42.328125 C 18.335938 41.878906 18.335938 41.277344 18.335938 40.820312 L 20.902344 40.820312 C 20.902344 41.121094 21.050781 41.570312 21.203125 41.871094 C 21.652344 42.921875 22.5625 43.378906 23.769531 43.378906 C 24.675781 43.378906 25.886719 43.078125 25.886719 41.871094 C 25.886719 41.570312 25.886719 41.421875 25.738281 41.269531 C 25.433594 40.667969 24.378906 40.367188 23.777344 40.066406 C 22.566406 39.617188 21.210938 39.015625 20.148438 38.257812 C 19.242188 37.507812 18.792969 36.605469 18.792969 35.398438 C 18.792969 32.84375 21.054688 31.484375 23.472656 31.484375 C 25.132812 31.484375 26.945312 32.234375 27.707031 33.894531 C 28.007812 34.496094 28.007812 35.097656 28.15625 35.699219 L 25.589844 35.699219 C 25.589844 34.496094 24.535156 33.746094 23.328125 33.746094 C 22.417969 33.746094 21.363281 34.195312 21.363281 35.25 C 21.363281 36.15625 22.574219 36.605469 23.328125 36.90625 C 24.535156 37.355469 26.046875 37.808594 27.101562 38.558594 C 28.15625 39.308594 28.457031 40.210938 28.457031 41.417969 C 28.449219 42.179688 28.304688 42.929688 28 43.53125 M 30.265625 31.792969 L 32.828125 31.792969 L 32.828125 45.339844 L 30.265625 45.339844 Z M 43.410156 45.339844 L 42.5 42.480469 L 37.664062 42.480469 L 36.757812 45.339844 L 34.039062 45.339844 L 38.574219 31.792969 L 41.292969 31.792969 L 45.972656 45.339844 Z M 40.082031 34.804688 L 38.425781 40.371094 L 41.898438 40.371094 Z M 55.1875 45.339844 L 49.445312 35.855469 L 49.445312 45.339844 L 47.027344 45.339844 L 47.027344 31.792969 L 49.75 31.792969 L 55.335938 41.277344 L 55.335938 31.792969 L 57.753906 31.792969 L 57.753906 45.339844 Z M 67.875 45.339844 L 66.96875 42.480469 L 62.132812 42.480469 L 61.226562 45.339844 L 58.507812 45.339844 L 63.039062 31.792969 L 65.761719 31.792969 L 70.441406 45.339844 Z M 64.699219 34.804688 L 63.039062 40.371094 L 66.511719 40.371094 Z M 85.847656 45.339844 L 84.941406 42.480469 L 80.105469 42.480469 L 79.199219 45.339844 L 76.480469 45.339844 L 81.011719 31.792969 L 83.734375 31.792969 L 88.265625 45.339844 Z M 82.523438 34.804688 L 80.867188 40.371094 L 84.339844 40.371094 Z M 89.925781 31.792969 L 92.492188 31.792969 L 92.492188 45.339844 L 89.925781 45.339844 Z M 102.15625 45.339844 L 99.4375 40.21875 L 97.625 40.21875 L 97.625 45.339844 L 95.058594 45.339844 L 95.058594 31.792969 L 98.683594 31.792969 C 99.738281 31.792969 100.949219 31.792969 102.007812 32.09375 C 103.667969 32.695312 104.574219 34.046875 104.574219 35.855469 C 104.574219 37.507812 103.824219 38.867188 102.15625 39.617188 L 105.328125 45.1875 L 102.15625 45.1875 Z M 100.800781 34.347656 C 100.195312 34.046875 99.441406 34.046875 98.839844 34.046875 L 97.628906 34.046875 L 97.628906 37.964844 L 99.289062 37.964844 C 100.644531 37.964844 101.855469 37.515625 101.855469 36.007812 C 101.855469 35.25 101.40625 34.648438 100.800781 34.347656 M 106.542969 45.339844 L 106.542969 31.792969 L 109.109375 31.792969 L 109.109375 43.082031 L 115 43.082031 L 115 45.339844 Z M 116.507812 31.792969 L 119.074219 31.792969 L 119.074219 45.339844 L 116.507812 45.339844 Z M 129.648438 45.339844 L 124.058594 35.855469 L 124.058594 45.339844 L 121.492188 45.339844 L 121.492188 31.792969 L 124.359375 31.792969 L 129.800781 41.277344 L 129.800781 31.792969 L 132.21875 31.792969 L 132.21875 45.339844 Z M 134.628906 45.339844 L 134.628906 31.792969 L 143.085938 31.792969 L 143.085938 34.046875 L 137.203125 34.046875 L 137.203125 37.207031 L 142.644531 37.207031 L 142.644531 39.460938 L 137.203125 39.460938 L 137.203125 43.078125 L 143.394531 43.078125 L 143.394531 45.332031 L 134.628906 45.332031 Z M 153.8125 43.53125 C 152.90625 45.1875 151.246094 45.640625 149.433594 45.640625 C 147.171875 45.640625 145.054688 44.738281 144.296875 42.328125 C 144.148438 41.878906 144.148438 41.277344 144.148438 40.820312 L 146.714844 40.820312 C 146.714844 41.121094 146.859375 41.570312 147.015625 41.871094 C 147.464844 42.921875 148.527344 43.378906 149.582031 43.378906 C 150.488281 43.378906 151.695312 43.078125 151.695312 41.871094 C 151.695312 41.570312 151.550781 41.421875 151.550781 41.269531 C 151.246094 40.667969 150.191406 40.21875 149.585938 40.066406 C 148.378906 39.617188 147.023438 39.015625 145.960938 38.257812 C 145.054688 37.507812 144.605469 36.605469 144.605469 35.398438 C 144.605469 32.84375 146.867188 31.484375 149.285156 31.484375 C 150.945312 31.484375 152.757812 32.234375 153.515625 33.894531 C 153.820312 34.496094 153.820312 35.097656 153.96875 35.699219 L 151.402344 35.699219 C 151.402344 34.496094 150.347656 33.746094 149.136719 33.746094 C 148.230469 33.746094 147.175781 34.195312 147.175781 35.25 C 147.175781 36.15625 148.386719 36.605469 149.136719 36.90625 C 150.347656 37.355469 151.859375 37.808594 152.914062 38.558594 C 153.96875 39.308594 154.269531 40.210938 154.269531 41.417969 C 154.269531 42.179688 154.113281 42.929688 153.8125 43.53125 " fill-opacity="1" fill-rule="nonzero"/></g></svg>