<svg xmlns="http://www.w3.org/2000/svg" width="240" height="80" version="1.0" viewBox="0 0 180 67.92"><defs><clipPath id="a"><path d="M7.313 15H119v31H7.313Zm0 0"/></clipPath><clipPath id="b"><path d="M82 6.629h90.871v46.445H82Zm0 0"/></clipPath></defs><path fill="#505967" d="M37.691 47.867q-.527.041-1.054.04c-.403 0-.793-.04-1.184-.04l1.172-2.793Zm1.29 3.172c.206-.012.519-.062.847-.062.324 0 .715.05.899.062a154 154 0 0 1-1.707-3.805c-.418-.957-1.094-2.55-1.641-4.101-.117.035-.246.05-.363.05-.145 0-.25-.027-.38-.05-.273.93-.937 2.406-2.097 4.98l-1.328 2.926c.156-.023.328-.062.508-.062.183 0 .406.039.547.062.183-.648.547-1.59.914-2.457.453-.027.91-.039 1.367-.055.492 0 .976.028 1.469.055l.484 1.203Zm2.746-5.164c0 1.941 0 3.82-.13 5.164.247-.012.575-.062.821-.062.262 0 .535.05.809.062-.094-.918-.118-2.148-.118-3.844 0-1.152 0-3.12.13-3.96-.274.038-.56.066-.81.066-.167 0-.597-.055-.804-.067.102 1.114.102 1.914.102 2.641m6.796 1.309c1.043-.196 1.993-.844 1.993-2.098 0-.48-.184-.945-.52-1.27-.496-.464-1.055-.554-1.797-.554-.261 0-1.59.05-1.89.05-.586 0-.883-.039-1.145-.05.078 1.46.078 1.629.078 3.117 0 2.187-.012 2.45-.101 4.687.246-.039.52-.066.777-.066.289 0 .535.04.77.066 0-.296-.051-1.761-.051-2.097v-1.617h.273c.61.867 1.328 1.863 1.914 2.757.168.258.43.684.598.942.34-.051.48-.063.926-.063.414 0 .703.04 1.015.063a44 44 0 0 1-1.93-2.547c-.167-.234-.43-.61-.597-.856Zm-1.875-3.329c.168-.011.598-.062.809-.062.375 0 .754.05 1.066.281.403.301.48.7.48 1.18 0 .738-.413 1.566-1.562 1.566-.296 0-.57-.027-.793-.039Zm7.825 4.532c-.532-1.578-1.274-3.793-1.641-5.14a6 6 0 0 1-.793.066 9 9 0 0 1-.898-.067c.468 1.23.87 2.316 1.183 3.188a118 118 0 0 1 1.278 3.75l.285.867c.156-.035.34-.063.468-.063.133 0 .235.028.43.063.184-.594.406-1.32.563-1.785.441-1.293.507-1.477 1.078-3.094l.34-.945c.129.363.34.945.468 1.308.13.348.715 2.098.848 2.485.18.503.234.66.648 2.03.106-.01.329-.062.497-.062.156 0 .285.04.457.063.43-1.344.48-1.489 1.117-3.313a91 91 0 0 1 1.707-4.492c-.34.094-.703.094-1.043 0-.414 1.477-.61 2.203-.95 3.172-.535 1.594-.613 1.773-.937 2.64-.363-.984-.715-1.964-1.055-2.964a132 132 0 0 1-.886-2.848c-.157.04-.274.066-.508.066-.207 0-.352-.039-.508-.066-.336 1.387-1.547 4.727-1.664 5.035l-.289.739Zm11.539-.52q-.528.041-1.055.04c-.406 0-.797-.04-1.187-.04l1.16-2.793Zm1.3 3.172c.208-.012.536-.062.848-.062.324 0 .715.05.883.062-.508-1.102-1.262-2.82-1.703-3.805-.418-.957-1.094-2.55-1.64-4.101-.134.035-.235.05-.368.05-.129 0-.258-.027-.375-.05-.273.93-.937 2.406-2.098 4.98l-1.328 2.926c.157-.023.324-.062.52-.062.183 0 .406.039.547.062.183-.648.547-1.59.914-2.457.453-.027.91-.039 1.367-.055.492 0 .976.028 1.457.055l.48 1.203Zm4.793-3.043c0-.101.063-.219.141-.36.484-.816.926-1.671 1.445-2.488.172-.27 1.004-1.59 1.188-1.902-.133.055-.25.066-.484.066-.22 0-.442-.027-.665-.066-.82 1.8-1 2.188-1.976 3.844-.977-1.695-1.406-2.586-2.008-3.844a4.5 4.5 0 0 1-.937.066c-.246 0-.52-.027-.938-.066a263 263 0 0 1 2.149 3.563l.68 1.164c0 .71-.04 2.187-.067 3.078.222-.024.535-.063.77-.063.257 0 .53.04.792.063a48 48 0 0 1-.078-2.625Zm3.422 1.348c-.05.543-.062.699-.257 1.281.414.207 1.156.582 2.132.582 2.098 0 2.907-1.332 2.907-2.484 0-.325-.079-.985-.563-1.5-.324-.364-.676-.493-1.547-.828-1.004-.391-1.59-.61-1.59-1.438 0-.676.442-1.23 1.356-1.23.715 0 1.328.336 1.496.984h.156c.106-.43.13-.52.352-1.074-.559-.246-1.067-.469-1.903-.469-2.07 0-2.668 1.27-2.668 2.281 0 .946.34 1.528 1.446 2.02.324.14.86.336 1.172.476.222.09.937.403.937 1.309 0 .816-.598 1.422-1.496 1.422-.68 0-1.25-.168-1.773-1.305h-.157Zm0 0"/><g clip-path="url(#a)"><path fill="#5c0632" d="M12.016 28.336c0-8.594 4.632-10.91 8.125-10.91 5.625 0 8.058 4.633 8.058 9.578 0 2.832-.34 5.488-1.746 7.637s-3.734 3.441-6.273 3.441c-6.344 0-8.164-6.004-8.164-9.746m17.082 17.566c1.027-.715 2.644-1.605 3.8-2.109l-7.746-4.79c4.766-1.671 7.746-5.901 7.746-11.663 0-8.18-6.273-11.664-12.695-11.664-6.926 0-12.89 3.82-12.89 12.492 0 1.84.417 5.32 3.296 8.219 2.98 3.004 6.524 3.445 9.504 3.445.38 0 .754 0 1.133-.039Zm19.804-16.066c-1.07.066-2.097.144-3.164.144-1.199 0-2.37-.105-3.566-.144l3.5-8.387Zm3.88 9.516c.613-.04 1.573-.207 2.538-.207s2.16.167 2.684.207c-1.55-3.313-3.805-8.454-5.117-11.43-1.239-2.86-3.297-7.637-4.938-12.309a4 4 0 0 1-1.094.168c-.414 0-.753-.066-1.132-.168-.817 2.797-2.809 7.235-6.274 14.938l-3.984 8.8c.48-.066.965-.206 1.55-.206.547 0 1.196.14 1.641.207.547-1.942 1.653-4.778 2.746-7.403 1.368-.066 2.746-.133 4.114-.133 1.472 0 2.918.067 4.386.133l1.434 3.61Zm15.222-17.293c0-1.293.039-2.59.062-3.82 2.371 0 4.805.038 6.825.234-.106-.543-.168-.856-.168-1.23 0-.27.062-.712.168-1.294-3.293.168-6.317.207-9.153.207-2.644 0-6.445-.039-9.156-.207.105.414.172.856.172 1.254 0 .402-.066.856-.172 1.258 1.758-.168 5.04-.234 5.352-.234h1.718c.04 1.332.067 2.523.067 3.793l.039 9.515c0 2.586-.207 5.215-.34 7.805 1.238-.13 1.746-.207 2.332-.207.418 0 1.512.101 2.5.207-.105-.961-.234-2.086-.234-4.676Zm19.086 7.777c-1.067.066-2.094.144-3.149.144-1.199 0-2.37-.105-3.57-.144l3.504-8.387Zm3.879 9.516c.613-.04 1.578-.207 2.539-.207.965 0 2.164.167 2.683.207-1.55-3.313-3.8-8.454-5.117-11.43-1.238-2.86-3.293-7.637-4.933-12.309-.38.102-.715.168-1.094.168a4.1 4.1 0 0 1-1.133-.168c-.82 2.797-2.812 7.235-6.277 14.938l-3.985 8.8c.485-.066.965-.206 1.551-.206.547 0 1.2.14 1.64.207.548-1.942 1.641-4.778 2.747-7.403 1.367-.066 2.75-.133 4.117-.133 1.469 0 2.914.067 4.387.133l1.445 3.61Zm19.039-11.598c3.125-.582 5.96-2.524 5.96-6.305 0-1.437-.546-2.832-1.573-3.816-1.485-1.399-3.165-1.684-5.391-1.684-.793 0-4.766.168-5.664.168-1.746 0-2.645-.101-3.426-.168.234 4.403.234 4.88.234 9.344 0 6.59-.039 7.328-.312 14.047.758-.106 1.578-.207 2.371-.207.86 0 1.613.14 2.293.207 0-.895-.133-5.281-.133-6.278V28.22h.82c1.852 2.59 3.985 5.593 5.731 8.285.508.789 1.262 2.047 1.785 2.836 1.027-.13 1.445-.207 2.774-.207 1.234 0 2.093.101 3.058.207-2.16-2.695-3.086-3.883-5.793-7.676-.523-.715-1.265-1.84-1.785-2.562Zm-5.625-9.953c.508-.04 1.781-.168 2.433-.168 1.133 0 2.266.168 3.192.851 1.195.895 1.445 2.114 1.445 3.547 0 2.215-1.266 4.715-4.703 4.715-.898 0-1.719-.066-2.367-.105Zm0 0"/></g><path fill="#747f8a" d="M161.281 27.82c0 .22-3.097.426-7.539.594-.781-.441-1.379-.879-1.808-1.27 5.375.196 9.347.43 9.347.676m-3.191-7.445c0 .184-2.602.352-6.328.504.547-.32 1.11-.633 1.668-.93 2.812.13 4.66.27 4.66.426m-27.72 16.012c-1.719.027-3.23.027-4.414.027-1.691 0-3.074-.52-3.074-1.164 0-.648 1.383-1.168 3.074-1.168 1.496 0 3.543.016 5.871.04-.898 1.296-1.328 2.07-1.379 2.124Zm.926 1.554a16 16 0 0 0 1.832 1.875s.273.391 1.11.055c.843-.351 1.573-.816 2.382-1.89 2.367.039 4.883.09 7.356.14.207.297.613.906 1.12 1.656-6.89.184-14.374.285-18.214.285-1.602 0-2.89-.492-2.89-1.097 0-.61 1.288-1.102 2.89-1.102 1.172 0 2.668.012 4.387.028.027.035.027.05.027.05m-2.672 5.72c-1.418 0-2.562-.438-2.562-.97 0-.53 1.144-.972 2.562-.972 3.75 0 11.434.117 18.008.3.312.454.637.907.937 1.32-6.77.192-15.011.321-18.945.321m21.863 3.11c-5.523.246-15.027.398-18.984.398-1.106 0-2.02-.348-2.02-.762 0-.426.899-.765 2.02-.765 3.773 0 12.64.144 18.242.375.258.261.508.52.742.754m-14.414 2.058c3.254 0 13.188.242 13.188.543 0 .297-9.922.543-13.188.543-.64 0-1.148-.246-1.148-.543-.012-.3.508-.543 1.148-.543m.04-19.95c-4.102.067-7.786.106-10.145.106-1.692 0-3.07-.52-3.07-1.164 0-.648 1.378-1.168 3.07-1.168 2.75 0 7.265.055 12.16.145a42 42 0 0 0-2.016 2.082m20.13-5.203c2.41.129 3.917.273 3.917.414 0 .168-1.836.324-4.66.453.598-.453.73-.84.742-.867m-29.336 1.515c-1.601 0-2.89-.492-2.89-1.101 0-.61 1.289-1.098 2.89-1.098 3.281 0 9.219.074 15.184.207a81 81 0 0 0-2.086 1.813c-5.234.113-10.207.18-13.098.18m17.813-4.09c-6.094.156-12.696.246-16.094.246-1.418 0-2.562-.43-2.562-.973 0-.531 1.144-.969 2.562-.969 3.738 0 11.406.117 17.98.297-.324.235-.648.48-.988.723-.3.234-.597.453-.898.676m-13.203-3.676c-1.106 0-2.016-.336-2.016-.766 0-.426.898-.762 2.016-.762 4.191 0 14.648.18 19.96.438-.34.223-.675.453-1.015.676-5.547.246-15.012.414-18.945.414m-5.871 15.297c-1.73 0-3.125-.528-3.125-1.188 0-.648 1.406-1.18 3.125-1.18 2.16 0 5.402.028 9.074.09a44 44 0 0 0-1.797 2.227c-2.93.027-5.48.05-7.277.05m9.27-19.027c0-.297.507-.543 1.144-.543 3.257 0 13.191.246 13.191.543 0 .301-9.922.547-13.191.547-.625 0-1.133-.246-1.145-.547"/><g clip-path="url(#b)"><path fill="#5c0632" d="M161.605 30.652c.028.598.028 1.18-.011 1.75-5.781.23-11.25.567-11.25.957 0 .387 5.351.723 11.066.946a23 23 0 0 1-.39 1.925c-5.625.235-10.844.57-10.844.946 0 .363 4.867.699 10.273.922-.25.672-.523 1.343-.847 1.992-4.637.219-8.465.515-8.465.84 0 .297 3.347.582 7.566.789a19 19 0 0 1-.742 1.113c-.285.39-.574.777-.887 1.152-2.64.196-4.453.43-4.453.676 0 .207 1.305.399 3.297.582a19.8 19.8 0 0 1-3.895 2.95s-1.785-1.528-3.27-3.313c-1.312-1.594-4.112-5.8-4.765-6.746-.664-.942-1.093-1.215-1.86-.942-1.03.36-2.226.543-2.605.543-.378 0-.574-.144.051-.39.613-.246 3.047-1.383 4.246-3.754 1.34-2.653.157-6.328.157-6.328-.457 1.968-1.485 2.691-1.485 2.691.34-1.824-.027-3.469-.937-4.633l-.508 2.305s-.313-.012-1.094.633c-.781.66-.988 1.605-.988 1.605.61.246 1.351-.363 1.351-.363-.949 3.508-2.289 6.371-3.28 7.883-.99 1.515-1.798 2.086-2.786 2.488-.832.336-1.105-.055-1.105-.055a15 15 0 0 1-1.836-1.875s-.051-.078.105-.078c.402 0 1.133-.687 1.29-.972.179-.32.155-.582.062-.594-.09-.012-.246.246-1.028.738-.781.492-1.133.156-1.394-.117-.196-.219 0-.492.117-.66.117-.156 4.246-7.793 15.156-15.832 14.297-10.52 23.438-13.367 23.957-13.574.352-.133.914-.313 1.043-.184.145.144.207.273.196.441-.012.168-.106.258-.77.543-5.492 2.407-11.898 6.407-15.531 8.739-4.48 2.172-8.75 5.265-8.907 5.343-.34.207-.093.52.118.391 7.562-4.996 16.418-8.402 26.222-11.2.47-.128.73-.128.809-.023.09.118.129.246.14.387.016.18-.128.274-.53.426-10.524 3.887-18.282 7.496-23.27 10.836 0 0-.52.308-.52.672 0 .144.274.156.274.156 2.5.039 5.832.195 7.422.285 0 0-.223.8-1.747 1.45-1.171.491-2.265.413-3.332.425-.234 0-.445.234-.25.492.055.13 2.344 3.793 10.664 4.621M85.348 49.81H83.94s-.195-.868.325-1.188c.507-.34 1.093-.598 1.093-.598Zm6.691-3.223s-.86.492-1.394.973c-.536.476.117.66.117.66v1.605h-4.086v-5.617s-1.5 1.355-1.63 1.54c-.144.194.352.362.352.362l-.078.532s-.597.308-1.316.789c-.715.476-1.25 1.086-1.25 1.511 0 .43-.18 2.086-.18 2.086h9.477v-4.441Zm-8.477-2.059c.47 0 .793-.18.793-.554s-.218-.633-.793-.633c-.507 0-.652.219-.652.633s.184.554.653.554m1.746 0c.468 0 .793-.18.793-.554s-.223-.633-.793-.633c-.524 0-.653.219-.653.633s.184.554.653.554m2.64 6.993c-.508 0-.648.218-.648.62 0 .403.18.555.648.555s.793-.18.793-.554c.016-.364-.207-.621-.793-.621m1.809 0c-.508 0-.649.218-.649.62 0 .403.18.555.649.555s.797-.18.797-.554c.011-.364-.211-.621-.797-.621m20.445-7.094c.469 0 .793-.18.793-.543s-.223-.637-.793-.637c-.508 0-.652.223-.652.637 0 .398.183.543.652.543m1.809 0c.468 0 .793-.18.793-.543s-.22-.637-.793-.637c-.508 0-.653.223-.653.637 0 .398.184.543.653.543m5 .156c-.262.219-.184.477.144.438v6.03h1.352v-7.503s-1.235.812-1.496 1.035m-5.39 3.379h-.872c0-.48.871-.738.871-.738Zm-5.731.996c0 .219-.012.566-.024.867h-7.594v-1.336c.196-.504.536-.566 1.055-.566h5.547c1.2 0 1.016.621 1.016 1.035m8.882-3.937v4.804h-1.812v-4.363s-.363.14-.871.363c-.508.23-2.317.957-2.317 1.953v1.153h1.848v.894h-4.387c0-.207.012-.52.012-.972 0-1.438-1.223-2.211-2.316-2.211h-5.078c-.887 0-1.317.218-1.563.453v-3.692s-.797.559-1.383.996c-.586.442 0 .739 0 .739v4.687h-1.664l-.039-4.027s-1.16.844-1.484 1.101c-.328.258-.145.477.219.477 0 0-.063 2.965-.063 3.676 0 .715-.586 1.515-1.824 1.14 0 0-.39.079-.067.375.329.297.72.52 1.16.52.43 0 2.032-.3 2.032-2.035h20.937V43.56s-1.238.816-1.484 1.023c-.262.207-.184.477.144.438"/></g></svg>