<svg xmlns="http://www.w3.org/2000/svg" xmlns:xlink="http://www.w3.org/1999/xlink" width="240" zoomAndPan="magnify" viewBox="0 0 180 67.92" height="80" preserveAspectRatio="xMidYMid meet" version="1.0"><defs><clipPath id="154a4b0c52"><path d="M 77 4.074219 L 104 4.074219 L 104 39 L 77 39 Z M 77 4.074219 " clip-rule="nonzero"/></clipPath><clipPath id="5649594d94"><path d="M 65.839844 41 L 114.53125 41 L 114.53125 54.265625 L 65.839844 54.265625 Z M 65.839844 41 " clip-rule="nonzero"/></clipPath></defs><path fill="#f99c1c" d="M 82.890625 35.835938 C 82.890625 35.835938 87.539062 28.902344 87.957031 28.21875 C 88.46875 27.378906 88.492188 26.046875 88.03125 25.332031 C 87.796875 24.957031 80.867188 14.011719 80.867188 14.011719 C 80.246094 12.828125 80.398438 12.023438 80.816406 11.445312 C 81.5 10.4375 82.703125 8.652344 82.703125 8.652344 C 82.703125 8.652344 91.117188 21.832031 91.464844 22.421875 C 92.367188 23.925781 92.117188 25.398438 91.375 26.660156 C 90.75 27.722656 85.300781 35.839844 85.300781 35.839844 " fill-opacity="1" fill-rule="nonzero"/><g clip-path="url(#154a4b0c52)"><path fill="#f99c1c" d="M 81.394531 36.585938 C 81.394531 36.585938 86.773438 28.722656 87.171875 28.070312 C 87.640625 27.273438 87.589844 26.152344 87.171875 25.476562 C 86.949219 25.121094 79.480469 13.378906 79.480469 13.378906 C 79.480469 13.378906 78.15625 15.375 77.738281 15.992188 C 77.320312 16.605469 77.074219 17.371094 77.789062 18.601562 C 77.789062 18.601562 83.136719 27.03125 83.363281 27.390625 C 83.796875 28.078125 83.78125 29.339844 83.292969 30.136719 C 82.894531 30.78125 77.378906 38.8125 77.378906 38.8125 L 93.292969 38.8125 C 94.910156 38.8125 95.796875 38.183594 96.578125 37.0625 C 97.257812 36.105469 99.875 32.308594 100.277344 31.710938 C 100.671875 31.113281 101.46875 30.714844 101.828125 30.714844 L 103.070312 30.714844 L 100.644531 27.027344 L 96.773438 27.027344 C 96.03125 27.027344 95.136719 27.683594 94.667969 28.378906 C 94.300781 28.929688 91.652344 32.890625 91.175781 33.527344 C 90.90625 33.886719 90.671875 33.964844 90.457031 33.96875 C 90.339844 33.96875 89.996094 33.964844 89.953125 33.964844 C 90.113281 33.648438 94.558594 27.183594 95.433594 25.761719 C 96.492188 24.011719 96.730469 21.699219 95.472656 19.476562 C 95.015625 18.671875 85.773438 4.105469 85.773438 4.105469 C 85.773438 4.105469 84.539062 5.875 84.027344 6.636719 C 83.613281 7.253906 83.484375 8.0625 84.085938 9.246094 C 84.085938 9.246094 91.84375 21.570312 92.210938 22.136719 C 93.113281 23.542969 93 25.417969 92.210938 26.699219 C 91.566406 27.753906 86.207031 35.835938 86.207031 35.835938 L 90.453125 35.835938 C 91.992188 35.835938 92.371094 35.265625 92.796875 34.796875 C 93.21875 34.320312 95.53125 30.820312 95.792969 30.453125 C 96.058594 30.089844 96.730469 29.054688 97.617188 29.054688 L 100.40625 29.054688 L 100.40625 29.136719 C 99.8125 29.253906 99.226562 29.613281 98.804688 30.195312 C 98.378906 30.769531 95.574219 34.917969 95.238281 35.398438 C 94.8125 36.007812 94.328125 36.585938 93.109375 36.585938 " fill-opacity="1" fill-rule="nonzero"/></g><g clip-path="url(#5649594d94)"><path fill="#021f5e" d="M 67.566406 44.347656 L 69.019531 44.347656 C 69.351562 44.347656 69.574219 44.539062 69.574219 44.910156 C 69.574219 45.28125 69.351562 45.472656 69.019531 45.472656 L 65.894531 45.472656 L 65.894531 46.441406 L 68.910156 46.441406 C 70.078125 46.441406 70.652344 45.671875 70.652344 44.890625 C 70.652344 44.105469 70.078125 43.339844 68.910156 43.339844 C 68.40625 43.339844 67.449219 43.34375 67.449219 43.34375 C 67.125 43.34375 66.90625 43.15625 66.90625 42.796875 C 66.90625 42.4375 67.125 42.25 67.449219 42.25 L 70.578125 42.25 L 70.578125 41.28125 L 67.566406 41.28125 C 66.410156 41.28125 65.839844 41.964844 65.839844 42.816406 C 65.839844 43.671875 66.410156 44.347656 67.566406 44.347656 M 83.082031 46.441406 L 85.386719 46.441406 L 85.386719 43.074219 L 84.253906 43.074219 L 84.253906 45.445312 L 82.925781 45.445312 C 81.96875 45.445312 81.324219 44.890625 81.324219 43.835938 C 81.324219 42.773438 81.96875 42.226562 82.925781 42.226562 L 85.386719 42.226562 L 85.386719 41.28125 L 83.082031 41.28125 C 81.136719 41.28125 80.179688 42.675781 80.179688 43.867188 C 80.179688 45.058594 81.136719 46.441406 83.082031 46.441406 M 71.8125 41.28125 L 72.945312 41.28125 L 72.945312 46.441406 L 71.8125 46.441406 Z M 75.480469 42.222656 L 77.359375 42.222656 C 77.820312 42.222656 78.113281 42.644531 78.113281 43.03125 L 78.113281 46.441406 L 79.246094 46.441406 L 79.246094 42.890625 C 79.246094 42.011719 78.621094 41.28125 77.617188 41.28125 L 76.128906 41.28125 L 75.484375 42.140625 L 75.484375 41.28125 L 74.351562 41.28125 L 74.351562 46.441406 L 75.484375 46.441406 M 105.589844 42.226562 L 107.367188 42.226562 C 107.785156 42.226562 108.046875 42.625 108.046875 42.984375 C 108.046875 43.34375 107.785156 43.734375 107.367188 43.734375 L 105.976562 43.734375 L 108.230469 46.4375 L 109.574219 46.4375 L 107.976562 44.515625 C 108.667969 44.292969 109.109375 43.664062 109.109375 42.953125 C 109.109375 42.0625 108.421875 41.28125 107.417969 41.28125 L 104.472656 41.28125 L 104.472656 46.4375 L 105.589844 46.4375 M 114.53125 46.441406 L 114.53125 45.496094 L 111.507812 45.5 L 111.507812 44.175781 L 114.140625 44.175781 L 114.140625 43.238281 L 111.507812 43.238281 L 111.507812 42.222656 L 114.53125 42.226562 L 114.53125 41.28125 L 110.367188 41.28125 L 110.367188 46.441406 L 111.507812 46.441406 M 89.101562 42.171875 L 89.917969 44.035156 L 88.285156 44.039062 L 89.101562 42.171875 M 87.898438 44.941406 L 90.304688 44.945312 L 90.976562 46.441406 L 92.214844 46.441406 L 89.683594 41.28125 L 88.515625 41.28125 L 85.988281 46.441406 L 87.230469 46.441406 M 93.929688 42.222656 L 95.6875 42.222656 C 96.101562 42.222656 96.367188 42.65625 96.367188 43.046875 C 96.367188 43.433594 96.101562 43.855469 95.6875 43.855469 L 93.929688 43.855469 L 93.929688 42.222656 M 93.929688 43.9375 L 93.929688 43.933594 L 94.574219 44.792969 L 95.734375 44.792969 C 96.707031 44.792969 97.394531 43.984375 97.394531 43.046875 C 97.394531 42.109375 96.707031 41.28125 95.734375 41.28125 L 92.789062 41.28125 L 92.789062 46.441406 L 93.929688 46.441406 M 100.820312 42.089844 C 101.789062 42.089844 102.582031 42.878906 102.582031 43.855469 C 102.582031 44.824219 101.789062 45.613281 100.820312 45.613281 C 99.84375 45.613281 99.050781 44.824219 99.050781 43.855469 C 99.050781 42.878906 99.84375 42.089844 100.820312 42.089844 M 100.820312 46.65625 C 102.367188 46.65625 103.625 45.398438 103.625 43.855469 C 103.625 42.304688 102.367188 41.046875 100.820312 41.046875 C 99.269531 41.046875 98.015625 42.304688 98.015625 43.855469 C 98.015625 45.398438 99.265625 46.65625 100.820312 46.65625 Z M 90.902344 49.074219 L 92.039062 49.074219 L 92.039062 54.226562 L 90.902344 54.226562 Z M 90.105469 54.230469 L 90.105469 53.285156 L 87.464844 53.289062 L 87.464844 49.074219 L 86.324219 49.074219 L 86.324219 54.230469 L 87.464844 54.230469 M 73.863281 49.960938 L 74.683594 51.824219 L 73.050781 51.828125 L 73.863281 49.960938 M 72.664062 52.730469 L 75.070312 52.734375 L 75.738281 54.230469 L 76.976562 54.230469 L 74.449219 49.070312 L 73.277344 49.070312 L 70.75 54.230469 L 71.996094 54.230469 M 81.566406 50.015625 L 83.34375 50.015625 C 83.761719 50.015625 84.027344 50.414062 84.027344 50.773438 C 84.027344 51.136719 83.761719 51.523438 83.34375 51.523438 L 81.953125 51.523438 L 84.210938 54.230469 L 85.550781 54.230469 L 83.953125 52.304688 C 84.640625 52.085938 85.082031 51.453125 85.082031 50.742188 C 85.082031 49.851562 84.398438 49.070312 83.394531 49.070312 L 80.449219 49.070312 L 80.449219 54.230469 L 81.566406 54.230469 M 77.738281 49.074219 L 78.871094 49.074219 L 78.871094 54.230469 L 77.738281 54.230469 Z M 106.542969 52.136719 L 107.992188 52.136719 C 108.328125 52.136719 108.550781 52.328125 108.550781 52.699219 C 108.550781 53.070312 108.328125 53.261719 107.992188 53.261719 L 104.871094 53.261719 L 104.871094 54.230469 L 107.886719 54.230469 C 109.054688 54.230469 109.628906 53.460938 109.628906 52.679688 C 109.628906 51.894531 109.054688 51.132812 107.886719 51.132812 C 107.382812 51.132812 106.425781 51.132812 106.425781 51.132812 C 106.101562 51.132812 105.882812 50.945312 105.882812 50.589844 C 105.882812 50.226562 106.101562 50.042969 106.425781 50.042969 L 109.554688 50.042969 L 109.554688 49.074219 L 106.542969 49.074219 C 105.386719 49.074219 104.816406 49.753906 104.816406 50.609375 C 104.816406 51.464844 105.386719 52.136719 106.542969 52.136719 M 103.726562 54.230469 L 103.726562 53.285156 L 100.699219 53.289062 L 100.699219 51.964844 L 103.335938 51.964844 L 103.335938 51.027344 L 100.699219 51.027344 L 100.699219 50.015625 L 103.726562 50.015625 L 103.726562 49.074219 L 99.5625 49.074219 L 99.5625 54.230469 L 100.699219 54.230469 M 94.558594 50.015625 L 96.4375 50.015625 C 96.898438 50.015625 97.191406 50.433594 97.191406 50.824219 L 97.191406 54.230469 L 98.324219 54.230469 L 98.324219 50.679688 C 98.324219 49.800781 97.699219 49.070312 96.695312 49.070312 L 95.207031 49.070312 L 94.5625 49.929688 L 94.5625 49.070312 L 93.429688 49.070312 L 93.429688 54.230469 L 94.5625 54.230469 " fill-opacity="1" fill-rule="nonzero"/></g></svg>