<svg xmlns="http://www.w3.org/2000/svg" xmlns:xlink="http://www.w3.org/1999/xlink" width="240" zoomAndPan="magnify" viewBox="0 0 180 67.92" height="80" preserveAspectRatio="xMidYMid meet" version="1.0"><defs><clipPath id="3e900ae481"><path d="M 120 32 L 173.902344 32 L 173.902344 51 L 120 51 Z M 120 32 " clip-rule="nonzero"/></clipPath><clipPath id="0ea98f26e7"><path d="M 6.097656 7.382812 L 52 7.382812 L 52 52.328125 L 6.097656 52.328125 Z M 6.097656 7.382812 " clip-rule="nonzero"/></clipPath></defs><path fill="#000000" d="M 168.078125 27.21875 L 168.078125 19.792969 L 160.617188 19.792969 L 160.617188 27.21875 L 156.519531 27.21875 L 156.519531 9.625 L 160.617188 9.625 L 160.617188 16.601562 L 168.078125 16.601562 L 168.078125 9.625 L 172.1875 9.625 L 172.1875 27.21875 Z M 80.035156 9.625 L 80.035156 20.613281 C 80.035156 21.796875 80.1875 22.910156 80.5625 23.730469 C 80.933594 24.550781 81.453125 25.285156 82.054688 25.808594 C 82.726562 26.335938 83.550781 26.773438 84.441406 27 C 85.332031 27.21875 86.386719 27.375 87.570312 27.375 C 88.691406 27.375 89.734375 27.21875 90.636719 27 C 91.527344 26.773438 92.273438 26.335938 92.867188 25.808594 C 93.472656 25.285156 93.988281 24.550781 94.285156 23.730469 C 94.660156 22.835938 94.8125 21.796875 94.8125 20.613281 L 94.8125 9.625 L 91.011719 9.625 L 91.011719 20.539062 C 91.011719 21.652344 90.703125 22.539062 90.1875 23.207031 C 89.660156 23.875 88.769531 24.246094 87.570312 24.246094 C 86.386719 24.246094 85.484375 23.875 84.96875 23.207031 C 84.441406 22.539062 84.144531 21.652344 84.144531 20.539062 L 84.144531 9.625 Z M 68.246094 27.21875 L 68.246094 12.882812 L 63.476562 12.882812 L 63.476562 9.625 L 77.199219 9.625 L 77.199219 11.175781 C 77.199219 12.148438 76.453125 12.882812 75.484375 12.882812 L 72.355469 12.882812 L 72.355469 27.21875 Z M 133.90625 9.625 L 138.015625 9.625 L 138.015625 27.21875 L 133.90625 27.21875 Z M 120.324219 18.972656 L 120.480469 19.128906 L 125.699219 25.808594 C 126.367188 26.628906 127.347656 27.144531 128.457031 27.144531 L 131.742188 27.144531 L 124.28125 17.640625 L 124.203125 17.488281 L 124.28125 17.34375 L 130.402344 9.625 L 126.148438 9.625 L 120.480469 17.191406 L 120.324219 17.34375 L 120.324219 9.625 L 116.226562 9.625 L 116.226562 27.21875 L 120.324219 27.21875 Z M 120.324219 18.972656 " fill-opacity="1" fill-rule="nonzero"/><path fill="#000000" d="M 110.929688 27.21875 C 109.734375 27.21875 108.535156 26.554688 107.941406 25.589844 L 104.734375 20.386719 L 102.722656 20.386719 L 102.722656 27.296875 L 98.613281 27.296875 L 98.613281 9.625 L 105.933594 9.625 C 107.789062 9.625 109.28125 10.136719 110.261719 11.035156 C 111.304688 11.996094 111.820312 13.332031 111.820312 14.894531 C 111.820312 15.710938 111.597656 16.527344 111.152344 17.34375 C 110.703125 18.160156 109.957031 18.828125 108.910156 19.347656 L 108.691406 19.421875 L 113.6875 27.144531 L 110.929688 27.144531 Z M 105.109375 17.640625 C 105.933594 17.640625 106.601562 17.421875 107.050781 16.972656 C 107.5 16.527344 107.722656 15.933594 107.722656 15.191406 C 107.722656 14.445312 107.492188 13.855469 107.117188 13.40625 C 106.679688 12.960938 106.074219 12.742188 105.183594 12.742188 L 102.789062 12.742188 L 102.789062 17.640625 Z M 105.109375 17.640625 " fill-opacity="1" fill-rule="evenodd"/><path fill="#000000" d="M 141.367188 26.476562 L 141.367188 23.140625 C 142.640625 23.730469 144.355469 24.320312 146.070312 24.320312 C 148.082031 24.320312 149.058594 23.65625 149.058594 22.320312 C 149.058594 20.757812 147.707031 20.613281 144.949219 19.421875 C 143.082031 18.601562 141.367188 17.34375 141.367188 14.371094 C 141.367188 10.957031 143.980469 9.328125 147.640625 9.328125 C 149.574219 9.328125 151.210938 9.765625 152.113281 10.136719 L 152.113281 13.40625 C 151.210938 12.960938 149.574219 12.445312 147.859375 12.445312 C 146.070312 12.445312 145.246094 13.113281 145.246094 14.226562 C 145.246094 15.410156 146.289062 15.78125 148.082031 16.449219 C 150.398438 17.640625 153.15625 18.164062 153.15625 22.089844 C 153.15625 25.515625 150.398438 27.375 146.738281 27.375 C 144.574219 27.4375 142.785156 27.066406 141.367188 26.476562 Z M 147.785156 50.164062 L 147.785156 32.566406 L 158.828125 32.566406 L 158.828125 34.132812 C 158.828125 35.09375 158.078125 35.839844 157.113281 35.839844 L 151.816406 35.839844 L 151.816406 39.621094 L 157.78125 39.621094 L 157.78125 42.597656 L 151.816406 42.597656 L 151.816406 46.894531 L 158.828125 46.894531 L 158.828125 50.164062 Z M 107.347656 50.164062 L 107.347656 32.566406 L 109.359375 32.566406 C 110.558594 32.566406 111.449219 33.53125 111.449219 34.644531 L 111.449219 46.972656 L 117.941406 46.972656 L 117.941406 50.164062 Z M 82.054688 50.164062 L 82.054688 32.566406 L 86.15625 32.566406 L 86.15625 50.164062 Z M 82.054688 50.164062 " fill-opacity="1" fill-rule="nonzero"/><path fill="#000000" d="M 102.121094 50.164062 C 100.933594 50.164062 99.734375 49.496094 99.140625 48.535156 L 95.933594 43.339844 L 93.910156 43.339844 L 93.910156 50.242188 L 89.8125 50.242188 L 89.8125 32.566406 L 97.121094 32.566406 C 98.988281 32.566406 100.480469 33.082031 101.449219 33.980469 C 102.492188 34.941406 103.019531 36.277344 103.019531 37.839844 C 103.019531 38.660156 102.789062 39.46875 102.351562 40.367188 C 101.902344 41.183594 101.15625 41.847656 100.109375 42.367188 L 99.890625 42.445312 L 104.886719 50.164062 Z M 93.976562 40.585938 L 96.371094 40.585938 C 97.261719 40.585938 97.867188 40.367188 98.304688 39.917969 C 98.753906 39.472656 98.976562 38.878906 98.976562 38.132812 C 98.976562 37.390625 98.757812 36.800781 98.382812 36.351562 C 97.933594 35.902344 97.339844 35.683594 96.449219 35.683594 L 94.054688 35.683594 Z M 79.59375 50.164062 L 75.1875 50.164062 L 74.144531 46.894531 L 66.980469 46.894531 L 66.3125 48.984375 C 66.089844 49.726562 65.410156 50.164062 64.671875 50.164062 L 61.761719 50.164062 L 68.398438 32.566406 L 73.101562 32.566406 Z M 73.101562 43.777344 L 71.53125 39.328125 C 71.234375 38.277344 70.859375 37.3125 70.640625 36.492188 L 70.5625 36.492188 C 70.34375 37.238281 69.96875 38.351562 69.597656 39.328125 L 68.023438 43.777344 Z M 73.101562 43.777344 " fill-opacity="1" fill-rule="evenodd"/><g clip-path="url(#3e900ae481)"><path fill="#000000" d="M 162.113281 49.421875 L 162.113281 46.085938 C 163.375 46.675781 165.089844 47.265625 166.8125 47.265625 C 168.824219 47.265625 169.792969 46.597656 169.792969 45.265625 C 169.792969 43.703125 168.453125 43.558594 165.695312 42.367188 C 163.824219 41.558594 162.113281 40.289062 162.113281 37.324219 C 162.113281 33.902344 164.726562 32.273438 168.375 32.273438 C 170.320312 32.273438 171.957031 32.722656 172.855469 33.082031 L 172.855469 36.351562 C 171.957031 35.902344 170.320312 35.390625 168.605469 35.390625 C 166.8125 35.390625 165.988281 36.058594 165.988281 37.171875 C 165.988281 38.363281 167.035156 38.734375 168.824219 39.402344 C 171.144531 40.585938 173.902344 41.109375 173.902344 45.046875 C 173.902344 48.457031 171.144531 50.316406 167.484375 50.316406 C 165.320312 50.394531 163.527344 50.023438 162.113281 49.421875 Z M 128.457031 32.566406 L 130.996094 32.566406 C 132.191406 32.566406 133.3125 33.160156 133.984375 34.199219 L 138.90625 42.070312 C 139.433594 42.96875 140.101562 44.074219 140.476562 44.894531 L 140.542969 44.894531 C 140.476562 44.074219 140.476562 43.035156 140.476562 42.226562 L 140.476562 32.566406 L 144.058594 32.566406 L 144.058594 50.164062 L 139.574219 50.164062 L 133.609375 40.660156 C 133.082031 39.773438 132.488281 38.734375 132.039062 37.914062 L 131.972656 37.914062 C 131.972656 38.660156 132.039062 39.546875 132.039062 40.441406 L 132.039062 50.164062 L 128.457031 50.164062 Z M 120.621094 32.566406 L 124.730469 32.566406 L 124.730469 50.164062 L 120.621094 50.164062 Z M 120.621094 32.566406 " fill-opacity="1" fill-rule="nonzero"/></g><g clip-path="url(#0ea98f26e7)"><path fill="#ffffff" d="M 31.019531 7.546875 C 42.359375 8.726562 51.234375 18.230469 51.234375 29.886719 C 51.234375 42.289062 41.171875 52.320312 28.710938 52.320312 C 16.25 52.320312 6.097656 42.289062 6.097656 29.886719 C 6.097656 17.488281 16.175781 7.394531 28.710938 7.394531 C 29.449219 7.394531 30.273438 7.46875 31.019531 7.546875 Z M 32.214844 50.765625 C 43.773438 48.832031 51.609375 37.914062 49.675781 26.335938 C 48.027344 16.753906 40.191406 9.765625 30.941406 8.804688 C 29.074219 8.585938 27.140625 8.648438 25.195312 8.957031 C 22.886719 9.328125 20.722656 10.0625 18.777344 11.101562 C 28.929688 14.601562 34.445312 19.871094 34.820312 25.21875 C 35.050781 28.554688 33.480469 30.9375 31.390625 32.863281 L 45.863281 31.902344 C 46.238281 31.902344 46.390625 32.347656 45.941406 32.492188 L 11.394531 42.289062 C 14.898438 47.125 20.351562 50.316406 26.394531 50.910156 C 28.335938 51.136719 30.273438 51.136719 32.214844 50.765625 Z M 22.734375 30.335938 C 24.601562 23.28125 22.4375 15.855469 17.296875 11.921875 C 10.273438 16.382812 6.175781 24.695312 7.671875 33.386719 C 8.109375 36.277344 9.152344 38.878906 10.648438 41.1875 C 16.175781 39.699219 21.019531 36.800781 22.734375 30.335938 Z M 22.734375 30.335938 " fill-opacity="1" fill-rule="evenodd"/></g><path fill="#c70a0c" d="M 32.214844 50.765625 C 43.773438 48.832031 51.609375 37.914062 49.675781 26.335938 C 48.027344 16.753906 40.191406 9.765625 30.941406 8.804688 C 29.074219 8.585938 27.140625 8.648438 25.195312 8.957031 C 22.886719 9.328125 20.722656 10.0625 18.777344 11.101562 C 28.929688 14.601562 34.445312 19.871094 34.820312 25.21875 C 35.050781 28.554688 33.480469 30.9375 31.390625 32.863281 L 45.863281 31.902344 C 46.238281 31.902344 46.390625 32.347656 45.941406 32.492188 L 11.394531 42.289062 C 14.898438 47.125 20.351562 50.316406 26.394531 50.910156 C 28.335938 51.136719 30.273438 51.136719 32.214844 50.765625 Z M 22.734375 30.335938 C 24.601562 23.28125 22.4375 15.855469 17.296875 11.921875 C 10.273438 16.382812 6.175781 24.695312 7.671875 33.386719 C 8.109375 36.277344 9.152344 38.878906 10.648438 41.1875 C 16.175781 39.699219 21.019531 36.800781 22.734375 30.335938 Z M 22.734375 30.335938 " fill-opacity="1" fill-rule="nonzero"/></svg>