<svg xmlns="http://www.w3.org/2000/svg" xmlns:xlink="http://www.w3.org/1999/xlink" width="240" zoomAndPan="magnify" viewBox="0 0 180 67.92" height="80" preserveAspectRatio="xMidYMid meet" version="1.0"><path fill="#c82f26" d="M 97.484375 16.570312 L 93.625 16.570312 C 92.808594 16.570312 91.476562 17.082031 91.175781 18.6875 C 90.335938 22.992188 89.816406 27.714844 89.226562 31.929688 C 88.683594 27.917969 87.804688 22.546875 87.007812 18.410156 C 86.777344 17.429688 85.871094 16.570312 84.542969 16.570312 L 80.621094 16.570312 C 79.292969 16.570312 78.382812 17.429688 78.152344 18.410156 C 77.175781 22.574219 76.425781 27.886719 75.925781 31.882812 C 75.339844 27.683594 74.820312 22.976562 73.988281 18.6875 C 73.683594 17.082031 72.355469 16.570312 71.535156 16.570312 L 67.675781 16.570312 C 66.574219 16.570312 64.910156 17.398438 65.097656 19.394531 C 65.859375 26.273438 67.792969 35.214844 70.023438 43.339844 C 70.371094 44.839844 71.566406 45.410156 72.574219 45.410156 L 77.652344 45.40625 C 79.210938 45.40625 80.027344 44.152344 80.179688 43.320312 L 82.53125 32.511719 L 82.628906 32.511719 L 84.980469 43.320312 C 85.132812 44.152344 85.949219 45.40625 87.507812 45.40625 L 92.585938 45.410156 C 93.589844 45.410156 94.789062 44.839844 95.136719 43.339844 C 97.367188 35.214844 99.300781 26.273438 100.0625 19.394531 C 100.25 17.398438 98.585938 16.570312 97.484375 16.570312 " fill-opacity="1" fill-rule="nonzero"/><path fill="#c82f26" d="M 35.066406 10.695312 C 35.066406 9.261719 36.222656 8.101562 37.644531 8.101562 L 42.351562 8.101562 C 43.777344 8.101562 44.929688 9.261719 44.929688 10.695312 L 44.929688 16.570312 L 47.417969 16.570312 C 48.394531 16.570312 49.1875 17.367188 49.1875 18.351562 L 49.1875 21.242188 C 49.1875 22.222656 48.394531 23.019531 47.417969 23.019531 L 44.929688 23.019531 L 44.929688 36.613281 C 44.929688 38.265625 45.960938 38.847656 47.417969 38.847656 C 48.394531 38.847656 49.1875 39.648438 49.1875 40.628906 L 49.1875 43.632812 C 49.1875 44.613281 48.394531 45.410156 47.417969 45.410156 C 46.042969 45.511719 44.617188 45.5625 43.574219 45.5625 C 38.042969 45.5625 35.066406 42.15625 35.066406 35.761719 L 35.066406 23.019531 L 33.132812 23.019531 C 32.15625 23.019531 31.363281 22.222656 31.363281 21.242188 L 31.363281 18.351562 C 31.363281 17.367188 32.15625 16.570312 33.132812 16.570312 L 35.066406 16.570312 " fill-opacity="1" fill-rule="nonzero"/><path fill="#c82f26" d="M 139.84375 18.632812 C 140.085938 17.457031 141.121094 16.570312 142.363281 16.570312 L 146.039062 16.570312 C 147.464844 16.570312 148.617188 17.734375 148.617188 19.167969 C 148.617188 19.308594 148.605469 19.449219 148.585938 19.582031 C 147.28125 27.613281 144.433594 37.542969 141.84375 46.082031 C 139.867188 52.585938 137.289062 54.773438 132.414062 54.773438 C 131.21875 54.773438 129.917969 54.753906 128.894531 54.699219 C 127.917969 54.699219 127.128906 53.902344 127.128906 52.917969 L 127.128906 49.835938 C 127.128906 48.855469 127.921875 48.058594 128.898438 48.058594 L 128.894531 48.054688 L 129.140625 48.058594 C 131.402344 48.058594 132.164062 46.460938 132.15625 45.875 C 132.140625 44.921875 131.953125 44.488281 131.753906 43.742188 C 129.953125 37.929688 127.808594 28.675781 125.964844 19.703125 C 125.929688 19.53125 125.90625 19.351562 125.90625 19.167969 C 125.90625 17.734375 127.0625 16.570312 128.484375 16.570312 L 132.246094 16.570312 C 133.441406 16.570312 134.449219 17.394531 134.738281 18.507812 C 135.710938 22.101562 136.714844 28.894531 137.511719 33.070312 L 137.609375 33.070312 C 138.300781 28.40625 139.117188 21.964844 139.84375 18.632812 " fill-opacity="1" fill-rule="nonzero"/><path fill="#c82f26" d="M 108.566406 45.753906 C 103.800781 45.753906 100.71875 42.535156 100.71875 37.550781 C 100.71875 32.417969 104.257812 29.101562 111.859375 27.113281 C 113.582031 26.703125 114.316406 25.863281 114.316406 24.3125 C 114.316406 23.214844 113.546875 22.421875 112.484375 22.421875 C 111.53125 22.421875 110.835938 22.917969 110.628906 23.753906 C 110.265625 25.246094 109.265625 25.941406 107.484375 25.941406 L 104.988281 25.941406 C 103.207031 25.941406 102.097656 24.851562 102.097656 23.097656 C 102.097656 22.800781 102.140625 22.511719 102.230469 22.238281 C 103.839844 16.722656 109.347656 15.898438 112.488281 15.898438 C 116.089844 15.898438 118.578125 16.484375 120.316406 17.75 C 122.355469 19.230469 123.410156 21.683594 123.550781 25.25 C 123.730469 29.488281 123.871094 37.929688 123.605469 42.582031 C 123.605469 44.132812 122.3125 45.40625 120.71875 45.40625 L 117.460938 45.40625 C 115.976562 45.40625 114.816406 44.320312 114.589844 42.75 C 113.351562 44.671875 111.199219 45.753906 108.566406 45.753906 M 114.488281 32.550781 C 114.097656 32.871094 113.570312 33.136719 113.027344 33.414062 C 111.738281 34.0625 110.277344 34.800781 110.085938 36.492188 C 110 37.234375 110.171875 37.863281 110.582031 38.316406 C 110.9375 38.707031 111.464844 38.941406 111.984375 38.941406 C 113.488281 38.941406 114.488281 38.253906 114.488281 34.894531 " fill-opacity="1" fill-rule="nonzero"/><path fill="#79a23d" d="M 61.417969 8.910156 L 61.300781 8.667969 L 61.300781 8.664062 C 60.335938 6.796875 58.402344 5.515625 56.164062 5.515625 C 52.972656 5.515625 50.386719 8.121094 50.386719 11.335938 C 50.386719 13.199219 51.253906 14.855469 52.605469 15.917969 L 52.605469 15.921875 C 54.25 17.207031 55.9375 19.636719 51.957031 23.40625 C 51.207031 24.199219 51.746094 24.816406 52.246094 25.144531 C 53.464844 25.941406 54.273438 25.824219 55.570312 25.144531 C 58.910156 23.398438 64.949219 16.324219 61.417969 8.910156 " fill-opacity="1" fill-rule="nonzero"/></svg>