<svg xmlns="http://www.w3.org/2000/svg" width="240" height="80" version="1.0" viewBox="0 0 180 67.92"><defs><clipPath id="a"><path d="M6.098 10.895H66V48H6.098Zm0 0"/></clipPath><clipPath id="b"><path d="M60 24h113.902v25.102H60Zm0 0"/></clipPath></defs><g clip-path="url(#a)"><path fill="#6097d1" d="M37.285 43.5c-1.715-.625-3.14-3.406-1.789-8.168 5.961-1.062 29.824-11.094 29.57-22.664-.113-4.469-15.242-.11-23.906 8.789.035-.09-.133.102-.45.496.74-2.894.497-5.316-.937-6.793-3.652-3.808-13.78 0-22.55 8.457C8.453 32.113 4.32 42.11 7.977 45.914c3.328 3.434 11.851.695 19.949-6.098-.36 1.66-.715 4.692 1.578 6.282 9.027 6.297 30.117-10.91 34.39-20.614-5.331 3.953-7.859 4.578-8.808 4.871-.219 1.282-9.578 16.04-17.8 13.145m0 0"/></g><path fill="#fff" d="M22.965 24.79c2.074 3.722 6.48 5.093 8.574 5.546 2.34-5.242 2.496-10.016.047-11.695-3.18-2.125-9.465 1.644-14.07 8.453-4.567 6.812-5.739 14.062-2.559 16.222 3.18 2.125 9.465-1.644 14.07-8.457q.44-.65.832-1.308c-5.297-2.48-6.894-8.762-6.894-8.762m0 0"/><g clip-path="url(#b)"><path fill="#cf4037" d="m128.656 30.023.04.368c.109.695.183 1.464.183 2.304h.035c.402-.77.844-1.39 1.316-1.828a4.1 4.1 0 0 1 1.61-.918c.367-.07.656-.11.914-.11h.289c.516 0 1.644.184 1.977.368-1.028.988-1.793 2.27-2.23 3.922-.185 0-.185-.04-.333-.04-.91 0-1.46.29-2.117.88-.477.402-.66.953-.88 1.574-.183.621-.288 1.465-.288 2.492 0 1.684.07 5.16.07 5.16h-5.113l.035-.511q.11-1.595.11-3.735v-3.48a31 31 0 0 0-.254-4.723c-.04-.289-.149-.84-.332-1.719h4.968Zm-50.398 0h5.262s-.075 1.797-.11 4.247v5.68l.11 4.241h-5.301l.039-.511c.07-1.063.113-2.27.113-3.735l.035-5.675Zm2.16-5.785h.36c.734 0 1.316.219 1.792.696.512.476.73 1.062.73 1.722 0 .438-.109.844-.327 1.246-.438.73-1.168 1.243-2.121 1.243-.657 0-1.207-.258-1.715-.73a2.3 2.3 0 0 1-.73-1.724c0-.586.214-1.136.581-1.609a2.38 2.38 0 0 1 1.43-.844m9.68 5.785.039.368c.11.695.183 1.464.183 2.304h.035c.407-.77.84-1.39 1.282-1.828.476-.402 1.023-.734 1.644-.918.625-.125.973-.11 1.496-.11l-.035 4.286c-.183-.035-.328-.035-.512-.035-.914 0-1.683.289-2.3.879-.477.433-.809.949-1.028 1.574-.183.617-.289 1.465-.289 2.488 0 1.684.075 5.164.075 5.164H85.57l.035-.515q.113-1.594.114-3.73v-3.481c0-2.059-.121-3.64-.258-4.723a22 22 0 0 1-.328-1.723Zm31.726 0-.039 10.692c0 .918.149 2.09.367 3.48h-4.898c-.074-.437-.184-1.062-.258-1.793-.473.621-1.058 1.172-1.75 1.535-.7.407-1.355.59-2.016.59-1.316 0-2.41-.773-2.996-2.16a6.6 6.6 0 0 1-.402-2.344l.04-8.02c0-.476-.11-1.136-.294-1.976h5.082c.11.438.145.914.145 1.5l-.04 7.543c0 .637.348 1.172.883 1.172q.293.002.543-.148c.188-.11.403-.29.621-.477v-5.746c0-1.902 0-3.184-.07-3.844h5.082Zm30.953 4.106-.035 7.027c.137.07.281.11.438.11.691 0 1.242-.438 1.644-1.356.438-.875.621-2.12.621-3.695.035-1.906-.476-2.82-1.46-2.82-.512 0-.91.218-1.208.734m-.293-2.969v.477h.04c.476-.66 1.023-1.172 1.574-1.5a3.63 3.63 0 0 1 1.898-.477q1.318.001 2.3.77c.696.55 1.208 1.28 1.61 2.234.367.914.551 2.012.551 3.219 0 1.539-.293 2.969-.914 4.25-.586 1.281-1.387 2.308-2.375 3.074-1.023.73-2.121 1.137-3.328 1.137a3.8 3.8 0 0 1-1.094-.184l.035 3.586.074 1.356h-5.117s.075-2.051.149-4.211v-8.786c0-1.722 0-2.968-.075-3.699q-.075-1.2-.292-2.379h4.824v.11l.039.039q.1.82.101.984m15.5 9.63.04-3.368c-.993.367-1.684.773-2.087 1.176-.402.402-.585.91-.585 1.496q0 .607.328.992.356.369.879.363.71 0 1.425-.66m-5.812-6.993v-3.625c.976-.223 1.96-.332 2.96-.328 1.391 0 2.634.183 3.805.55 1.133.329 2.008.805 2.633 1.43.84.84 1.239 2.086 1.239 3.805l-.036 5.676c0 .843.184 1.832.582 2.89h-4.933a8.5 8.5 0 0 1-.219-1.133 8.2 8.2 0 0 1-1.828 1.063c-.512.219-1.094.293-1.68.293-1.132 0-2.047-.332-2.777-1.066q-1.097-1.094-1.098-2.747c0-.84.293-1.683.88-2.562.292-.438.655-.84 1.058-1.172a5.8 5.8 0 0 1 1.5-.875c1.097-.55 2.336-.918 3.691-1.137-.039-.808-.219-1.43-.55-1.797-.329-.398-.805-.585-1.497-.585-.953 0-2.191.441-3.73 1.32m-21.965-1.246c-1.059 0-1.574 1.613-1.574 4.797-.035 1.465.113 2.562.332 3.293.219.699.62 1.027 1.133 1.027.293 0 .55-.074.73-.219.184-.144.367-.402.477-.734.11-.328.183-.766.254-1.317.039-.586.074-1.246.074-2.05 0-2.493-.11-3.844-.547-4.356q-.276-.44-.879-.441m.219-3.004c.953 0 1.793.183 2.597.55 1.61.665 2.743 2.016 3.399 3.77.289.914.476 1.906.437 2.969 0 2.457-.605 4.34-1.754 5.71-1.097 1.392-2.746 2.122-4.789 2.122-1.46 0-2.742-.29-3.8-.879-2.032-1.09-3.18-3.418-3.18-6.516.039-1.539.293-2.894.875-4.066 1.172-2.336 3.363-3.66 6.215-3.66m-44.04-4.793h11.985l-.035 3.59a43 43 0 0 0-4.531-.223c-.696.035-1.282.035-1.938.035v4.176c.586.04 1.278.074 2.121.074.95 0 1.899-.039 2.926-.11v3.735c-3.254-.074-5.047-.074-5.047-.074l-.039 4.648q1.102.113 2.086.114c1.645 0 3.18-.074 4.606-.258l-.036 3.734H96.352l.144-4.242.04-12.125c0-.254 0-.66-.04-1.172 0-.55-.035-1.172-.11-1.902m-28.542 4.941-1.684 7.211h3.656l-1.898-7.21Zm-2.489-4.941 5.774.07 6.105 19.371h-5.52l-1.058-3.953h-5.3l-1.024 3.953h-4.129L65.54 26Zm0 0"/></g><path fill="#fff" d="M53.48 16.953c1.68 0 3.325.442 3.325 2.235 0 5.785-12.172 12.597-19.77 11.792 1.934-5.828 10.3-14.027 16.445-14.027m0 0"/></svg>